<?xml version="1.0" encoding="UTF-8" standalone="no"?>
<!-- Created with Inkscape (http://www.inkscape.org/) -->

<svg
   width="220mm"
   height="80mm"
   viewBox="0 0 220 80"
   version="1.1"
   id="svg95978"
   inkscape:version="1.2.1 (9c6d41e410, 2022-07-14)"
   sodipodi:docname="Center.pic.svg"
   xmlns:inkscape="http://www.inkscape.org/namespaces/inkscape"
   xmlns:sodipodi="http://sodipodi.sourceforge.net/DTD/sodipodi-0.dtd"
   xmlns="http://www.w3.org/2000/svg"
   xmlns:svg="http://www.w3.org/2000/svg">
  <sodipodi:namedview
     id="namedview95980"
     pagecolor="#ffffff"
     bordercolor="#666666"
     borderopacity="1.0"
     inkscape:pageshadow="2"
     inkscape:pageopacity="0.0"
     inkscape:pagecheckerboard="0"
     inkscape:document-units="mm"
     showgrid="false"
     width="275mm"
     inkscape:zoom="0.71713664"
     inkscape:cx="498.5103"
     inkscape:cy="115.73806"
     inkscape:window-width="1920"
     inkscape:window-height="1017"
     inkscape:window-x="-8"
     inkscape:window-y="-8"
     inkscape:window-maximized="1"
     inkscape:current-layer="layer1"
     inkscape:showpageshadow="2"
     inkscape:deskcolor="#d1d1d1" />
  <defs
     id="defs95975">
    <rect
       x="-1.3944345"
       y="0"
       width="858.97152"
       height="359.764"
       id="rect104247" />
  </defs>
  <g
     inkscape:label="圖層 1"
     inkscape:groupmode="layer"
     id="layer1">
    <g
       aria-label="意象：護國神山 v.s. 土地開發
面對迫遷的危機，我們這座台灣文化的&quot;護國神山&quot;，還有多少的時間呢?"
       transform="matrix(0.26458333,0,0,0.26458333,0.52916667,0)"
       id="text104245"
       style="font-size:40px;line-height:1.25;white-space:pre;shape-inside:url(#rect104247);display:inline">
      <path
         d="M 35.773437,42.800781 H 1.7304687 V 39.851562 H 11.203125 Q 10.65625,38.699219 9.7578125,37.566406 H 3.7226563 V 34.695312 H 16.398437 q -0.390625,-0.917968 -1.191406,-2.167968 l 3.710938,-0.800782 q 0.800781,1.269532 1.484375,2.96875 h 13.359375 v 2.871094 h -5.878907 q -0.546875,0.917969 -1.5625,2.285156 h 9.453125 z M 23.566406,37.566406 H 14.09375 q 0.46875,0.761719 1.191406,2.285156 h 6.601563 q 1.210937,-1.503906 1.679687,-2.285156 z m 8.046875,19.53125 H 5.9296875 V 44.734375 H 31.613281 Z m -3.535156,-7.734375 v -1.71875 H 9.5234375 v 1.71875 z m 0,4.804688 V 52.097656 H 9.5234375 v 2.070313 z m -5.351563,7.285156 -3.359375,0.800781 Q 18.566406,60.4375 17.238281,58.523437 l 3.359375,-1.035156 q 1.445313,2.128906 2.128906,3.964844 z m 13.847657,3.164062 -3.046875,1.953125 q -1.660157,-3.535156 -4.472657,-6.796875 l 2.949219,-2.011718 q 3.105469,3.652343 4.570313,6.855468 z M 9.328125,59.773437 Q 6.8085937,64.265625 4.40625,66.882812 L 1.4375,64.851562 Q 4.0351562,62.15625 6.125,58.171875 Z m 19.726562,1.5625 q -0.410156,5.3125 -3.378906,5.3125 l -7.402344,0.03906 q -4.707031,0 -5.566406,-0.136719 -0.839843,-0.117187 -1.445312,-0.78125 Q 10.675781,65.125 10.675781,63.679687 v -5.234375 h 3.535157 v 3.886719 q 0,1.074219 0.878906,1.074219 l 8.828125,-0.03906 q 1.601562,0 1.601562,-3.046875 z"
         style="font-weight:bold;-inkscape-font-specification:'sans-serif Bold'"
         id="path15201" />
      <path
         d="m 76.691406,62.449219 -1.601562,3.125 q -8.535157,-2.910157 -11.796875,-5.527344 -0.136719,4.101562 -1.660157,5.507812 -1.503906,1.40625 -5.214843,1.40625 -1.015625,0 -2.363282,-0.07813 l -1.171875,-3.28125 q 1.367188,0.09766 2.519532,0.09766 3.007812,0 3.710937,-0.625 0.722656,-0.644532 0.722656,-2.636719 0,-0.761719 -0.117187,-1.347656 -5.78125,3.945312 -16.992188,6.5625 L 41.28125,62.722656 q 11.621094,-2.167969 17.929687,-6.71875 -0.09766,-0.332031 -0.644531,-1.347656 -5.859375,3.496094 -15.644531,5.664062 l -1.523438,-2.910156 q 9.355469,-1.542969 15.566407,-5.15625 -0.292969,-0.332031 -1.074219,-1.132812 -5.585938,2.558593 -13.164063,3.808593 l -1.40625,-3.007812 q 7.1875,-0.664063 12.773438,-3.027344 h -8.769531 v -7.089844 q -0.703125,0.429688 -2.070313,1.09375 l -2.207031,-2.8125 Q 49.464844,36.257812 53.683594,31.6875 l 3.632812,1.289062 q -0.429687,0.625 -1.113281,1.152344 h 11.445312 v 3.125 q -1.367187,1.210938 -3.515625,2.714844 h 9.023438 v 8.925781 H 59.601562 l -0.644531,0.46875 q 2.03125,2.050781 3.125,4.84375 6.152344,-1.972656 9.882813,-4.277344 l 2.363281,2.558594 q -4.433594,2.421875 -10.449219,4.316406 3.574219,2.96875 12.8125,5.644532 z M 62.492187,37.253906 h -9.882812 q -1.621094,1.210938 -4.042969,2.714844 h 10.234375 q 1.953125,-1.289063 3.691406,-2.714844 z m 7.148438,8.789063 v -3.203125 h -8.632813 v 3.203125 z m -12.109375,0 v -3.203125 h -8.652344 v 3.203125 z"
         style="font-weight:bold;-inkscape-font-specification:'sans-serif Bold'"
         id="path15203" />
      <path
         d="m 98.605469,42.976562 q 1.210937,0 2.011721,0.78125 0.82031,0.78125 0.82031,1.894532 0,1.152343 -0.83984,1.933593 -0.820316,0.78125 -1.992191,0.78125 -1.132813,0 -1.972657,-0.78125 -0.820312,-0.78125 -0.820312,-1.933593 0,-1.113282 0.800781,-1.894532 0.820313,-0.78125 1.992188,-0.78125 z m 0,17.070313 q 1.171875,0 1.992191,0.78125 0.83984,0.78125 0.83984,1.933594 0,1.152343 -0.82031,1.933593 -0.800784,0.761719 -2.011721,0.761719 -1.171875,0 -1.992188,-0.78125 -0.800781,-0.78125 -0.800781,-1.914062 0,-1.152344 0.820312,-1.933594 0.839844,-0.78125 1.972657,-0.78125 z"
         style="font-weight:bold;-inkscape-font-specification:'sans-serif Bold'"
         id="path15205" />
      <path
         d="m 141.19922,22.78125 h -18.125 V 17.9375 h 7.3125 q -0.75,-2.375 -2.0625,-4.8125 l 5.5625,-1.53125 q 1.21875,2.5 2.25,6.34375 h 5.0625 z m 17.28125,-0.75 h -5.4375 v -2.5 h -9.8125 v -4.75 h 9.8125 v -2.625 h 5.4375 z m 20.40625,-2.5 h -9.78125 v 2.5625 h -4.5625 q 0.90625,1.40625 1.28125,3.125 h 11.78125 V 29.125 h -12.03125 v 2.4375 h 11.15625 v 3.65625 h -11.15625 v 2.4375 h 11.15625 v 3.5625 h -11.15625 v 2.5 h 12.75 V 47.625 H 144.91797 V 35.90625 q -1.03125,1.15625 -1.9375,1.875 l -2.8125,-4.5 q 5.25,-5.0625 8.78125,-12.21875 l 4.46875,2.1875 q -0.375,0.9375 -0.90625,1.96875 h 7.5625 q -0.375,-1.3125 -1.21875,-2.5 l 4.875,-1.46875 v -9.09375 h 5.375 v 2.625 h 9.78125 z m -18.75,12.03125 V 29.125 h -9.59375 v 2.4375 z m 0,6.09375 v -2.4375 h -9.59375 v 2.4375 z m 0,6.0625 v -2.5 h -9.59375 v 2.5 z m -20.28125,-11.125 h -15.8125 v -5.125 h 15.8125 z m 0,9.21875 h -15.8125 V 36.75 h 15.8125 z m -0.0625,25.0625 h -5.3125 v -2.6875 h -5.25 v 3.90625 h -5.3125 v -21.9375 h 15.875 z m -5.3125,-7.65625 v -8.0625 h -5.25 v 8.0625 z m 44.8125,4.71875 -2.125,4.8125 q -10.0625,-1.65625 -16.65625,-4.5 -7.625,2.8125 -16.625,4.25 l -2.25,-4.875 q 5.84375,-0.40625 13.375,-2.5 -4.25,-2.53125 -7.28125,-6.71875 h -2.75 V 50.1875 h 31.875 v 4.21875 q -5,4.78125 -9.46875,6.96875 4.875,1.59375 11.90625,2.5625 z m -9.9375,-9.53125 h -15.21875 q 3.46875,3.0625 6.96875,4.53125 3.9375,-1.46875 8.25,-4.53125 z"
         style="font-style:italic;font-weight:bold;font-size:64px;-inkscape-font-specification:'sans-serif Bold Italic'"
         id="path15207" />
      <path
         d="m 240.44922,68.21875 h -5.75 V 65.75 h -39.8125 v 2.46875 h -5.625 V 13.25 h 51.1875 z m -5.75,-7.46875 V 18.3125 h -39.8125 V 60.75 Z m -0.78125,-11.28125 q -1.5625,9.40625 -6.65625,9.40625 -3.15625,0 -5.6875,-4.40625 -2.90625,3.34375 -5.75,5.3125 L 212.10547,56.125 q 3.65625,-2.84375 7.25,-7.15625 -2.3125,-7.3125 -3.21875,-19.78125 h -19.0625 v -4.53125 h 18.75 q -0.0625,-1.21875 -0.0625,-4.9375 l 5.25,-0.125 q -0.0937,2.59375 0.1875,5.0625 h 7.21875 q -2.34375,-1.4375 -5.5,-2.375 l 3.09375,-3.1875 q 3.125,1.0625 5.875,2.6875 l -2.75,2.875 h 3.53125 v 4.53125 h -11.28125 q 0.4375,8.375 1.84375,13.5625 2.71875,-5.15625 4.8125,-11.84375 l 4.53125,2.125 Q 229.60547,43.375 225.10547,49.75 q 0.46875,1.625 1.25,2.59375 0.78125,0.9375 1.0625,0.9375 0.4375,0 1.15625,-1.78125 0.71875,-1.78125 1.1875,-5.53125 z m -20.15625,-3.375 h -15.28125 v -13.625 h 15.28125 z m -5.25,-4.5625 V 37.125 h -4.84375 v 4.40625 z m 7.0625,10.4375 q -8.96875,3.46875 -18.8125,5.71875 l -0.65625,-5.125 q 9.1875,-1.75 19.21875,-5.4375 z"
         style="font-style:italic;font-weight:bold;font-size:64px;-inkscape-font-specification:'sans-serif Bold Italic'"
         id="path15209" />
      <path
         d="m 266.63672,19.34375 -5,2.6875 q -1.3125,-2.4375 -5.6875,-7.4375 l 4.875,-2.9375 q 3.53125,4.03125 5.8125,7.6875 z m 38.53125,35 h -12.53125 v 13.6875 h -5.78125 V 54.34375 H 274.38672 V 20.4375 h 12.46875 v -7.875 h 5.78125 v 7.875 h 12.53125 z m -5.625,-19.65625 v -9 h -6.90625 v 9 z m -12.6875,0 v -9 h -6.96875 v 9 z m 12.6875,14.40625 V 39.6875 h -6.90625 v 9.40625 z m -12.6875,0 V 39.6875 h -6.96875 v 9.40625 z m -13.625,-2.875 -3.84375,4.34375 q -2.59375,-4.375 -4.59375,-6.71875 v 24.1875 h -5.5 v -21.6875 q -2.1875,2.34375 -5.65625,5.4375 l -3.3125,-4.875 q 9.84375,-7.875 14.65625,-18.40625 h -13.3125 v -5.3125 h 19.4375 V 28.5 q -1.625,3.8125 -4.84375,9 4.84375,5.40625 6.96875,8.71875 z"
         style="font-style:italic;font-weight:bold;font-size:64px;-inkscape-font-specification:'sans-serif Bold Italic'"
         id="path15211" />
      <path
         d="m 367.88672,68.21875 h -5.875 v -2.875 h -43.84375 v -42.75 h 5.875 v 37.125 h 16.1875 V 12.375 h 5.625 v 47.34375 h 16.15625 v -37.125 h 5.875 z"
         style="font-style:italic;font-weight:bold;font-size:64px;-inkscape-font-specification:'sans-serif Bold Italic'"
         id="path15213" />
      <path
         d="m 398.09347,64.96875 -4.288,-34.944 h 9.216 l 1.408,18.304 q 0.128,1.216 0.128,3.392 0.064,2.112 0.064,3.84 h 0.32 q 0.576,-1.6 1.344,-3.648 0.768,-2.112 1.408,-3.328 l 9.28,-18.56 h 10.112 l -18.88,34.944 z"
         style="font-style:italic;font-weight:bold;font-size:64px;-inkscape-font-specification:'sans-serif Bold Italic'"
         id="path15215" />
      <path
         d="m 426.44535,65.80075 q -2.688,0 -3.776,-1.344 -1.088,-1.408 -1.088,-3.072 0,-2.304 1.408,-4.224 1.472,-1.984 4.992,-1.984 2.112,0 3.392,1.216 1.28,1.152 1.28,3.328 0,2.624 -1.728,4.352 -1.664,1.728 -4.48,1.728 z"
         style="font-style:italic;font-weight:bold;font-size:64px;-inkscape-font-specification:'sans-serif Bold Italic'"
         id="path15217" />
      <path
         d="m 450.25334,65.60875 q -3.392,0 -5.888,-0.512 -2.432,-0.448 -4.608,-1.536 v -7.744 q 2.368,1.344 4.864,2.112 2.496,0.704 5.12,0.704 2.24,0 3.968,-0.896 1.728,-0.96 1.728,-2.88 0,-1.28 -1.024,-2.304 -1.024,-1.024 -4.224,-2.816 -3.264,-1.792 -5.056,-3.84 -1.728,-2.048 -1.728,-5.376 0,-5.44 3.52,-8.256 3.52,-2.88 9.792,-2.88 3.008,0 5.824,0.704 2.816,0.64 5.504,2.24 l -3.072,6.72 q -1.856,-1.088 -3.968,-1.856 -2.048,-0.768 -4.096,-0.768 -1.536,0 -2.752,0.768 -1.216,0.704 -1.216,2.176 0,1.28 1.024,2.176 1.024,0.896 3.712,2.304 3.136,1.664 5.184,3.84 2.112,2.176 2.112,5.76 0,6.016 -4.032,9.088 -3.968,3.072 -10.688,3.072 z"
         style="font-style:italic;font-weight:bold;font-size:64px;-inkscape-font-specification:'sans-serif Bold Italic'"
         id="path15219" />
      <path
         d="m 474.95732,65.80075 q -2.688,0 -3.776,-1.344 -1.088,-1.408 -1.088,-3.072 0,-2.304 1.408,-4.224 1.472,-1.984 4.992,-1.984 2.112,0 3.392,1.216 1.28,1.152 1.28,3.328 0,2.624 -1.728,4.352 -1.664,1.728 -4.48,1.728 z"
         style="font-style:italic;font-weight:bold;font-size:64px;-inkscape-font-specification:'sans-serif Bold Italic'"
         id="path15221" />
      <path
         d="m 564.11157,66.625 h -55.6875 v -5.5625 h 24.84375 V 37.125 h -20.5 v -5.6875 h 20.5 v -19 h 5.875 v 19 h 20.75 v 5.6875 h -20.75 v 23.9375 h 24.96875 z"
         style="font-style:italic;font-weight:bold;font-size:64px;-inkscape-font-specification:'sans-serif Bold Italic'"
         id="path15223" />
      <path
         d="m 628.73657,55.9375 q -0.25,6.34375 -1.65625,8.625 -1.375,2.25 -4.90625,2.6875 -3.53125,0.4375 -12.53125,0.4375 -7.0625,0 -9.625,-0.28125 -2.5625,-0.25 -4,-1.875 -1.4375,-1.625 -1.4375,-4.90625 V 40.25 l -4.4375,1.75 -0.6875,-5.78125 5.125,-2.09375 V 19.78125 h 5.5625 V 31.75 l 7.5,-2.9375 V 12.375 h 5.5625 V 26.5 l 13.3125,-5.4375 q -0.3125,16.34375 -2.75,27.96875 l -5.4375,-1.65625 q 1.875,-8.78125 2.34375,-17.9375 l -7.46875,3.03125 v 24 h -5.5625 V 34.8125 l -7.5,3.03125 v 22.25 q 0,1.84375 1.375,2.03125 1.375,0.1875 8.78125,0.1875 7.5625,0 9.90625,-0.125 2.34375,-0.125 2.65625,-2.21875 0.34375,-2.125 0.4375,-6.125 z m -36.96875,0.25 q -10.21875,5.1875 -17.875,7.875 l -1.46875,-5.375 Q 575.83032,57.59375 579.39282,56 V 32.46875 h -6.125 v -5.375 h 6.125 V 12.4375 h 5.71875 v 14.65625 h 5.75 v 5.375 h -5.75 V 53.375 q 3.1875,-1.34375 6.1875,-3 z"
         style="font-style:italic;font-weight:bold;font-size:64px;-inkscape-font-specification:'sans-serif Bold Italic'"
         id="path15225" />
      <path
         d="m 690.58032,63.375 q 0,2.15625 -1.53125,3.46875 -1.53125,1.3125 -8.59375,1.3125 -1.3125,0 -2.3125,-0.0625 l -1.46875,-6.125 q 2.3125,0.53125 5.5,0.53125 1.71875,0 2.21875,-0.3125 0.5,-0.3125 0.5,-1.3125 v -26.75 h -18.3125 V 13.84375 h 24 z m -5.6875,-41.59375 v -2.75 h -12.5 v 2.75 z m 0,7.46875 V 26.5 h -12.5 v 2.75 z m -22.53125,4.875 h -18.3125 v 34.15625 h -5.75 v -54.4375 h 24.0625 z m -5.78125,-12.34375 v -2.75 h -12.53125 v 2.75 z m 0,7.46875 V 26.5 h -12.53125 v 2.75 z m 26.1875,23.9375 h -8.96875 v 13.84375 h -5.6875 V 53.1875 h -7.5625 q -0.90625,8.5625 -8.3125,14.03125 l -4.75,-3.84375 q 6.21875,-4.09375 7.1875,-10.1875 h -8.90625 v -5.375 h 9.40625 v -5.25 h -7.40625 V 37.25 h 33.15625 v 5.3125 h -7.125 v 5.25 h 8.96875 z m -14.65625,-5.375 v -5.25 h -7.09375 v 5.25 z"
         style="font-style:italic;font-weight:bold;font-size:64px;-inkscape-font-specification:'sans-serif Bold Italic'"
         id="path15227" />
      <path
         d="m 756.95532,30.21875 -2.90625,4.46875 q -3.3125,-1.4375 -5.875,-3 v 6.46875 q 0,1.03125 1.09375,1.03125 h 5.6875 v 4.84375 h -7.5 q -4.59375,0 -4.59375,-4.71875 v -3.90625 h -6.28125 q 0,6.65625 -7.34375,10.3125 l -3.46875,-4.1875 q 2.53125,-1.0625 4,-2.84375 1.5,-1.8125 1.5,-5.84375 v -2.375 h 14.78125 q -11.9375,-7.3125 -16.3125,-17.03125 l 5.0625,-1.59375 q 0.875,2.1875 3.25,5.125 2.8125,-2.3125 4.875,-5.125 l 4.59375,2.875 q -3.03125,3.71875 -5.9375,5.96875 0.9375,0.9375 2.875,2.4375 3.59375,-2.96875 6.21875,-5.96875 l 4.40625,2.8125 q -3.15625,3.6875 -6.34375,6.09375 3.09375,1.96875 8.21875,4.15625 z M 727.11157,18.25 q -4.8125,6.96875 -14.40625,12.21875 h 11.53125 V 45 h -12.65625 l -0.65625,5.5625 h 14.03125 q -0.15625,8.65625 -1.09375,12.125 -0.9375,3.4375 -3.03125,4.4375 -2.09375,1.03125 -8.3125,1.03125 -2.09375,0 -5.1875,-0.0625 l -1.90625,-5.25 q 3.28125,0.21875 10.6875,0.21875 3,0 3,-7.6875 h -14.40625 l 1.875,-15.1875 h 12.15625 v -4.84375 h -10.625 v -2.6875 q -2.03125,1 -5.25,2.03125 l -2.625,-4.65625 q 4.90625,-1.53125 9.40625,-3.84375 -2.34375,-1.46875 -5.5,-2.875 l 3.78125,-3.96875 q 2.625,1.09375 6.96875,3.65625 3.15625,-2.125 5.4375,-4.75 h -14.40625 v -5 h 21.1875 z m 28.625,46.78125 -3.96875,3.59375 q -4.0625,-3.03125 -9.40625,-6.21875 -5.46875,4.0625 -13.65625,6.40625 l -2.8125,-4.6875 q 7.5,-1.96875 11.40625,-4.59375 -5.09375,-2.96875 -8.65625,-4.6875 l 3.28125,-3.375 h -3.78125 v -4.9375 h 23.9375 v 4.9375 q -2.625,3.90625 -5.625,7.21875 4.8125,3.0625 9.28125,6.34375 z m -10.25,-13.5625 h -12.03125 q 4.34375,2.1875 8.375,4.46875 2.40625,-2.53125 3.65625,-4.46875 z"
         style="font-style:italic;font-weight:bold;font-size:64px;-inkscape-font-specification:'sans-serif Bold Italic'"
         id="path15229" />
      <path
         d="M 36.046875,97.381271 H 20.324219 q -1.289063,3.105469 -2.480469,5.195309 h 15.488281 v 26.67969 h -2.089844 v -2.40234 H 6.203125 v 2.40234 H 4.09375 V 102.57658 H 15.402344 Q 17.257812,99.744553 18,97.381271 H 1.3203125 V 95.389084 H 36.046875 Z m -4.804688,27.363279 v -20.07812 h -5.683593 v 20.07812 z m -7.753906,-15.11718 v -4.96094 h -9.433593 v 4.96094 z M 11.886719,124.74455 V 104.66643 H 6.203125 v 20.07812 z m 11.601562,-7.71484 v -5.37109 h -9.433593 v 5.37109 z m 0,7.71484 v -5.76172 h -9.433593 v 5.76172 z"
         id="path15231" />
      <path
         d="m 60.675781,126.11174 q -7.910156,1.38672 -18.671875,2.30469 l -0.605469,-2.03125 q 4.082032,-0.23438 9.042969,-0.76172 V 120.2719 H 42.6875 v -2.01172 h 7.753906 v -4.55078 h -8.515625 v -1.97266 h 5.234375 q -0.898437,-3.02734 -2.03125,-5.35156 h -3.242187 v -1.875 h 5.839843 V 94.510178 h 2.03125 v 10.000002 h 3.535157 V 94.510178 h 2.03125 v 10.000002 h 5.117187 v 1.875 h -3.027344 q -0.898437,2.73437 -2.089843,5.35156 h 4.765625 v 1.97266 h -7.636719 v 4.55078 h 6.757812 v 2.01172 h -6.757812 v 5.07812 q 3.867187,-0.42969 8.222656,-1.28906 z m -5.46875,-19.72656 h -7.792969 q 1.035157,2.40234 1.914063,5.35156 h 3.789062 q 1.40625,-3.14453 2.089844,-5.35156 z m 20.957031,-1.11328 h -3.671875 v 20.54687 q 0,1.40625 -0.664062,2.22656 -0.664063,0.82032 -1.503906,1.07422 -0.839844,0.27344 -3.417969,0.27344 -1.367188,0 -2.539063,-0.0977 l -0.800781,-2.07031 q 2.089844,0.11719 5.234375,0.11719 1.640625,0 1.640625,-1.67969 V 105.2719 h -8.75 v -2.01172 h 8.75 v -8.71094 h 2.050781 v 8.71094 h 3.671875 z M 61.886719,96.502365 q -1.308594,3.652345 -3.164063,6.445315 l -1.679687,-1.05469 q 2.246093,-3.652344 2.96875,-6.191406 z m -15.800782,5.566405 -1.796875,0.83985 q -0.898437,-3.242192 -2.519531,-6.132817 l 1.679688,-0.839844 q 1.640625,2.832031 2.636718,6.132811 z m 21.601563,16.60156 -1.953125,0.95704 q -1.445313,-4.76563 -4.042969,-9.49219 l 1.71875,-0.9961 q 2.226563,3.71094 4.277344,9.53125 z"
         id="path15233" />
      <path
         d="M 113.56641,120.97502 H 94.25 V 99.334396 h 7.55859 q 0.95704,-1.777343 1.75782,-5.078125 l 2.07031,0.410157 q -0.52734,2.402343 -1.54297,4.667968 h 9.47266 z m -2.12891,-12.14844 v -7.40234 H 96.320312 v 7.40234 z m 0,10.11719 V 110.8969 H 96.359375 v 8.04687 z M 89.71875,100.2133 88.117187,101.61955 Q 85.519531,98.338303 82.375,95.623459 l 1.503906,-1.367188 q 3.046875,2.519532 5.839844,5.957029 z m 26.67969,26.44532 -0.625,2.16796 -16.05469,-0.0391 q -8.183594,0 -12.792969,-4.64844 -1.660156,2.42188 -4.433594,5.48829 L 80.8125,128.3383 q 6.035156,-5.97656 7.675781,-12.7539 h -6.523437 v -1.91407 q 3.808593,-4.82421 5.996093,-8.125 h -6.601562 v -2.01171 h 9.121094 v 2.01171 q -1.777344,2.5586 -5.917969,8.02735 h 5.996094 v 2.01172 q -0.859375,3.67187 -2.675782,6.875 2.109375,2.10937 4.765625,3.125 2.675782,0.99609 6.25,1.11328 3.574223,0.0977 9.082033,0.0977 4.76562,0 8.41797,-0.13671 z"
         id="path15235" />
      <path
         d="m 129.89453,100.05705 -1.5625,1.40625 q -2.36328,-3.300779 -5.83984,-5.644529 l 1.46484,-1.40625 q 3.41797,2.421875 5.9375,5.644529 z m 26.15234,16.9336 -1.11328,1.67968 q -2.01172,-2.34375 -5.03906,-4.49218 -0.15625,4.25781 -1.01562,5.48828 -0.83985,1.21094 -3.47657,1.21094 -0.64453,0 -1.71875,-0.0586 l -0.52734,-1.95312 q 1.13281,0.15625 2.14844,0.15625 1.58203,0 1.99218,-0.70313 0.42969,-0.72265 0.42969,-2.46094 h -9.60937 v 6.03516 q 0,0.74219 0.5664,0.91797 0.58594,0.15625 6.5625,0.15625 4.17969,0 5.42969,-0.11719 1.26953,-0.13672 1.48438,-2.53906 l 1.97265,0.70312 q -0.58594,2.16797 -1.28906,2.8711 -0.70313,0.70312 -1.91406,0.78125 -1.21094,0.0781 -8.57422,0.0781 -2.32422,0 -3.71094,-0.0195 -1.36719,-0.0391 -1.97266,-0.82031 -0.58593,-0.80078 -0.58593,-1.95313 v -5.44921 q -2.07032,1.64062 -3.55469,2.40234 l -1.32813,-1.44531 q 4.17969,-2.42188 7.12891,-5.87891 h -6.48437 v -1.83594 h 7.83203 q 0.89843,-1.34765 1.25,-2.28515 h -8.125 v -7.519535 h 6.52343 v -2.753906 h -7.89062 v -1.835938 h 23.92578 v 1.835938 h -7.63672 v 2.753906 h 6.60156 v 7.519535 h -11.28906 q -0.41015,1.23047 -1.03515,2.28515 h 13.76953 v 1.83594 h -6.32813 q 3.90625,2.55859 6.60156,5.41016 z M 145.77344,99.939865 v -2.753906 h -4.41407 v 2.753906 z m 6.54297,5.644535 v -3.8086 h -4.58985 v 3.8086 z m -6.54297,0 v -3.8086 h -4.41407 v 3.8086 z m -6.44532,0 v -3.8086 h -4.57031 v 3.8086 z m 10.23438,8.35937 q -1.03516,-0.82031 -2.28516,-1.58203 -1.23047,-0.78125 -1.26953,-0.78125 h -5.15625 q -0.78125,1.21094 -1.93359,2.36328 z m 6.5625,12.94922 -0.39063,1.97266 h -14.08203 q -10.44922,0 -15.03906,-4.72657 -1.8164,2.96875 -4.04297,5.33204 l -1.36718,-1.73829 q 4.72656,-4.90234 7.20703,-12.51953 h -6.44532 v -1.83593 q 3.20313,-4.0625 5.95704,-8.20313 h -6.5625 v -1.99219 h 9.23828 v 1.99219 q -2.77344,3.88672 -6.03516,8.08594 h 5.99609 v 1.95312 q -0.99609,3.14453 -3.02734,7.28516 4.29687,4.39453 14.19922,4.39453 z"
         id="path15237" />
      <path
         d="m 175.16797,128.57268 h -2.01172 v -3.4375 h -8.63281 v 4.23828 h -2.03125 v -28.35938 h 3.71093 q 1.50391,-2.675777 2.85157,-6.874996 l 1.99218,0.410156 q -0.70312,2.109375 -2.71484,6.46484 h 6.83594 z m -2.01172,-16.95313 v -8.59375 h -8.63281 v 8.59375 z m 0,11.48438 v -9.47266 h -8.63281 v 9.47266 z m 22.05078,-22.05078 q -0.23437,8.98437 -0.87891,16.69922 -0.625,7.71484 -1.26953,9.08203 -0.64453,1.36718 -1.66015,1.93359 -0.9961,0.58594 -3.8086,0.58594 -1.23047,0 -3.22265,-0.0586 l -0.64453,-2.03125 q 1.64062,0.0586 3.53515,0.0586 1.77735,0 2.26563,-0.0391 0.50781,-0.0391 1.05468,-0.48829 0.54688,-0.46875 0.78125,-1.07421 0.23438,-0.625 0.625,-4.60938 0.39063,-3.98437 0.64454,-8.76953 0.2539,-4.80469 0.37109,-9.31641 h -10.42969 q -2.08984,4.16016 -4.84375,7.91016 l -1.64062,-1.15234 q 5.2539,-6.89454 7.4414,-15.371099 l 2.03125,0.527344 q -0.97656,3.203125 -2.1875,6.113285 z m -7.36328,17.92968 -1.67969,1.19141 q -1.93359,-4.45312 -5.80078,-9.31641 l 1.71875,-1.11328 q 3.59375,4.33594 5.76172,9.23828 z"
         id="path15239" />
      <path
         d="m 236.125,106.50237 h -27.79297 q -0.0781,10.58593 -1.30859,15.07812 -1.21094,4.47266 -3.76953,7.63672 l -1.81641,-1.26953 q 4.74609,-5.52735 4.74609,-18.73047 0,-2.07031 -0.0977,-4.47266 -1.3086,0.87891 -2.83203,1.75782 l -1.48438,-1.71875 q 7.61719,-4.21875 11.95313,-10.371099 l 2.28515,0.527344 q -0.5664,1.074219 -1.95312,2.636719 h 14.3164 v 2.128906 q -2.7539,2.87109 -4.88281,4.76563 H 236.125 Z m -10.52734,-6.875005 h -13.4375 q -2.53907,2.578125 -5.6836,4.843755 h 14.04297 q 2.92969,-2.48047 5.07813,-4.843755 z m 10.44921,22.636715 q -0.21484,2.77344 -0.9375,4.53125 -0.70312,1.73829 -2.67578,1.97266 -1.95312,0.25391 -9.9414,0.25391 -5.35157,0 -6.67969,-0.0586 -1.32813,-0.0586 -2.07031,-0.8789 Q 213,127.26408 213,126.34612 v -15.41016 h 19.27734 q -0.11718,4.33594 -0.44922,7.10937 -0.33203,2.75391 -1.77734,3.28125 -1.44531,0.50782 -6.60156,0.41016 l -0.9961,-2.1875 q 1.89454,0.15625 3.47657,0.15625 2.55859,0 3.26172,-0.35156 0.70312,-0.3711 0.9375,-6.44531 h -15 v 12.87109 q 0,0.85937 0.70312,1.07422 0.72266,0.21484 6.71875,0.21484 2.96875,0 6.07422,-0.0781 3.125,-0.0977 3.47656,-0.17578 0.35156,-0.0977 0.70313,-0.39063 0.35156,-0.29297 0.52734,-0.76172 0.17578,-0.46875 0.72266,-4.16015 z"
         id="path15241" />
      <path
         d="m 276.4375,123.06487 q -0.41016,3.33984 -1.25,5.03906 -0.82031,1.71875 -2.26563,1.71875 -2.61718,0 -5.72265,-5.44922 -3.26172,2.75391 -7.71485,4.80469 l -1.40625,-1.60157 q 4.66797,-1.69921 8.24219,-4.88281 -1.79687,-3.73047 -2.40234,-7.1875 h -7.30469 l -0.25391,2.40235 q 3.32032,1.75781 5.64454,3.90625 l -1.15235,1.67968 q -1.5039,-1.64062 -4.76562,-3.63281 -1.23047,5.74219 -5,9.76563 L 249.25,128.3383 q 4.88281,-4.29687 5.23437,-12.83203 h -3.55468 v -2.01172 h 12.59765 q -1.15234,-9.58984 -1.28906,-19.277341 l 2.05078,0.07813 q 0.25391,12.988286 1.34766,19.199216 h 4.04297 q -0.15625,-0.35156 -0.95703,-1.875 l 1.64062,-0.68359 q 0.78125,0.97656 1.40625,2.55859 h 4.27734 v 2.01172 h -10.03906 q 0.42969,2.57813 1.875,5.64453 1.9336,-1.99218 3.47656,-4.76562 l 1.5625,0.99609 q -1.875,3.20313 -4.27734,5.56641 0.82031,1.67969 2.10938,3.22265 1.28906,1.54297 1.99218,1.54297 0.56641,0 1.01563,-1.03515 0.46875,-1.05469 0.91797,-4.57032 z m -24.27734,-11.95313 -1.5625,1.30859 q -1.13282,-2.07031 -2.48047,-4.0039 v 20.95703 h -2.07032 v -19.86328 q -2.1875,6.26953 -3.88671,9.23828 l -1.15235,-2.20703 q 3.04688,-5.33203 5,-13.00781 h -4.6875 v -1.99219 h 4.72656 v -7.324221 h 2.07032 v 7.324221 h 2.96875 v 1.99219 h -2.96875 v 2.1289 q 2.1289,2.59766 4.04297,5.44922 z m 10.03906,0.11719 -1.79688,0.50781 q -0.0586,-0.70312 -0.3125,-1.83594 -4.25781,0.39063 -7.32422,0.80078 l -0.3125,-1.44531 q 2.5586,-3.04687 4.23829,-5.54687 l -4.16016,0.625 -0.52734,-1.71875 q 2.71484,-4.492191 4.08203,-8.105472 l 1.79687,0.839843 q -1.21094,2.832032 -3.55469,6.796879 1.91407,-0.17578 3.82813,-0.60547 0.85937,-1.23047 1.89453,-3.24219 l 1.71875,0.957031 q -2.89062,4.882809 -6.64062,9.277349 1.97265,-0.0977 4.47265,-0.42969 -0.27344,-1.40625 -0.83984,-2.67578 l 1.75781,-0.48828 q 1.05469,2.42187 1.67969,6.28906 z m 13.84765,-0.11719 -1.79687,0.54688 q -0.0977,-0.64454 -0.44922,-1.875 -3.24219,0.37109 -7.1875,0.95703 l -0.52734,-1.71875 q 2.51953,-2.98828 4.12109,-5.3125 -1.66016,0.19531 -4.04297,0.625 l -0.60547,-1.71875 q 2.48047,-3.984379 4.00391,-7.832035 l 1.79687,0.800781 q -1.66015,3.476563 -3.47656,6.562504 1.21094,-0.15625 3.8086,-0.60547 0.74218,-1.09375 1.75781,-2.832034 l 1.71875,0.878907 q -2.14844,3.652347 -6.28906,8.945317 l 4.375,-0.50782 q -0.33204,-1.36718 -0.72266,-2.16797 l 1.75781,-0.54687 q 1.05469,2.61719 1.75781,5.80078 z"
         id="path15243" />
      <path
         d="m 298.13672,115.5844 q -1.44531,-0.76172 -1.44531,-1.9336 0,-0.5664 0.48828,-1.15234 0.48828,-0.60547 1.38672,-0.60547 1.875,0 1.875,2.46094 0,2.01172 -2.36329,3.88672 l -0.83984,-0.64453 q 0.89844,-1.19141 0.89844,-2.01172 z"
         id="path15245" />
      <path
         d="m 356.28125,121.18987 q -0.50781,2.48046 -1.52344,5.03906 -0.99609,2.53906 -1.83594,2.98828 -0.82031,0.44922 -1.69921,0.44922 -1.54297,0 -3.41797,-2.32422 -1.875,-2.34375 -3.125,-5.48828 -3.32032,2.79297 -8.39844,4.96094 l -1.44531,-1.75782 q 5.78125,-2.26562 9.08203,-5.27343 -1.44531,-5.9961 -1.67969,-12.44141 h -9.51172 v 7.03125 q 2.91016,-0.37109 7.63672,-1.875 v 2.20703 q -3.82812,1.07422 -7.63672,1.83594 v 10.23437 q 0,1.03516 -0.76172,1.77735 -0.76172,0.76172 -2.20703,0.78125 h -5.27344 l -0.60546,-2.14844 q 2.5,0.11719 5.68359,0.11719 1.07422,0 1.07422,-0.9961 v -9.27734 q -5.15625,0.99609 -8.67188,1.46484 l -0.52734,-2.10937 q 2.83203,-0.19531 9.19922,-1.44531 v -7.59766 h -9.4336 v -2.07031 h 9.4336 v -6.250004 q -6.25,0.996094 -7.94922,1.113284 l -0.76172,-1.99219 q 10.48828,-1.035156 17.28516,-3.398437 l 0.625,1.875 q -3.22266,1.074218 -7.10938,1.914062 v 6.738285 h 9.4336 q -0.0391,-1.73828 -0.0391,-3.88672 0,-3.925784 0.11719,-7.089846 h 2.08984 q -0.15625,2.792969 -0.15625,6.503906 0,2.40234 0.0781,4.47266 h 11.91406 v 2.07031 h -11.79687 q 0.11718,5.42969 1.26953,10.56641 2.77344,-2.83204 5.48828,-8.32032 l 1.79687,1.11328 q -3.4375,6.34766 -6.5625,9.57032 0.95704,2.91015 2.57813,5.11718 1.64062,2.1875 2.38281,2.1875 0.42969,0 0.74219,-0.48828 0.3125,-0.48828 1.11328,-2.61718 0.82031,-2.14844 1.23047,-4.45313 z m -2.07031,-18.84766 -1.71875,1.23047 q -2.08985,-3.593752 -5.17578,-6.425784 l 1.60156,-1.289062 q 3.22265,2.988281 5.29297,6.484376 z"
         id="path15247" />
      <path
         d="m 370.32422,94.627365 q -0.39063,1.894531 -1.38672,4.785156 l -1.01563,2.851559 v 27.03125 h -2.10937 v -22.03125 q -1.77734,3.47657 -3.57422,5.9961 l -1.19141,-2.07031 q 4.6875,-6.77735 7.32422,-16.972661 z m 24.6875,31.875005 q 0,3.04687 -3.94531,3.04687 -1.44532,0 -3.75,-0.0391 l -0.83985,-2.16797 q 2.71485,0.15625 5.13672,0.15625 0.54688,0 0.91797,-0.37109 0.39062,-0.39063 0.39062,-0.9375 v -14.33594 h -8.125 V 95.389084 h 10.21485 z m -2.08985,-24.04297 v -5.039066 h -5.99609 v 5.039066 z m 0,7.40234 v -5.39062 h -5.99609 v 5.39062 z m -10.68359,1.99219 h -7.83203 v 17.51953 h -2.12891 V 95.389084 h 9.96094 z m -2.10937,-9.39453 v -5.039066 h -5.72266 v 5.039066 z m 0,7.32422 v -5.3125 h -5.72266 v 5.3125 z"
         id="path15249" />
      <path
         d="m 436.16406,100.85783 h -23.84765 v -2.031246 h 10.64453 q -0.82032,-2.1875 -1.83594,-4.003906 l 2.03125,-0.644532 q 1.36719,2.539063 2.01172,4.648438 h 10.99609 z m -26.40625,-0.42968 -1.46484,1.42578 q -2.71485,-3.55469 -5.72266,-5.917971 l 1.42578,-1.425781 q 3.57422,2.890625 5.76172,5.917972 z m 26.89453,26.1914 -0.68359,2.05078 h -14.16016 q -5.68359,0 -8.94531,-1.1914 -3.24219,-1.17188 -5.48828,-3.53516 -2.34375,3.22266 -4.6875,5.52735 l -1.67969,-1.25 q 6.32813,-5.78125 7.94922,-12.91016 h -6.75781 v -2.05078 q 3.90625,-4.57031 6.60156,-8.16406 h -7.40234 v -1.95313 h 9.96093 v 1.91406 q -3.53515,4.64844 -6.46484,8.20313 h 6.19141 v 1.95312 q -0.70313,3.47657 -2.71485,7.01172 1.60157,1.81641 4.39453,3.10547 2.79297,1.28906 9.4336,1.28906 z m -2.73437,-20.80078 h -19.4336 v -1.95312 h 19.4336 z m -0.0391,5.03906 h -19.39454 v -1.91406 h 19.39454 z m -0.50782,12.32422 h -18.28125 v -9.12109 h 18.28125 z m -2.05078,-1.99218 v -5.13672 h -14.12109 v 5.13672 z"
         id="path15251" />
      <path
         d="m 476.16406,100.35002 h -29.08203 v 9.39453 q 0,12.16797 -4.23828,19.76563 l -1.71875,-1.44531 q 3.96484,-6.875 3.96484,-18.47657 V 98.416428 h 14.96094 q -0.56641,-1.484375 -1.83594,-3.476563 l 2.07032,-0.878906 q 1.30859,2.363281 2.03125,4.355469 h 13.84765 z m 0,26.11328 v 1.91407 h -29.39453 v -1.91407 h 13.96484 v -5.8789 h -12.20703 v -1.95313 h 12.20703 v -16.64062 l 1.99219,0.0391 v 16.60156 h 12.07031 v 1.95313 h -12.07031 v 5.8789 z m -16.40625,-11.71875 -1.46484,1.44532 q -1.85547,-3.1836 -4.45313,-5.60547 -2.1875,3.98437 -3.90625,5.76172 l -1.64062,-1.40625 q 4.35547,-4.60938 6.11328,-11.83594 l 2.07031,0.5664 q -0.625,2.10938 -1.71875,4.86329 3.61328,3.75 5,6.21093 z m 16.01563,-0.15625 -1.44532,1.5625 q -2.5,-3.59375 -5.23437,-5.60547 -1.60156,3.45704 -3.84766,5.91797 l -1.44531,-1.52343 q 4.23828,-4.86329 5.44922,-11.71875 l 1.95312,0.60546 q -0.42968,2.46094 -1.30859,4.70704 3.96484,3.3789 5.87891,6.05468 z"
         id="path15253" />
      <path
         d="m 516.28125,109.37346 -1.71875,1.32812 q -1.34766,-1.95312 -3.35938,-4.04296 -12.36328,2.55859 -28.88671,3.16406 l -0.58594,-1.91406 q 8.88672,-6.91407 12.40234,-13.652349 l 2.14844,0.722657 Q 493,100.8969 485.48047,107.53752 498.625,107.0883 509.44531,104.78362 507.02344,102.10783 503,98.748459 l 1.83594,-1.367188 q 6.77734,5.937499 11.44531,11.992189 z m -3.82813,20.09766 h -2.20703 v -2.48047 h -23.08593 v 2.42187 h -2.1875 v -15.66406 h 27.48046 z m -2.20703,-4.60938 v -8.96484 h -23.08593 v 8.96484 z"
         id="path15255" />
      <path
         d="m 546.47656,98.631271 h -8.82812 v -1.679687 h 3.75 q -0.19532,-0.917969 -0.95703,-2.207031 l 1.64062,-0.683594 q 0.64453,1.171875 1.28906,2.890625 h 3.10547 z m -8.90625,8.261719 -1.52344,0.56641 q -0.0977,-0.46875 -0.37109,-0.91797 -3.20312,0.72265 -6.50391,1.11328 l -0.64453,-1.26953 q 3.10547,-3.08594 4.47266,-4.80469 -2.57813,0.27344 -3.4375,0.3125 l -0.56641,-1.42578 q 2.94922,-3.281251 4.49219,-6.406251 l 1.64063,0.839844 q -1.17188,2.1875 -3.59375,5.156247 1.69921,-0.136716 2.91015,-0.390622 0.39063,-0.566407 1.15235,-1.835938 l 1.60156,0.839844 q -1.83594,3.164066 -5.50781,6.914066 1.58203,-0.19532 3.35937,-0.60547 -0.0977,-0.54688 -0.48828,-1.15235 l 1.52344,-0.60546 q 0.68359,1.13281 1.48437,3.67187 z m 18.24219,0.37109 -1.64063,0.56641 q -0.13671,-0.60547 -0.41015,-1.21094 -3.98438,0.72266 -6.71875,1.03516 l -0.50781,-1.34766 q 2.08984,-1.79687 4.51171,-4.57031 l -3.92578,0.25391 -0.42968,-1.25 q 3.6914,-4.179691 4.88281,-6.523441 l 1.75781,0.722656 q -1.44531,2.460938 -3.96484,5.234375 1.99218,-0.13672 3.24218,-0.429687 0.9375,-1.386719 1.26954,-2.011719 l 1.64062,0.976562 q -1.60156,2.675784 -5.68359,6.875004 1.15234,-0.0391 3.20312,-0.52735 -0.17578,-0.54687 -0.54687,-1.11328 l 1.64062,-0.60547 q 0.9961,2.01172 1.67969,3.92578 z m -27.01172,-8.046871 -1.34766,1.523441 q -2.07031,-2.324222 -5.41015,-4.804691 l 1.32812,-1.523438 q 2.53907,1.757813 5.42969,4.804688 z m 16.5625,2.675781 h -6.79687 v -1.62109 h 6.79687 z m 0,3.32031 h -6.79687 v -1.64062 h 6.79687 z m -17.44141,3.65235 -1.23046,1.5625 q -1.875,-2.16797 -5.3711,-4.76563 l 1.32813,-1.60156 q 3.32031,2.59766 5.27343,4.80469 z m 17.51954,3.92578 h -6.875 v -5.97656 h 6.875 z m -1.64063,-1.67969 v -2.61719 h -3.47656 v 2.61719 z m -6.67969,1.07422 -1.5625,0.42969 q -0.29297,-1.9336 -0.91797,-3.86719 l 1.52344,-0.48828 q 0.64453,1.75781 0.95703,3.92578 z m -6.1914,-3.20313 q -0.56641,2.34375 -1.36719,4.31641 l -1.64063,-0.56641 q 0.95704,-2.1289 1.40625,-4.23828 z m 17.91015,0 q -0.0976,1.91407 -0.8789,4.58985 l -1.64063,-0.39063 q 0.625,-1.85547 0.95703,-4.51172 z m 7.16797,3.8086 -1.5625,0.42969 Q 553.50781,110.29143 553,109.13908 l 1.52344,-0.42968 q 0.91797,1.67968 1.48437,4.08203 z m -3.59375,0.23437 -1.73828,0.3125 q 0.11719,-1.99218 -0.50781,-4.27734 l 1.5625,-0.27344 q 0.5664,2.12891 0.68359,4.23828 z m -18.53515,0 -1.50391,0.23438 q -0.21484,-2.5586 -0.64453,-4.19922 l 1.60156,-0.23438 q 0.54688,3.14454 0.54688,4.19922 z m 20.52734,9.88282 -0.52734,3.71093 q -0.15625,1.13282 -1.01563,1.95313 -0.83984,0.83984 -2.26562,0.83984 h -8.94532 l -0.76172,-1.875 h 9.66797 q 1.11328,0 1.32813,-1.23047 l 0.27344,-1.67968 h -22.63672 l 2.1289,-5.83985 h 19.31641 v -2.32422 h -21.36719 v -1.67968 H 553 v 5.72265 h -19.74609 l -0.87891,2.40235 z m -26.19141,-6.32813 q -2.26562,6.91406 -5.37109,12.75391 l -1.60156,-1.19141 q 2.94922,-5.58594 5.33203,-12.71484 z"
         id="path15257" />
      <path
         d="m 596.20312,127.86955 -1.44531,1.875 q -9.47265,-3.04687 -15.99609,-8.76953 -6.50391,5.625 -16.03516,8.65235 l -1.52344,-1.75782 q 10.07813,-2.94922 16.03516,-8.39843 -5.66406,-5.89844 -8.82812,-14.25782 l 1.91406,-0.8789 q 3.00781,8.24218 8.47656,13.84765 5.76172,-6.5039 8.16406,-15.39062 h -25.60547 v -2.08985 h 16.71875 q -1.54296,-3.124996 -3.51562,-5.761715 l 2.08984,-0.800781 q 2.42188,3.574219 3.67188,6.562496 h 15.8789 v 2.08985 h -7.10937 q -2.65625,10.11719 -8.69141,16.75781 5.95703,5.35156 15.80078,8.32031 z"
         id="path15259" />
      <path
         d="m 612.88281,94.86174 q -0.78125,2.167969 -2.36328,5.64453 l -1.60156,3.39844 v 25.56641 h -2.14844 v -21.81641 q -1.73828,2.79297 -4.12109,5.56641 l -1.44532,-1.67969 q 5.33204,-6.09375 9.57032,-17.285159 z m 23.39844,25.23438 q 0,3.02734 -0.60547,5.60546 -0.58594,2.57813 -2.32422,2.94922 -1.73828,0.3711 -9.51172,0.3711 -1.85547,0 -3.20312,-0.0391 -1.34766,-0.0391 -2.10938,-0.85937 -0.76172,-0.82031 -0.76172,-2.22656 V 94.295334 h 2.20704 v 13.574216 h 15.54687 v 2.10938 h -15.54687 v 15.83984 q 0,0.39063 0.27343,0.74219 0.27344,0.33203 0.64453,0.35156 0.3711,0 2.65625,0 8.06641,0 9.25782,-0.3125 1.1914,-0.3125 1.36718,-7.34375 z"
         id="path15261" />
      <path
         d="m 655.16797,128.57268 h -2.01172 v -3.4375 h -8.63281 v 4.23828 h -2.03125 v -28.35938 h 3.71093 q 1.50391,-2.675777 2.85157,-6.874996 l 1.99218,0.410156 q -0.70312,2.109375 -2.71484,6.46484 h 6.83594 z m -2.01172,-16.95313 v -8.59375 h -8.63281 v 8.59375 z m 0,11.48438 v -9.47266 h -8.63281 v 9.47266 z m 22.05078,-22.05078 q -0.23437,8.98437 -0.87891,16.69922 -0.625,7.71484 -1.26953,9.08203 -0.64453,1.36718 -1.66015,1.93359 -0.9961,0.58594 -3.8086,0.58594 -1.23047,0 -3.22265,-0.0586 l -0.64453,-2.03125 q 1.64062,0.0586 3.53515,0.0586 1.77735,0 2.26563,-0.0391 0.50781,-0.0391 1.05468,-0.48829 0.54688,-0.46875 0.78125,-1.07421 0.23438,-0.625 0.625,-4.60938 0.39063,-3.98437 0.64454,-8.76953 0.2539,-4.80469 0.37109,-9.31641 h -10.42969 q -2.08984,4.16016 -4.84375,7.91016 l -1.64062,-1.15234 q 5.2539,-6.89454 7.4414,-15.371099 l 2.03125,0.527344 q -0.97656,3.203125 -2.1875,6.113285 z m -7.36328,17.92968 -1.67969,1.19141 q -1.93359,-4.45312 -5.80078,-9.31641 l 1.71875,-1.11328 q 3.59375,4.33594 5.76172,9.23828 z"
         id="path15263" />
      <path
         d="m 685.26562,97.088303 -0.64453,9.433597 h -2.30468 l -0.625,-9.433597 z m 6.89454,0 -0.625,9.433597 H 689.25 l -0.64453,-9.433597 z"
         id="path15265" />
      <path
         d="M 709.01562,100.66252 H 698 v -1.953124 h 5.03906 q -0.5664,-1.660156 -1.75781,-3.730468 l 1.97266,-0.761719 q 1.21093,2.265625 2.03125,4.492187 h 3.73046 z m 23.67188,-1.874999 h -6.25 v 1.796879 h -1.91406 v -6.074222 h 1.91406 v 2.304687 h 6.25 z m -13.63281,1.796879 h -1.9336 v -1.796879 h -6.5625 v -1.972656 h 6.5625 v -2.304687 h 1.9336 z m 13.71093,16.48437 h -20.68359 v -9.23828 q -0.95703,1.19141 -1.67969,1.91406 l -1.44531,-1.52343 q 3.26172,-3.30079 5.09766,-8.20313 l 1.875,0.60547 q -0.33203,1.07422 -1.07422,2.51953 h 7.14844 q -0.50782,-1.05469 -1.23047,-2.20703 l 1.75781,-0.83984 q 1.03516,1.64062 1.64062,3.04687 h 7.67579 v 1.875 h -8.59375 v 2.08984 h 7.79296 v 1.875 h -7.79296 v 2.12891 h 7.79296 v 1.91406 h -7.79296 v 2.1875 h 9.51171 z m -11.48437,-9.96094 v -2.08984 h -7.1875 v 2.08984 z m 0,4.00391 v -2.12891 h -7.1875 v 2.12891 z m 0,4.10156 v -2.1875 h -7.1875 v 2.1875 z m -12.91016,-9.0625 h -9.45312 v -1.97265 h 9.45312 z m 0,6.19141 h -9.45312 v -1.95313 h 9.45312 z m -0.33203,16.11328 h -1.99219 v -1.38672 h -4.51171 v 2.34375 h -2.01172 v -13.14453 h 8.51562 z m -1.99219,-3.39844 v -6.83593 h -4.51171 v 6.83593 z M 733,127.83049 l -0.99609,1.875 q -5.60547,-1.15234 -10.11719,-3.00781 -4.86328,1.97265 -11.19141,2.89062 l -1.21094,-1.89453 q 6.07422,-0.76172 10,-2.10937 -3.67187,-2.08985 -6.30859,-4.64844 h -1.97266 v -1.91406 h 20 v 1.91406 q -3.3789,2.83203 -6.67968,4.64844 3.94531,1.38672 8.47656,2.24609 z m -5,-6.89453 h -11.875 q 3.16406,2.51953 6.03516,3.69141 Q 724.875,123.3383 728,120.93596 Z"
         id="path15267" />
      <path
         d="m 771.00781,129.41252 h -1.99219 v -2.79297 h -27.1289 v 2.71485 h -2.08985 V 95.213303 h 31.21094 z m -1.99219,-4.78515 V 97.185959 h -27.1289 v 27.441411 z m -3.96484,-23.47657 -1.75781,0.83985 q -0.82031,-1.42578 -2.05078,-2.734379 l 1.71875,-0.957031 q 1.30859,1.328125 2.08984,2.85156 z m 2.63672,16.26953 q -0.50781,2.10938 -1.32813,3.67188 -0.82031,1.54297 -1.34765,1.91406 -0.50781,0.35156 -1.40625,0.35156 -1.83594,0 -3.71094,-4.14062 -2.01172,2.38281 -4.375,4.19922 l -1.60156,-1.42578 q 2.51953,-1.66016 5,-4.92188 -1.95313,-5.64453 -2.38281,-12.55859 h -13.00782 v -1.89453 h 12.83203 q -0.0977,-1.875 -0.0391,-4.199222 h 2.01172 q -0.0586,1.718752 0.0781,4.199222 h 8.82812 v 1.89453 h -8.75 q 0.48828,6.46484 1.79688,10.50781 2.1875,-3.47656 3.96484,-8.125 l 1.83594,0.80078 q -2.01172,5.15625 -4.92188,9.60938 0.66406,1.69922 1.38672,2.77343 0.72266,1.07422 1.01563,1.07422 0.9375,0 2.32421,-4.76562 z m -13.63281,-2.03125 h -8.69141 v -7.73437 h 8.69141 z m -2.01172,-2.01171 V 109.5883 H 747.375 v 3.78907 z m 3.76953,5.11718 q -7.55859,2.16797 -12.05078,2.77344 l -0.27344,-1.97266 q 4.80469,-0.5664 12.14844,-2.67578 z"
         id="path15269" />
      <path
         d="m 787.16016,99.822678 -1.83594,0.917972 q -1.42578,-2.812504 -3.51563,-5.72266 l 1.83594,-0.878906 q 2.53906,3.496094 3.51563,5.683594 z m 24.375,20.761722 h -8.28125 v 8.88672 H 801.125 v -8.88672 h -8.16406 v -20.03907 h 8.16406 v -6.035152 h 2.12891 v 6.035152 h 8.28125 z m -2.08985,-10.9961 v -7.01172 h -6.1914 v 7.01172 z m -8.32031,0 v -7.01172 h -6.03516 v 7.01172 z m 8.32031,8.90625 v -6.95312 h -6.1914 v 6.95312 z m -8.32031,0 v -6.95312 h -6.03516 v 6.95312 z m -9.43359,-2.34375 -1.52344,1.34766 q -1.95313,-3.28125 -4.16016,-5.72266 v 17.59766 h -2.05078 v -15.54688 q -2.53906,2.8125 -4.78516,4.66797 l -1.40625,-1.46484 q 6.9336,-5.80078 10.3125,-13.24219 h -9.55078 v -2.05078 h 11.83594 v 2.05078 q -1.42578,3.28125 -3.4375,6.15235 2.59766,2.77343 4.76563,6.21093 z"
         id="path15271" />
      <path
         d="m 33.683594,183.62299 h -2.207032 v -1.95313 H 3.8398438 V 155.02924 H 6.046875 v 24.49218 h 11.601562 v -30.83984 h 2.148438 v 30.83984 h 11.679687 v -24.49218 h 2.207032 z"
         id="path15273" />
      <path
         d="m 45.265625,151.29877 -0.644531,9.43359 h -2.304688 l -0.625,-9.43359 z m 6.894531,0 -0.625,9.43359 H 49.25 l -0.644531,-9.43359 z"
         id="path15275" />
      <path
         d="m 74.777344,169.79486 q -1.445313,-0.76172 -1.445313,-1.93359 0,-0.56641 0.488281,-1.15235 0.488282,-0.60547 1.386719,-0.60547 1.875,0 1.875,2.46094 0,2.01172 -2.363281,3.88672 l -0.839844,-0.64453 q 0.898438,-1.19141 0.898438,-2.01172 z"
         id="path15277" />
      <path
         d="m 106.24219,154.67767 -1.5625,1.38672 q -2.12891,-2.89062 -5.664065,-5.54687 l 1.503905,-1.48438 q 3.35938,2.57813 5.72266,5.64453 z m 23.80859,1.99219 h -20.07812 v -7.07031 h 20.07812 z m -2.01172,-1.91406 v -3.28125 h -3.82812 v 3.28125 z m -5.91797,0 v -3.28125 H 118 v 3.28125 z m -6.11328,0 v -3.28125 h -4.0039 v 3.28125 z m 17.03125,26.30859 -0.625,1.97266 h -15.29297 q -9.19921,0 -13.24218,-4.72656 -2.03125,3.20312 -4.355473,5.48828 L 98,182.39252 q 5.46875,-5.39063 7.24609,-12.79297 h -6.230465 v -1.81641 Q 101.75,164.1308 104.48438,159.56049 H 98 v -2.01172 h 8.92578 v 2.01172 q -2.34375,3.88671 -5.15625,8.0664 h 5.54688 v 1.97266 q -0.82032,3.41797 -2.46094,6.99219 3.55469,4.47265 12.91016,4.47265 z m -0.99609,-20.23437 h -23.78906 v -1.875 h 23.78906 z m -2.40235,9.04297 h -11.11328 q -0.99609,1.42578 -2.7539,2.91015 v 4.375 q 2.28515,-0.46875 5.03906,-1.40625 l 0.0781,1.95313 q -4.31641,1.34765 -7.08985,1.93359 L 113,177.99799 q 0.64453,-0.33204 0.64453,-1.13282 v -2.55859 q -2.20703,1.50391 -4.84375,2.51953 l -0.99609,-1.79687 q 5.01953,-1.89454 8.125,-5.15625 h -5.44922 v -6.67969 h 19.16015 z m -2.10937,-1.875 v -2.92969 h -14.96094 v 2.92969 z m 4.43359,9.84375 -1.1914,1.54296 q -4.04297,-2.91015 -11.17188,-5.99609 l 1.17188,-1.67969 q 2.01172,0.78125 4.19922,1.97266 1.93359,-0.83984 4.16015,-2.61719 l 1.50391,1.25 q -1.52344,1.34766 -3.55469,2.44141 2.22656,1.1914 4.88281,3.08594 z"
         id="path15279" />
      <path
         d="M 172.80469,155.26361 H 153 q -1.46484,2.5 -2.94922,4.49219 h 19.66797 v 20.83984 q 0,1.75781 -1.11328,2.40235 -1.11328,0.66406 -5.25391,0.66406 -1.58203,0 -3.10547,-0.11719 L 159.25,181.47455 q 1.81641,0.15625 3.88672,0.15625 3.28125,0 3.88672,-0.27344 0.625,-0.29297 0.625,-1.03516 v -5.21484 h -19.6875 q -1.05469,5.29297 -4.4336,8.73047 l -1.99218,-1.17188 q 4.96093,-4.41406 4.96093,-15.50781 0,-1.17187 -0.0586,-2.96875 -3.88672,3.84766 -7.22656,6.07422 l -1.60157,-1.58203 q 8.35938,-5.60547 12.91016,-13.41797 H 138 v -2.07031 h 13.73047 q 1.15234,-2.07031 2.32422,-4.72656 l 2.14843,0.60546 q -1.15234,2.5586 -2.03125,4.1211 h 18.63282 z m -5.15625,11.01563 v -4.57032 h -19.04297 v 4.57032 z m 0,6.875 v -4.80469 h -19.16016 q 0,3.08594 -0.19531,4.80469 z"
         id="path15281" />
      <path
         d="m 207.92187,153.62299 q -9.29687,10.91796 -29.16015,14.12109 l -0.95703,-2.10938 q 9.10156,-1.21093 15.3125,-3.92578 -2.42188,-2.53906 -6.875,-5.76172 -3.06641,1.71875 -6.44532,3.00782 l -1.26953,-1.83594 q 9.70703,-3.63281 14.19922,-8.73047 l 2.12891,0.80078 q -1.13281,1.58203 -2.57813,2.71485 h 15.64453 z m -3.125,0.33203 h -15.19531 q -0.42969,0.37109 -1.38672,0.91797 3.65235,2.63671 6.91407,5.8789 5.42968,-2.57812 9.66796,-6.79687 z m 7.61719,14.04297 q 0,0.60546 -2.20703,3.55468 -1.21094,1.60157 -2.65625,2.98828 -1.42578,1.36719 -3.125,2.5586 -1.67969,1.1914 -3.98437,2.36328 -2.30469,1.17187 -5.6836,2.16797 -3.3789,0.99609 -6.89453,1.48437 -3.51562,0.50782 -6.69922,0.50782 l -0.99609,-2.14844 q 10.74219,0 18.32031,-3.28125 -2.51953,-3.02735 -7.01172,-6.40625 -3.75,1.97265 -9.02344,3.16406 l -1.17187,-1.99219 q 12.69531,-2.34375 19.6875,-10.8789 l 1.99219,0.83984 q -1.36719,1.66016 -2.94922,3.18359 h 12.40234 z m -2.48047,0.15625 h -12.32422 q -1.77734,1.36718 -4.04296,2.63671 3.61328,2.79297 6.95312,6.32813 6.42578,-3.49609 9.41406,-8.96484 z"
         id="path15283" />
      <path
         d="m 236.73047,171.47455 h -2.16797 v -23.00781 h 2.16797 z m 16.1914,-6.03516 -1.67968,1.34766 q -3.08594,-6.03516 -9.47266,-13.32031 l 1.67969,-1.26954 q 6.34765,7.30469 9.47265,13.24219 z m -23.51562,-12.40234 q -3.69141,9.98047 -9.60938,15.72265 l -1.58203,-1.25 q 5.76172,-5.9375 9.10157,-15.27343 z m 17.91016,12.91015 q -2.42188,4.375 -5.95704,8.24219 -3.53515,3.86719 -7.87109,5.87891 -4.33594,1.99219 -10.83984,3.76953 l -1.32813,-2.05078 q 10.56641,-2.32422 15.39063,-6.15235 4.82422,-3.82812 8.65234,-10.68359 z"
         id="path15285" />
      <path
         d="m 271.80859,182.78314 h -2.01172 v -3.4375 h -8.63281 v 4.23828 h -2.03125 v -28.35937 h 3.71094 q 1.50391,-2.67578 2.85156,-6.875 l 1.99219,0.41015 q -0.70313,2.10938 -2.71484,6.46485 h 6.83593 z m -2.01172,-16.95312 v -8.59375 h -8.63281 v 8.59375 z m 0,11.48437 v -9.47265 h -8.63281 v 9.47265 z m 22.05079,-22.05078 q -0.23438,8.98438 -0.87891,16.69922 -0.625,7.71484 -1.26953,9.08203 -0.64453,1.36719 -1.66016,1.93359 -0.99609,0.58594 -3.80859,0.58594 -1.23047,0 -3.22266,-0.0586 l -0.64453,-2.03125 q 1.64063,0.0586 3.53516,0.0586 1.77734,0 2.26562,-0.0391 0.50781,-0.0391 1.05469,-0.48828 0.54687,-0.46875 0.78125,-1.07422 0.23437,-0.625 0.625,-4.60938 0.39062,-3.98437 0.64453,-8.76953 0.25391,-4.80468 0.37109,-9.3164 h -10.42968 q -2.08985,4.16015 -4.84375,7.91015 l -1.64063,-1.15234 q 5.25391,-6.89453 7.44141,-15.37109 l 2.03125,0.52734 q -0.97656,3.20312 -2.1875,6.11328 z m -7.36329,17.92969 -1.67968,1.1914 q -1.9336,-4.45312 -5.80078,-9.3164 l 1.71875,-1.11328 q 3.59375,4.33593 5.76171,9.23828 z"
         id="path15287" />
      <path
         d="m 331.96484,155.02924 h -9.3164 v 5.80078 h 8.24218 v 2.01172 h -18.73046 v -2.01172 h 8.39843 v -5.80078 h -9.78515 v -2.10938 h 9.78515 v -4.375 h 2.08985 v 4.375 h 9.3164 z m -22.94922,26.60156 h -2.08984 v -3.16406 h -5.56641 v 4.04296 h -2.07031 v -31.48437 h 9.72656 z m -2.08984,-18.00781 v -10.50782 h -5.56641 v 10.50782 z m 0,12.77343 V 165.6347 h -5.56641 v 10.76172 z m 25.95703,-6.60156 h -4.43359 v 10.35156 q 0,2.01172 -1.09375,2.65625 -1.09375,0.66407 -4.23828,0.66407 -0.9375,0 -2.30469,-0.0391 l -0.83984,-2.14843 q 1.93359,0.13671 3.39843,0.13671 1.97266,0 2.5,-0.29296 0.52735,-0.3125 0.52735,-1.05469 v -10.27344 h -15.625 v -2.05078 h 15.625 v -3.71094 h 2.05078 v 3.71094 h 4.43359 z m -12.03125,8.08594 -1.79687,1.07422 q -2.10938,-3.24219 -5.17578,-6.11328 l 1.75781,-1.21094 q 2.55859,2.4414 5.21484,6.25 z"
         id="path15289" />
      <path
         d="m 371.16406,180.3222 q 0,1.50391 -0.8789,2.36329 -0.87891,0.85937 -3.22266,0.85937 h -2.12891 l -0.76172,-2.07031 q 0.9375,0.0781 3.59375,0.0781 0.56641,0 0.9375,-0.41015 0.39063,-0.41016 0.39063,-0.95703 v -17.75391 h -11.77734 v -12.94922 h 13.84765 z m -2.07031,-25.48828 v -3.35937 h -9.72656 v 3.35937 z m 0,5.64453 v -3.65234 h -9.72656 v 3.65234 z m -15.41016,1.95313 h -11.91406 v 21.07422 h -2.12891 v -34.02344 h 14.04297 z m -2.07031,-7.59766 v -3.35937 h -9.84375 v 3.35937 z m 0,5.64453 v -3.65234 h -9.84375 v 3.65234 z m 11.5625,19.39454 h -15.64453 v -14.19922 h 15.64453 z M 361.125,171.6308 v -4.00391 h -11.5625 v 4.00391 z m 0,6.28906 v -4.29687 h -11.5625 v 4.29687 z"
         id="path15291" />
      <path
         d="m 410.96875,160.86908 h -16.07422 q -0.0781,14.00391 -4.92187,22.8125 l -1.71875,-1.28906 q 4.55078,-7.98828 4.55078,-21.40625 v -11.46485 h 18.16406 z m -2.05078,-1.95313 v -7.40234 h -14.02344 v 7.40234 z m -20.15625,19.00391 h -2.07031 v -2.59766 h -5.29297 v 3.47657 h -2.03125 v -27.44141 h 9.39453 z m -2.07031,-4.6875 v -19.76562 h -5.25391 v 19.76562 z m 26.23046,2.87109 q 0,1.25 -0.27343,3.08594 -0.27344,1.81641 -0.95703,2.65625 -0.6836,0.83985 -1.54297,1.07422 -0.83985,0.25391 -4.82422,0.25391 -2.8711,0 -4.31641,-0.0977 -1.42578,-0.0781 -2.10937,-0.91797 -0.6836,-0.83984 -0.6836,-2.4414 v -16.75782 h 1.95313 v 6.23047 h 11.40625 v 1.97266 h -11.40625 v 8.94531 q 0,0.54688 0.54687,0.78125 0.56641,0.23438 5.3125,0.23438 2.71485,0 3.125,-0.15625 0.42969,-0.15625 0.87891,-0.625 0.44922,-0.46875 0.625,-1.97266 0.19531,-1.52344 0.15625,-3.00781 z"
         id="path15293" />
      <path
         d="m 422.41406,173.17377 q -0.48828,-1.46485 -0.48828,-3.20313 0,-1.52344 0.76172,-2.83203 0.76172,-1.32812 2.91016,-3.47656 2.10937,-2.05078 2.87109,-3.28125 0.76172,-1.25 0.76172,-2.59766 0,-1.97265 -1.42578,-3.10547 -1.40625,-1.13281 -3.55469,-1.13281 -3.57422,0 -6.15234,2.8125 v -3.53516 q 3.26171,-2.03125 6.64062,-2.03125 3.41797,0 5.54688,1.77735 2.1289,1.77734 2.1289,4.82422 0,1.85547 -0.85937,3.39843 -0.83985,1.52344 -3.02735,3.65235 -2.16797,2.08984 -2.87109,3.20312 -0.70313,1.11328 -0.70313,2.34375 0,1.44532 0.72266,3.1836 z m -0.42969,6.52343 q 0,-0.89843 0.66407,-1.58203 0.68359,-0.70312 1.58203,-0.70312 0.8789,0 1.5625,0.66406 0.68359,0.66406 0.68359,1.62109 0,0.83985 -0.64453,1.54297 -0.625,0.6836 -1.50391,0.6836 -1.05468,0 -1.69921,-0.6836 -0.64454,-0.68359 -0.64454,-1.54297 z"
         id="path15295" />
    </g>
  </g>
</svg>
