<?xml version="1.0" encoding="UTF-8" standalone="no"?>
<!-- Created with Inkscape (http://www.inkscape.org/) -->

<svg
   width="200mm"
   height="40mm"
   viewBox="0 0 200 40"
   version="1.1"
   id="svg95978"
   inkscape:version="1.2.1 (9c6d41e410, 2022-07-14)"
   sodipodi:docname="Member.1.pic.svg"
   xmlns:inkscape="http://www.inkscape.org/namespaces/inkscape"
   xmlns:sodipodi="http://sodipodi.sourceforge.net/DTD/sodipodi-0.dtd"
   xmlns="http://www.w3.org/2000/svg"
   xmlns:svg="http://www.w3.org/2000/svg">
  <sodipodi:namedview
     id="namedview95980"
     pagecolor="#ffffff"
     bordercolor="#666666"
     borderopacity="1.0"
     inkscape:pageshadow="2"
     inkscape:pageopacity="0.0"
     inkscape:pagecheckerboard="0"
     inkscape:document-units="mm"
     showgrid="false"
     width="275mm"
     inkscape:zoom="0.71713664"
     inkscape:cx="495.72143"
     inkscape:cy="227.29281"
     inkscape:window-width="1920"
     inkscape:window-height="1017"
     inkscape:window-x="-8"
     inkscape:window-y="-8"
     inkscape:window-maximized="1"
     inkscape:current-layer="layer1"
     inkscape:showpageshadow="2"
     inkscape:deskcolor="#d1d1d1" />
  <defs
     id="defs95975">
    <rect
       x="-1.3944345"
       y="0"
       width="769.72772"
       height="167.33204"
       id="rect104247" />
  </defs>
  <g
     inkscape:label="圖層 1"
     inkscape:groupmode="layer"
     id="layer1">
    <g
       aria-label="郭冠吾
3D 建模，程式設計"
       transform="matrix(0.26458333,0,0,0.26458333,0.52916667,0)"
       id="text104245"
       style="font-size:40px;line-height:1.25;white-space:pre;shape-inside:url(#rect104247);display:inline">
      <path
         d="M 29.907533,18.671864 H 2.3294249 V 14.609366 H 14.178376 q -0.807291,-1.770832 -2.031249,-3.671873 l 4.921872,-1.0677072 q 1.223958,1.9270822 2.291666,4.7395802 h 10.546868 z m 14.088534,10.781243 q 4.973955,6.822913 4.973955,13.385409 0,3.880206 -1.666666,5.963538 -1.640624,2.083332 -6.848954,2.083332 -0.755208,0 -1.432291,-0.05208 l -1.223957,-4.73958 q 1.58854,0.182291 3.515623,0.182291 1.822915,0 2.395832,-0.729166 0.572916,-0.729166 0.572916,-2.760415 0,-6.406246 -5.20833,-12.760409 2.552081,-6.848954 4.218747,-13.854159 H 36.574196 V 56.796841 H 32.042949 V 11.640618 h 15.989574 v 4.374997 Q 46.57419,22.031237 43.996067,29.453107 Z M 27.042952,32.369772 H 5.1679648 V 21.223946 H 27.042952 Z M 22.43358,28.489566 V 25.130193 H 9.8033787 v 3.359373 z m 7.473953,18.281239 q -6.015621,0.755208 -11.666659,1.302083 v 3.932289 q 0,2.812499 -1.354166,3.854165 -1.328124,1.067707 -5.494789,1.067707 -1.5624986,0 -3.4114558,-0.182291 L 6.6002557,52.656219 q 3.8020813,0.07813 5.4427053,0 1.666665,-0.104167 1.666665,-1.015625 v -2.99479 q -8.0729114,0.625 -10.8854098,0.755208 L 1.9648417,45.078098 q 5.598955,-0.07813 11.7447843,-0.755208 v -3.098956 q 3.30729,-1.406249 5.416664,-2.708332 H 3.5012992 V 34.661438 H 27.095035 v 3.906247 q -4.479164,2.708332 -8.854161,4.895831 v 0.390625 q 6.197913,-0.677083 11.666659,-1.510416 z"
         style="font-weight:bold;font-size:53.3333px;-inkscape-font-specification:'sans-serif Bold'"
         id="path4027" />
      <path
         d="M 100.89707,22.135403 H 96.157494 V 15.572907 H 61.54814 v 5.885414 h 15.026032 v 4.192705 H 60.324182 V 22.135403 H 56.782517 V 11.302077 h 44.114553 z m 0.65105,7.265621 h -6.953125 v 15.468741 q 0,2.291665 -1.510416,3.541664 -1.484374,1.25 -7.395829,0.989583 l -1.692707,-4.58333 q 1.302082,-0.05208 5.182288,-0.05208 0.234375,0 0.46875,-0.286458 0.260417,-0.3125 0.260417,-0.572916 v -14.5052 H 79.308546 v -4.270831 h 10.598952 v -5.963538 h 4.687497 v 5.963538 h 6.953125 z m 0.67708,16.953115 q -0.28646,5.624997 -1.84896,7.604162 -1.562498,1.953124 -4.427079,2.161457 -2.83854,0.234375 -12.395826,0.234375 -4.166664,0 -7.526037,-0.07813 -3.333332,-0.07813 -4.427081,-1.614582 -1.093749,-1.536458 -1.093749,-4.192706 V 34.895813 h -4.010415 q 0,9.218744 -2.083332,14.114574 -2.05729,4.869789 -6.171871,8.020829 l -3.046873,-3.697914 q 6.848954,-5.130206 6.458329,-18.437489 h -5.442705 v -4.270831 h 22.604153 v 4.270831 h -3.723956 v 15.62499 q 0,0.859375 0.677083,1.119791 0.703125,0.260417 10.937494,0.260417 7.42187,0 8.489578,-0.234375 1.067708,-0.234375 1.588541,-1.067708 0.520833,-0.859374 0.859374,-5.781246 z M 88.83979,39.73956 84.803334,42.187475 q -1.640624,-3.77604 -5.078122,-8.51562 l 3.723956,-2.578124 q 2.968748,3.30729 5.390622,8.645829 z"
         style="font-weight:bold;font-size:53.3333px;-inkscape-font-specification:'sans-serif Bold'"
         id="path4029" />
      <path
         d="m 155.29808,35.156229 h -46.51039 v -4.322914 h 11.84896 l 2.60416,-6.406246 h -10.23437 v -4.322914 h 12.0052 l 1.90104,-4.687498 H 109.28249 V 11.04166 h 45.49476 v 4.374997 h -22.68228 l -1.79687,4.687498 h 17.73436 v 10.72916 h 7.26562 z m -12.10936,-4.322914 v -6.30208 h -14.66145 l -2.55209,6.30208 z m 7.21353,25.963526 h -4.92187 V 54.505176 H 118.6054 v 2.291665 h -4.84375 V 38.880185 h 36.6406 z m -4.92187,-6.718746 V 43.151016 H 118.6054 v 6.927079 z"
         style="font-weight:bold;font-size:53.3333px;-inkscape-font-specification:'sans-serif Bold'"
         id="path4031" />
      <path
         d="m 1.3398437,103.62449 q 3.1054688,2.46094 6.9921876,2.46094 3.1249997,0 5.0781247,-1.58203 1.972657,-1.58204 1.972657,-4.35547 0,-6.054691 -8.5351568,-6.054691 h -2.5 V 91.30027 h 2.3828125 q 7.5781253,0 7.5781253,-5.664062 0,-5.253907 -5.7812502,-5.253907 -3.2031251,0 -6.015625,2.207032 v -3.261719 q 2.8906249,-1.738281 6.8359375,-1.738281 3.5937497,0 5.9374997,1.972656 2.363281,1.972656 2.363281,5.234375 0,5.9375 -6.074218,7.695312 v 0.07813 q 3.222656,0.273438 5.175781,2.265625 1.972656,1.992188 1.972656,4.960938 0,4.140626 -2.988281,6.601566 -2.96875,2.46093 -7.5976562,2.46093 -4.2578125,0 -6.7968751,-1.62109 z"
         id="path4033" />
      <path
         d="m 48.549063,93.791051 q 0,7.239999 -3.96,10.919999 -3.92,3.64 -10.96,3.64 H 25.669062 V 79.791051 h 8.8 q 4.28,0 7.440001,1.6 3.199999,1.6 4.919999,4.72 1.720001,3.12 1.720001,7.68 z m -3.800001,0.12 q 0,-5.72 -2.839999,-8.36 -2.800001,-2.68 -7.960001,-2.68 h -4.68 v 22.399999 h 3.88 q 11.6,0 11.6,-11.359999 z"
         id="path4035" />
      <path
         d="m 98.635147,86.104958 h -2.851562 v 5.683593 h -9.121094 v 3.320313 h 9.921875 v 1.953125 h -9.921875 v 3.281251 h 11.289062 v 1.97266 H 86.662491 v 3.96484 h -1.992188 v -3.96484 h -9.921875 v -1.97266 h 9.921875 v -3.281251 h -8.398437 v -1.953125 h 8.398437 v -3.320313 h -7.636718 v -1.992187 h 7.636718 v -3.691406 h -9.882812 v -2.03125 h 9.882812 v -3.476563 h -7.597656 v -1.972656 h 7.597656 v -2.988281 h 1.992188 v 2.988281 h 9.121094 v 5.449219 h 2.851562 z m -4.882812,-2.03125 V 80.67527 h -7.089844 v 3.398438 z m 0,5.722656 v -3.691406 h -7.089844 v 3.691406 z m 5.195312,17.988286 -0.488281,2.1289 q -3.613281,0.0977 -6.875,0.0977 -7.050781,0 -10.058594,-0.3711 -2.988281,-0.35156 -5.917969,-1.36718 -2.910156,-1.03516 -5.175781,-3.35938 -2.851562,3.59375 -5.410156,5.60547 l -1.425781,-1.64062 q 2.988281,-2.34375 5.3125,-5.52735 -2.226563,-3.00781 -3.75,-7.871092 l 1.875,-0.761719 q 1.132812,4.238281 2.988281,6.679691 2.109375,-4.375004 2.363281,-10.25391 h -7.402344 v -1.875 q 3.710938,-4.667969 7.402344,-10.761719 h -8.203125 v -1.992187 h 10.449219 v 1.992187 q -3.652344,6.152344 -7.011719,10.605469 h 6.933594 q -0.390625,8.828125 -3.085938,14.00391 1.894532,1.93359 4.257813,3.02734 2.382812,1.09375 5.078125,1.44531 2.695312,0.33203 10.625,0.33203 3.945312,0 7.519531,-0.13671 z"
         id="path4037" />
      <path
         d="m 138.75233,80.597145 h -5.72265 v 2.265625 h -1.99219 v -2.265625 h -2.96875 v -1.894531 h 2.96875 v -3.320313 h 1.99219 v 3.320313 h 5.72265 z m -12.20703,0 h -2.63672 v 2.265625 h -2.1289 v -2.265625 h -5.87891 v -1.894531 h 5.87891 v -3.320313 h 2.1289 v 3.320313 h 2.63672 z m -9.96093,12.480469 -1.5625,1.308594 q -1.89454,-3.300782 -2.98829,-4.746094 V 110.47996 H 109.9828 V 90.753395 q -1.99218,4.84375 -4.66797,8.710938 l -1.40625,-1.5625 q 3.63282,-5.15625 6.03516,-12.265625 h -5.42969 v -1.972657 h 5.46875 v -8.28125 h 2.05078 v 8.28125 h 4.00391 v 1.972657 h -4.00391 v 0.878906 q 2.65625,3.28125 4.55079,6.5625 z m 21.97265,9.082036 h -11.48437 q -1.69922,6.34765 -10.87891,8.32031 l -1.17187,-1.85547 q 8.125,-1.46484 9.96093,-6.46484 h -9.55078 v -1.9336 h 10 q 0.39063,-2.167967 0.39063,-3.476561 h -7.26563 V 84.386208 h 17.63672 v 12.363281 h -8.28125 q -0.0586,1.484375 -0.37109,3.476561 h 11.01562 z m -4.33594,-12.656255 v -3.222656 h -13.71093 v 3.222656 z m 0,5.371094 v -3.515625 h -13.71093 v 3.515625 z m 4.84375,13.867191 -1.26953,1.64062 q -3.65234,-2.67578 -9.41406,-5.35156 l 1.32813,-1.60156 q 5.23437,2.42187 9.35546,5.3125 z"
         id="path4039" />
      <path
         d="m 160.9203,96.593239 q -1.44531,-0.761719 -1.44531,-1.933594 0,-0.566406 0.48828,-1.152344 0.48828,-0.605468 1.38672,-0.605468 1.875,0 1.875,2.460937 0,2.011719 -2.36328,3.886719 l -0.83984,-0.644531 q 0.89843,-1.191407 0.89843,-2.011719 z"
         id="path4041" />
      <path
         d="m 197.71718,95.265114 -1.44531,1.601562 q -1.44532,-2.695312 -3.4375,-5 V 110.3823 h -2.08985 V 91.788551 q -2.83203,6.367188 -5.39062,9.882809 l -1.40625,-1.64062 q 3.92578,-5.44922 6.67968,-12.79297 h -6.48437 v -2.011719 h 6.60156 v -5.917968 l -4.88281,0.917968 -1.07422,-1.992187 q 6.99219,-0.820313 11.5625,-2.753906 l 1.23047,1.835937 q -2.92969,0.996094 -4.74609,1.523438 v 6.386718 h 4.74609 v 2.011719 h -4.74609 v 1.640625 q 3.65234,4.0625 4.88281,6.386719 z m 18.63281,-7.753906 H 199.18202 V 76.593239 h 17.16797 z m -2.12891,-2.03125 v -6.894532 h -12.91015 v 6.894532 z m 4.6875,23.945312 h -22.51953 v -1.95312 h 10.27344 v -6.11329 h -8.86719 v -2.011715 h 8.86719 v -5.800781 q -6.40625,0.410156 -7.91016,0.449219 l -0.95703,-2.050782 q 11.03516,-0.195312 19.04297,-2.109375 l 1.34766,1.796875 q -4.02344,0.9375 -9.39453,1.679688 v 6.035156 h 8.59375 v 2.011715 h -8.59375 v 6.11329 h 10.11718 z"
         id="path4043" />
      <path
         d="m 258.90858,101.78855 q -1.77734,9.00391 -5.11718,9.00391 -0.78125,0 -1.5625,-0.50781 -0.76172,-0.48829 -2.12891,-2.44141 -1.36719,-1.95313 -2.46094,-4.82422 -1.09375,-2.89062 -1.64062,-8.164062 -0.52735,-5.292969 -0.76172,-10.507813 h -20.91797 v -2.148437 h 20.74219 q -0.15625,-4.453125 -0.11719,-6.894532 h 2.08984 q 0,4.746094 0.11719,6.894532 h 11.64063 v 2.148437 h -11.5625 q 0.15625,4.160156 0.99609,11.191406 0.83984,7.031249 2.85156,10.078129 2.03125,3.02734 2.73438,3.02734 0.97656,0 1.89453,-2.85156 0.9375,-2.8711 1.17187,-5.11719 z m -1.875,-21.523436 -1.75781,1.210937 q -2.26562,-2.675781 -4.49219,-4.238281 l 1.71875,-1.367187 q 2.01172,1.328125 4.53125,4.394531 z M 244.1039,103.35105 q -9.70703,2.46094 -18.24219,4.00391 l -0.50781,-2.08985 q 3.24218,-0.52734 8.20312,-1.46484 V 92.198708 h -7.08984 v -2.167969 h 16.52344 v 2.167969 h -7.40235 v 11.113282 q 4.6875,-0.99609 8.51563,-2.03125 z"
         id="path4045" />
      <path
         d="M 278.26404,81.515114 H 264.10388 V 79.42527 h 6.25 q -0.52734,-1.738281 -1.60156,-3.515625 l 1.83594,-0.839844 q 1.1914,1.933594 1.95312,4.355469 h 5.72266 z m 20.48828,8.398437 h -3.88672 q -2.87109,0 -2.87109,-2.753906 v -8.613281 h -7.05078 q -0.0977,5.527344 -1.48438,8.222656 -1.36719,2.675781 -3.78906,4.21875 l -1.5625,-1.445312 q 2.38281,-1.503907 3.65234,-4.121094 1.28906,-2.636719 1.19141,-8.867188 h 11.03515 v 10 q 0,1.347657 1.32813,1.347657 h 3.4375 z m -21.5625,-2.597656 h -12.28516 v -2.011719 h 12.28516 z m -0.0391,5.878906 H 264.8656 v -2.011718 h 12.28516 z m 21.75781,15.605469 -1.19141,1.71875 q -6.07422,-2.01172 -9.375,-4.60937 -3.84765,2.73437 -9.58984,4.39453 l -1.25,-1.71875 q 6.03516,-1.77735 9.08203,-4.08203 -4.14062,-3.8086 -6.03516,-10.195317 h -1.36718 v -2.03125 h 16.75781 v 2.03125 q -2.57813,7.011717 -5.99609,10.234377 3.39843,2.4414 8.96484,4.25781 z M 293.67419,94.308083 H 282.6781 q 2.07031,5.898437 5.625,8.886717 3.57422,-3.30078 5.37109,-8.886717 z m -17.08984,15.234377 h -2.07031 v -2.1875 h -7.2461 v 2.94922 h -2.07031 V 96.983864 h 11.38672 z m -2.07031,-4.23828 v -6.19141 h -7.2461 v 6.19141 z"
         id="path4047" />
      <path
         d="m 320.70544,82.276833 h -16.5625 v -2.089844 h 7.5586 q -0.87891,-2.03125 -2.38281,-4.277344 l 1.99218,-0.800781 q 1.32813,1.835937 2.71485,5.078125 h 6.67968 z m 18.32032,6.71875 h -7.98828 v 21.425777 h -2.16797 V 88.995583 h -7.96875 v -2.128907 h 7.96875 V 75.479958 h 2.16797 v 11.386718 h 7.98828 z M 318.67419,87.999489 H 305.99841 V 85.98777 h 12.67578 z m 0,5.625 h -12.67578 v -1.953125 h 12.67578 z m 0,16.406251 h -2.05078 v -1.95313 h -8.55468 v 2.26563 h -2.07032 V 97.472145 h 12.67578 z m -2.05078,-4.08203 v -6.484377 h -8.55468 v 6.484377 z"
         id="path4049" />
    </g>
  </g>
</svg>
