<?xml version="1.0" encoding="UTF-8" standalone="no"?>
<!-- Created with Inkscape (http://www.inkscape.org/) -->

<svg
   width="200mm"
   height="40mm"
   viewBox="0 0 200 40"
   version="1.1"
   id="svg95978"
   inkscape:version="1.1.1 (3bf5ae0d25, 2021-09-20)"
   sodipodi:docname="Member.3.pic.svg"
   xmlns:inkscape="http://www.inkscape.org/namespaces/inkscape"
   xmlns:sodipodi="http://sodipodi.sourceforge.net/DTD/sodipodi-0.dtd"
   xmlns="http://www.w3.org/2000/svg"
   xmlns:svg="http://www.w3.org/2000/svg">
  <sodipodi:namedview
     id="namedview95980"
     pagecolor="#ffffff"
     bordercolor="#666666"
     borderopacity="1.0"
     inkscape:pageshadow="2"
     inkscape:pageopacity="0.0"
     inkscape:pagecheckerboard="0"
     inkscape:document-units="mm"
     showgrid="false"
     width="275mm"
     inkscape:zoom="0.71713664"
     inkscape:cx="496.41865"
     inkscape:cy="227.29281"
     inkscape:window-width="1920"
     inkscape:window-height="991"
     inkscape:window-x="-9"
     inkscape:window-y="-9"
     inkscape:window-maximized="1"
     inkscape:current-layer="layer1"
     inkscape:showpageshadow="2"
     inkscape:deskcolor="#d1d1d1" />
  <defs
     id="defs95975">
    <rect
       x="-1.3944345"
       y="0"
       width="769.72772"
       height="167.33204"
       id="rect104247" />
  </defs>
  <g
     inkscape:label="圖層 1"
     inkscape:groupmode="layer"
     id="layer1">
    <g
       aria-label="許耘馨
資料查找，文案規劃撰寫"
       transform="matrix(0.26458333,0,0,0.26458333,0.52916667,0)"
       id="text104245"
       style="font-size:40px;line-height:1.25;white-space:pre;shape-inside:url(#rect104247);display:inline">
      <path
         d="M 48.735647,37.916644 H 38.136695 v 18.93228 H 33.371073 V 37.916644 H 22.511705 V 33.28123 H 33.371073 V 21.015612 H 29.6992 q -2.395832,5.624997 -5.286455,9.505203 l -3.515623,-3.359373 q 4.453122,-6.197913 7.734371,-17.604156 l 4.479164,1.328124 q -0.703125,2.890623 -1.640625,5.494789 H 47.66794 v 4.635413 H 38.136695 V 33.28123 H 48.735647 Z M 20.792956,19.374988 H 2.2252583 V 15.156241 H 9.2825457 Q 8.5273378,13.229159 7.4075468,11.19791 L 12.095044,9.7656192 q 1.015624,1.8229158 2.395832,5.3906218 h 6.30208 z m -1.276041,7.942704 H 3.5012992 V 22.942695 H 19.516915 Z m 0,7.578121 H 3.5012992 V 30.572898 H 19.516915 Z m 0,20.677071 H 14.829417 V 53.489551 H 8.3710879 v 3.359373 H 3.5012992 V 38.567685 H 19.516915 Z m -4.687498,-6.45833 V 42.890599 H 8.3710879 v 6.223955 z"
         style="font-weight:bold;font-size:53.3333px;-inkscape-font-specification:'sans-serif Bold'"
         id="path12856" />
      <path
         d="m 77.225214,44.713515 -3.255207,3.281248 Q 71.6523,44.583307 68.631469,41.406225 v 15.28645 H 64.100221 V 43.046849 q -3.723956,6.30208 -6.562496,8.854162 l -2.656248,-4.218748 q 4.531247,-4.036456 8.802078,-12.421867 H 55.40231 v -4.166665 h 8.697911 v -3.619789 h -7.526037 v -4.218748 h 7.526037 v -3.255206 q -3.906247,0.390625 -7.031245,0.494791 l -1.614583,-4.166664 q 3.046873,-0.05208 8.645828,-0.598958 v -5.36458 h 4.531248 v 4.739581 q 0.624999,-0.05208 6.510412,-1.223958 l 1.979166,3.776039 q -2.760415,0.755208 -8.489578,1.718749 v 3.880206 h 7.031245 v 4.218748 h -7.031245 v 3.619789 h 7.682287 v 4.166665 h -7.578121 q 4.401039,4.036456 8.489579,9.453119 z M 100.14187,16.979157 H 79.412712 v -4.609373 h 20.729158 z m 1.97916,38.072894 -4.374995,2.031248 q -0.729167,-2.552082 -1.484374,-4.42708 -6.61458,1.640624 -18.932281,3.020831 L 75.662714,51.744761 Q 81.365836,45.963514 84.673126,29.97394 H 77.48563 v -4.58333 h 24.3229 v 4.58333 H 89.751248 q -3.229165,13.463534 -7.473954,20.442697 4.58333,-0.260417 12.213534,-2.135416 -1.927082,-4.479164 -3.671873,-7.526037 l 4.114581,-1.874999 q 4.374998,8.020829 7.187494,16.171866 z"
         style="font-weight:bold;font-size:53.3333px;-inkscape-font-specification:'sans-serif Bold'"
         id="path12858" />
      <path
         d="m 133.4231,15.416657 h -9.42708 v 1.666666 h 8.30729 v 2.812498 h -21.32812 v -2.812498 h 8.59375 v -1.666666 h -10.28645 v -2.916664 h 10.28645 v -2.135416 h 4.42708 v 2.135416 h 9.42708 z m 21.45832,3.098957 h -5.65104 q -3.20312,0 -3.20312,-3.15104 v -0.911458 h -6.25 q -0.75521,4.218748 -4.27083,5.234372 l -2.76042,-2.942706 q 2.91667,-0.833333 2.91667,-3.828123 v -1.927082 h 14.55728 V 14.5052 q 0,0.963541 1.06771,0.963541 h 3.59375 z m 0.52083,11.458326 -1.82292,3.515623 q -5.70312,-1.328124 -10.4427,-4.036456 -5.15624,1.692708 -9.21874,2.031249 l -1.38021,-3.593748 q 4.08854,-0.312499 6.58854,-1.015624 -2.13542,-1.744791 -3.46354,-3.359373 h -2.34375 v -3.515623 h 19.58332 v 3.515623 q -2.26562,2.109374 -5.54687,4.062498 3.56771,1.640624 8.04687,2.395831 z m -8.15104,-6.458329 h -6.51041 q 1.58854,1.380207 2.70833,1.979165 1.11979,-0.364583 3.80208,-1.979165 z m -15.78124,6.406246 h -16.27603 q -1.06771,3.723956 -3.35937,5.651038 l -3.46354,-2.656248 q 2.96875,-2.291665 2.96875,-7.369787 v -4.140623 h 20.13019 z m -4.21874,-2.916665 v -2.734373 h -3.75 v 2.734373 z m -7.73437,-2.734373 h -3.90625 v 2.734373 h 3.90625 z m 36.53643,20.494779 -1.77083,3.567707 q -2.68229,-0.520833 -5.18229,-1.276041 v 9.843744 h -4.63541 v -1.171875 h -24.27082 v 1.171875 h -4.63542 v -9.687494 q -3.28124,0.885416 -4.89583,1.119791 l -2.03125,-3.567707 q 7.76042,-1.093749 14.60937,-4.010414 h -14.1927 v -3.515623 h 20.80728 v -1.614582 q -5.57291,0.15625 -13.17707,0.15625 l -1.27605,-3.359373 q 21.56249,-0.104167 30.07811,-1.119791 l 1.5625,3.359373 q -5.36458,0.442708 -12.39583,0.703124 v 1.874999 h 20.80728 v 3.515623 h -13.74999 q 6.35416,2.734373 14.34895,4.010414 z m -26.1979,-0.859374 v -3.098957 q -2.83854,2.031249 -5.28645,3.098957 z m 10.23437,0 q -2.52604,-0.989583 -5.44271,-2.99479 v 2.99479 z m 4.375,4.73958 v -1.770832 h -24.27082 v 1.770832 z m 0,4.270831 v -1.770832 h -24.27082 v 1.770832 z"
         style="font-weight:bold;font-size:53.3333px;-inkscape-font-specification:'sans-serif Bold'"
         id="path12860" />
      <path
         d="m 35.480469,80.166908 q -2.03125,2.871094 -3.75,4.53125 L 30.207031,83.252846 Q 31.75,81.690346 33.117187,79.854408 H 18.488281 q -1.621094,2.050782 -3.652343,3.59375 L 13.449219,82.06144 q 3.4375,-2.578125 5.800781,-7.050782 l 1.953125,0.683594 -1.269531,2.207031 H 35.480469 Z M 12.453125,79.014565 H 2.375 v -1.914063 h 10.078125 z m 23.867187,8.476562 -0.878906,1.953125 q -7.675781,-1.132812 -11.953125,-4.667969 -3.4375,3.300782 -9.160156,4.550782 l -1.074219,-1.914063 q 7.363281,-1.132812 10.15625,-5.996094 l 2.1875,0.390625 q -0.117187,0.488282 -0.917969,1.5625 4.042969,3.320313 11.640625,4.121094 z M 12.765625,86.221596 H 1.5742187 V 84.209877 H 12.765625 Z M 30.324219,104.6591 H 14.445313 l 0.996093,1.30859 Q 9.25,109.09269 2.3164063,110.538 L 1.28125,108.64347 q 6.4257812,-1.07422 12.207031,-3.98437 H 7.2773437 V 90.010658 H 30.324219 Z M 28.253906,94.170815 V 91.885658 H 9.40625 v 2.285157 z m 0,4.277343 V 95.96769 H 9.40625 v 2.480468 z m 0,4.316402 v -2.51953 H 9.40625 v 2.51953 z m 7.832031,5.97657 -0.957031,1.83593 q -5.839844,-2.1875 -11.601562,-3.35937 l 0.996093,-1.79688 q 6.230469,1.26954 11.5625,3.32032 z"
         id="path12862" />
      <path
         d="M 57.53125,90.284096 H 51.359375 V 110.24503 H 49.289062 V 90.284096 h -7.402343 v -1.914063 h 7.402343 V 75.166908 h 2.070313 v 13.203125 h 6.171875 z m 18.75,9.082031 -4.121094,0.800783 v 10.15625 h -2.03125 v -9.7461 l -12.402344,2.32422 -0.273437,-2.01172 12.675781,-2.402339 V 75.284096 h 2.03125 v 22.8125 l 3.847656,-0.722656 z m -18.242188,-20.625 Q 56.75,83.174721 55.128906,86.221596 l -1.914062,-0.9375 q 1.757812,-2.949219 2.988281,-7.265625 z M 46.925781,85.166908 44.933594,85.96769 Q 44.25,83.038002 42.003906,78.819252 l 1.796875,-0.800781 q 2.265625,4.023437 3.125,7.148437 z m 20.996094,-1.464843 -1.5625,1.542968 Q 63.9375,82.510658 59.933594,79.776283 l 1.386718,-1.484375 q 3.320313,2.109375 6.601563,5.410157 z m -0.683594,10.78125 -1.5625,1.601562 q -2.03125,-3.027344 -6.542969,-6.679687 l 1.503907,-1.464844 q 3.886718,3.144531 6.601562,6.542969 z m -9.511719,4.882812 -2.089843,0.683593 q -0.46875,-2.714843 -2.480469,-6.835937 l 1.855469,-0.644531 q 2.011718,4.140625 2.714843,6.796875 z M 47.160156,93.174721 q -1.40625,6.835939 -3.710937,11.269529 l -2.011719,-0.8789 q 2.34375,-4.31641 3.847656,-10.996098 z"
         id="path12864" />
      <path
         d="m 116.32031,89.053627 -1.23047,1.835938 q -6.62109,-3.886719 -15.332028,-6.757813 v 5.761719 H 111.61328 V 103.93644 H 85.96875 V 89.893471 H 97.726562 V 82.06144 q -5,4.863281 -15.351562,8.945312 l -1.40625,-1.835937 q 9.609375,-3.183594 15.117187,-8.203125 h -14.6875 v -1.992188 h 16.328125 v -3.808594 h 2.03125 v 3.808594 H 116.08594 V 80.96769 H 99.757812 v 1.09375 q 9.355468,2.96875 16.562498,6.992187 z m -6.83593,6.757813 V 91.885658 H 88.039062 v 3.925782 z m 0,6.03516 V 97.862221 H 88.039062 v 3.984379 z m 6.79687,7.51953 H 81.320312 v -1.99219 h 34.960938 z"
         id="path12866" />
      <path
         d="m 156.125,101.80753 q -0.48828,3.82813 -1.66016,6.17188 -1.17187,2.34375 -3.125,2.34375 -3.94531,0 -7.38281,-8.47656 -4.47266,3.0664 -10.03906,5.52734 l -1.46485,-1.79688 q 6.6211,-2.63671 10.87891,-5.800777 -1.38672,-5.78125 -1.75781,-10.878906 l -7.2461,0.878906 -0.15625,-2.128906 7.22657,-0.839844 q -0.46875,-4.902343 -0.46875,-9.238281 0,-1.210937 0.0391,-2.363281 h 2.10937 q -0.0391,1.210937 -0.0391,2.519531 0,3.964844 0.3711,8.769531 l 12.1875,-1.484375 0.21484,2.011719 -12.24609,1.503906 q 0.35156,4.921875 1.5625,9.960938 4.3164,-3.652344 7.79296,-8.710938 l 1.71875,1.230469 q -4.27734,5.9375 -8.86718,9.531248 1.38672,3.84766 2.96875,5.6836 1.58203,1.83593 2.48047,1.83593 0.60546,0 1.03515,-0.39062 0.44922,-0.39063 1.01563,-2.53906 0.58593,-2.14844 0.89843,-4.4336 z m -20.56641,-8.281247 q -2.42187,1.09375 -5.72265,2.207032 v 11.640625 q 0,1.17187 -0.66407,2.01172 -0.64453,0.83984 -3.47656,0.83984 -0.83984,0 -2.20703,-0.0586 l -0.76172,-2.10938 q 3.69141,0.0781 4.375,-0.0195 0.70313,-0.11719 0.70313,-0.74219 V 96.377846 q -2.05078,0.78125 -5.95703,1.796875 L 121.125,96.12394 q 3.63281,-0.839844 6.67969,-1.835938 v -10 h -6.36719 v -2.03125 h 6.36719 v -7.050781 h 2.03125 v 7.050781 h 5.2539 v 2.03125 h -5.2539 v 9.277344 q 2.73437,-0.957031 5.21484,-1.992188 z m 17.59766,-11.5625 -1.75781,1.367188 q -2.34375,-3.222656 -5.11719,-5.3125 l 1.64062,-1.328125 q 3.20313,2.382812 5.23438,5.273437 z"
         id="path12868" />
      <path
         d="m 178.13672,96.495033 q -1.44531,-0.761718 -1.44531,-1.933593 0,-0.566407 0.48828,-1.152344 0.48828,-0.605469 1.38672,-0.605469 1.875,0 1.875,2.460938 0,2.011718 -2.36329,3.886718 l -0.83984,-0.644531 q 0.89844,-1.191406 0.89844,-2.011719 z"
         id="path12870" />
      <path
         d="m 236.20312,108.78019 -1.44531,1.875 q -9.47265,-3.04688 -15.99609,-8.76953 -6.50391,5.625 -16.03516,8.65234 l -1.52344,-1.75781 q 10.07813,-2.94922 16.03516,-8.39844 -5.66406,-5.898435 -8.82812,-14.25781 l 1.91406,-0.878907 q 3.00781,8.242188 8.47656,13.847657 5.76172,-6.503907 8.16406,-15.390625 h -25.60547 v -2.089844 h 16.71875 q -1.54296,-3.125 -3.51562,-5.761719 l 2.08984,-0.800781 q 2.42188,3.574219 3.67188,6.5625 h 15.8789 v 2.089844 h -7.10937 q -2.65625,10.117187 -8.69141,16.757815 5.95703,5.35156 15.80078,8.32031 z"
         id="path12872" />
      <path
         d="m 274.5625,82.68644 h -2.10938 v -2.519532 h -27.20703 v 2.519532 h -2.1289 v -4.511719 h 15 q -0.46875,-1.015625 -1.26953,-2.402344 l 1.99218,-0.644531 q 0.56641,0.917969 1.75782,3.046875 h 13.96484 z m 0.37109,3.769531 h -9.29687 q -1.71875,2.558594 -3.90625,4.511719 6.11328,1.523437 12.48047,3.769531 L 273,96.495033 q -4.96094,-1.914062 -13.16406,-4.042968 -5.29297,3.359375 -16.79688,3.515625 l -1.03515,-1.953125 q 10.37109,0 14.92187,-2.207032 -5,-1.230468 -9.39453,-2.070312 1.64062,-1.523438 3.14453,-3.28125 h -8.02734 v -1.914063 h 9.72656 q 1.5625,-1.875 3.02734,-3.886718 l 1.83594,0.800781 q -1.11328,1.679687 -2.34375,3.085937 h 9.58984 q 0.66407,-1.015625 1.11329,-2.050781 l 2.01171,0.410156 q -0.19531,0.644532 -0.72265,1.640625 h 8.04687 z m -11.85547,0 h -9.78515 q -0.76172,0.957031 -1.81641,2.070312 2.48047,0.507813 7.89063,1.796875 1.85547,-1.269531 3.71093,-3.867187 z m 13.08594,13.359375 h -16.32812 v 10.429684 h -2.03125 V 99.815346 h -16.32813 v -2.011719 h 16.32813 v -2.949219 h 2.03125 v 2.949219 h 16.32812 z m -21.83594,2.988284 q -4.9414,4.17968 -11.03515,6.77734 l -1.44531,-1.64062 q 6.28906,-2.57813 10.72265,-6.36719 z m 21.52344,5.05859 -1.52344,1.54297 q -4.66796,-3.28125 -11.21093,-6.07422 l 1.48437,-1.67969 q 7.08985,3.1836 11.25,6.21094 z"
         id="path12874" />
      <path
         d="m 296.39844,92.901283 h -6.15235 q -0.625,8.867187 -6.95312,15.800777 l -1.75781,-1.28906 q 6.09375,-6.46484 6.58203,-14.511717 H 281.4375 V 90.81144 h 6.85547 q 0.19531,-4.023438 0.19531,-7.246094 h -6.17187 v -1.953125 h 6.21093 V 75.49894 h 1.99219 v 6.113281 h 5.25391 v 1.953125 h -5.25391 q -0.0586,3.808594 -0.19531,7.246094 h 6.07422 z m 19.80468,9.277347 q 0,5.15625 -1.01562,6.44531 -0.99609,1.30859 -3.61328,1.30859 -2.91016,0 -3.63281,-0.95703 -0.70313,-0.95703 -0.70313,-1.79687 v -9.64844 h -3.82812 q -0.19532,9.31641 -9.64844,12.79297 l -1.3086,-1.67969 q 9.10157,-3.28125 8.78907,-11.11328 h -3.63282 V 76.299721 h 16.44532 V 97.53019 h -4.76563 v 9.27734 q 0,0.46875 0.33203,0.83985 0.33203,0.35156 1.9336,0.35156 1.44531,0 1.99218,-0.72266 0.54688,-0.72265 0.54688,-3.96484 0,-0.80078 -0.0391,-1.66016 z m -4.23828,-19.414065 v -4.550782 h -12.28515 v 4.550782 z m 0,6.328125 v -4.433594 h -12.28515 v 4.433594 z m 0,6.601562 v -4.6875 h -12.28515 v 4.6875 z m -15.52734,7.636718 -1.60156,1.44531 q -1.66016,-3.88672 -4.0625,-7.167965 l 1.54297,-1.308594 q 2.4414,3.496094 4.12109,7.031249 z"
         id="path12876" />
      <path
         d="m 355.20703,107.60831 q 0,1.32813 -0.76172,1.99219 -0.76172,0.6836 -3.51562,0.6836 l -3.20313,-0.0781 -0.68359,-1.95312 q 4.64844,0.13671 5.44922,-0.0977 0.80078,-0.25391 0.80078,-1.13281 V 75.381752 h 1.91406 z M 344.79687,83.448158 h -2.91015 v 4.160157 h -7.89063 v 2.402343 h 8.96485 v 1.523438 h -8.96485 v 2.402344 h 9.80469 v 1.601562 h -21.875 V 93.93644 h 10.11719 v -2.402344 h -9.1211 v -1.523438 h 9.1211 v -2.402343 h -8.32031 v -1.5625 h 8.32031 V 83.448158 H 321.4375 v -1.523437 h 10.60547 v -2.636719 h -8.35938 v -1.523437 h 8.35938 v -2.382813 h 1.95312 v 2.382813 h 7.89063 v 4.160156 h 2.91015 z m -4.96093,-1.523437 v -2.636719 h -5.83985 v 2.636719 z m 0,4.082031 v -2.558594 h -5.83985 v 2.558594 z m 8.61328,16.894528 H 346.4375 V 78.096596 h 2.01172 z m -6.48438,2.94922 h -18.00781 v -8.16406 h 18.00781 z m -1.99218,-4.80469 v -1.79687 h -5.97657 v 1.79687 z m -8.00782,0 v -1.79687 h -6.07422 v 1.79687 z m 8.00782,3.28125 v -1.79687 h -5.97657 v 1.79687 z m -8.00782,0 v -1.79687 h -6.03515 v 1.79687 z m 12.32422,5.21485 h -22.7539 v -1.67969 h 22.7539 z"
         id="path12878" />
      <path
         d="m 371.84766,93.702065 q -1.17188,0.566406 -3.96485,1.71875 v 11.835935 q 0,3.02735 -2.91015,3.02735 -1.69922,0 -2.28516,-0.0391 l -0.56641,-2.07031 q 0.64453,0.0781 2.48047,0.0781 0.48828,0 0.82031,-0.35157 0.35157,-0.37109 0.35157,-0.83984 V 96.260658 q -1.71875,0.664063 -4.41407,1.503907 l -0.42968,-2.03125 q 2.24609,-0.644532 4.84375,-1.679688 v -9.609375 h -4.53125 v -1.992187 h 4.53125 v -7.128907 h 2.10937 v 7.128907 h 3.65235 v 1.992187 h -3.65235 v 8.769531 l 3.59375,-1.5625 z m 23.78906,-3.574219 H 388 q -2.75391,0 -2.75391,-2.753906 V 76.299721 h 9.1211 v 8.242187 h -7.05078 v 2.675782 q 0,1.113281 1.21093,1.113281 h 7.10938 z m -3.35938,-7.597656 v -4.238282 h -4.96093 v 4.238282 z m -8.51562,6.328125 q -5.60547,1.503906 -10.03906,2.519531 l -1.03516,-1.679688 q 0.91797,-0.585937 0.91797,-1.71875 V 76.299721 h 9.0039 v 8.242187 h -7.01171 v 4.355469 q 4.88281,-1.054687 7.92968,-2.011719 z m -3.20313,-6.328125 v -4.238282 h -4.96093 v 4.238282 z m 15.44922,20.11719 h -24.0039 v -1.95313 h 6.5625 v -4.609373 h -5.35157 v -1.953125 h 5.35157 v -2.441406 h 2.10937 v 2.441406 h 7.08984 v -2.441406 h 2.20704 v 2.441406 h 5.15625 v 1.953125 h -5.15625 v 4.609373 h 6.03515 z m -8.24219,-1.95313 v -4.609373 h -7.08984 v 4.609373 z m -5.80078,4.47266 q -3.30078,2.77344 -8.39843,5.11719 l -1.60157,-1.67969 q 5.15625,-2.10938 8.55469,-4.90235 z m 14.08203,3.57422 -1.44531,1.46484 q -3.57422,-2.67578 -7.98828,-4.96094 l 1.30859,-1.46484 q 4.57032,2.28516 8.125,4.96094 z"
         id="path12880" />
      <path
         d="m 434.64062,85.538002 h -2.03125 v -4.804687 h -27.8125 v 4.804687 h -2.07031 V 78.78019 h 15.03906 q -0.39062,-1.308594 -1.48437,-2.929688 l 1.93359,-0.800781 q 1.23047,1.992187 1.75782,3.730469 h 14.66796 z m -0.0391,11.992188 q -0.13672,5.70312 -0.72265,8.55469 -0.58594,2.83203 -1.71875,3.49609 -1.11329,0.66406 -4.33594,0.66406 -1.05469,0 -2.61719,-0.0781 l -0.83984,-2.07031 q 1.73828,0.13671 3.57422,0.13671 2.20703,0 2.71484,-0.19531 0.50781,-0.21484 0.78125,-0.72265 0.29297,-0.52735 0.58594,-2.77344 0.29297,-2.2461 0.42968,-5.13672 h -23.08593 q -2.96875,2.26562 -7.05078,4.00391 l -1.3086,-1.79688 q 6.77735,-2.36328 10.27344,-6.640624 h -4.74609 v -9.960938 q 6.38671,-1.308593 10.03906,-2.949218 l 0.95703,1.835937 Q 413,85.596596 408.56641,86.455971 v 1.992187 h 8.67187 v 1.875 h -8.67187 v 2.773438 h 20.27343 v -2.773438 h -8.55468 v -1.875 h 8.55468 V 85.81144 h -9.23828 v -1.914063 h 11.32813 v 11.074219 h -17.01172 q -0.76172,1.015625 -2.30469,2.558594 z m -5.99609,7.75391 -1.83594,0.80078 q -0.89844,-2.2461 -2.63672,-4.86328 l 1.71875,-0.80079 q 1.66016,2.40235 2.75391,4.86329 z m -6.07422,2.32421 -1.89453,0.60547 q -0.9375,-4.04297 -2.14844,-6.36718 l 1.83594,-0.625 q 1.5625,3.4375 2.20703,6.38671 z m -6.71875,1.36719 -2.01172,0.39063 q -0.0977,-3.35938 -1.11328,-7.34375 l 1.875,-0.3711 q 1.01562,3.75 1.25,7.32422 z m -5.37109,-6.36719 q -2.44141,4.4336 -5,7.12891 l -1.79688,-1.03516 q 2.53906,-2.57812 5.03906,-6.97265 z"
         id="path12882" />
    </g>
  </g>
</svg>
