<?xml version="1.0" encoding="UTF-8" standalone="no"?>
<!-- Created with Inkscape (http://www.inkscape.org/) -->

<svg
   width="200mm"
   height="40mm"
   viewBox="0 0 200 40"
   version="1.1"
   id="svg95978"
   inkscape:version="1.2.1 (9c6d41e410, 2022-07-14)"
   sodipodi:docname="Member.2.pic.svg"
   xmlns:inkscape="http://www.inkscape.org/namespaces/inkscape"
   xmlns:sodipodi="http://sodipodi.sourceforge.net/DTD/sodipodi-0.dtd"
   xmlns="http://www.w3.org/2000/svg"
   xmlns:svg="http://www.w3.org/2000/svg">
  <sodipodi:namedview
     id="namedview95980"
     pagecolor="#ffffff"
     bordercolor="#666666"
     borderopacity="1.0"
     inkscape:pageshadow="2"
     inkscape:pageopacity="0.0"
     inkscape:pagecheckerboard="0"
     inkscape:document-units="mm"
     showgrid="false"
     width="275mm"
     inkscape:zoom="0.71713664"
     inkscape:cx="497.11586"
     inkscape:cy="227.29281"
     inkscape:window-width="1920"
     inkscape:window-height="1017"
     inkscape:window-x="-8"
     inkscape:window-y="-8"
     inkscape:window-maximized="1"
     inkscape:current-layer="layer1"
     inkscape:showpageshadow="2"
     inkscape:deskcolor="#d1d1d1" />
  <defs
     id="defs95975">
    <rect
       x="-1.3944345"
       y="0"
       width="769.72772"
       height="167.33204"
       id="rect104247" />
  </defs>
  <g
     inkscape:label="圖層 1"
     inkscape:groupmode="layer"
     id="layer1">
    <g
       aria-label="蔡韋漢
墓葬實地探勘，南山公墓歷史顧問"
       transform="matrix(0.26458333,0,0,0.26458333,0.52916667,0)"
       id="text104245"
       style="font-size:40px;line-height:1.25;white-space:pre;shape-inside:url(#rect104247);display:inline">
      <path
         d="M 48.631481,17.291656 H 37.641904 v 2.812499 H 32.954407 V 17.291656 H 26.54816 v -4.062497 h 6.406247 v -2.916665 h 4.687497 v 2.916665 h 10.989577 z m -24.322903,0 h -5.234371 v 2.812499 H 14.438793 V 17.291656 H 2.173175 v -4.062497 h 12.265618 v -2.916665 h 4.635414 v 2.916665 h 5.234371 z m 25.130194,20.520821 -2.52604,3.802082 Q 40.350236,39.11456 34.074198,34.947896 v 3.255206 h -17.18749 v -2.83854 Q 11.105461,39.531226 4.2044237,41.874975 L 1.9648417,37.968727 Q 9.6992121,35.755187 14.230459,32.161439 11.183586,30.156232 7.2512969,28.489566 5.7408812,29.557274 4.6731735,30.078107 L 1.9127584,26.874984 Q 7.0429637,23.958319 10.76692,19.479155 l 4.322914,1.588541 -0.859375,1.015624 10.729161,0.859375 -0.208334,3.619789 q -2.005207,4.192706 -6.145829,7.578121 H 32.85024 Q 28.813784,30.651023 26.990868,28.22915 l 3.77604,-2.083332 q 1.979165,2.317707 4.843747,4.58333 Q 38.345028,28.3854 40.58461,25.39061 H 27.667951 v -3.828123 h 18.567698 v 3.828123 q -3.749998,4.817705 -6.874996,7.682287 4.270831,2.656248 10.078119,4.73958 z M 19.777331,26.302068 10.76692,25.651026 10.402337,25.989568 q 3.333331,1.484374 6.822912,3.463539 1.354166,-1.458332 2.552082,-3.151039 z m -9.270828,7.526037 Q 6.7304639,34.609354 3.1887994,34.843729 L 2.8762995,31.432273 Q 6.7304639,31.249981 10.29817,30.468732 Z M 43.8919,45.338515 H 27.980451 V 56.796841 H 23.188787 V 45.338515 H 7.2512969 V 41.276017 H 43.8919 Z m 4.218748,6.979162 -2.786457,3.697915 Q 40.792944,53.30726 31.782532,50.130178 l 2.499999,-3.828122 q 7.57812,2.395832 13.828117,6.015621 z m -28.0729,-3.411456 Q 14.959626,53.046843 6.2356725,56.067675 L 3.3450493,52.265594 Q 11.652336,49.557262 16.157542,46.354139 Z"
         style="font-weight:bold;font-size:53.3333px;-inkscape-font-specification:'sans-serif Bold'"
         id="path8240" />
      <path
         d="M 101.96478,24.374985 H 55.55856 V 20.598946 H 70.350218 L 71.990842,17.03124 H 59.204391 v -3.697915 h 14.374991 l 1.354166,-3.3593726 4.843747,0.8072916 -0.963541,2.552081 h 16.380199 v 7.265621 h 6.770827 z M 90.402289,20.598946 V 17.03124 H 77.225214 l -1.666666,3.567706 z M 101.9127,52.36976 H 84.751251 v 4.609373 H 79.881462 V 52.36976 H 59.777307 l 1.874999,-7.552078 h -4.479164 v -3.802081 h 22.70832 V 38.046852 H 61.209598 V 27.213525 H 96.41791 V 38.046852 H 84.751251 v 2.968749 h 15.338529 v 3.802081 H 84.751251 v 3.828122 H 101.9127 Z M 91.67833,34.348938 V 30.833315 H 66.13147 v 3.515623 z M 79.881462,48.645804 V 44.817682 H 66.75647 l -1.015625,3.828122 z"
         style="font-weight:bold;font-size:53.3333px;-inkscape-font-specification:'sans-serif Bold'"
         id="path8242" />
      <path
         d="m 120.84498,17.34374 -3.51562,3.567706 q -2.99479,-3.541665 -7.83854,-7.473954 l 3.51562,-3.4635396 q 3.4375,2.5520816 7.83854,7.3697876 z m 34.66144,30.13019 h -17.76041 q -4.16666,7.578121 -15.98957,9.921869 l -2.34375,-4.062497 q 9.66145,-1.927083 12.99478,-5.859372 h -12.36978 v -3.828123 h 14.40103 q 0.44271,-1.406249 0.59896,-2.68229 h -13.02083 v -3.723956 h 13.33333 q 0.15625,-0.859374 0.15625,-2.578123 h -12.3177 v -9.687495 h 12.21353 v -2.239582 h -7.18749 v -6.041663 h -7.05729 v -3.776039 h 7.0052 v -2.552082 h 4.73958 v 2.552082 h 9.81771 v -2.552082 h 4.63541 v 2.552082 h 7.47395 v 3.776039 h -7.47395 v 6.041663 h -7.47395 v 2.239582 h 12.52603 v 9.687495 h -12.52603 q 0,1.796874 -0.10417,2.578123 h 13.98437 v 3.723956 h -14.1927 q -0.15625,0.989583 -0.54688,2.68229 h 16.48437 z m -12.78645,-28.3854 v -2.395832 h -9.81771 v 2.395832 z m 5.15624,11.953118 v -2.395832 h -7.9427 v 2.395832 z m -12.42186,0 v -2.395832 h -7.68229 v 2.395832 z m -15.1302,0.05208 -3.35938,3.567707 q -3.02083,-3.61979 -8.22916,-7.552079 l 3.25521,-3.645831 q 5.57291,4.322914 8.33333,7.630203 z m -0.80729,8.489579 q -2.70834,9.531244 -6.92708,18.020822 l -4.11459,-3.046873 q 4.40104,-8.880203 6.875,-17.864573 z m 36.84893,13.854158 -2.5,4.010414 q -5.07812,-2.890623 -14.79165,-5.598955 l 2.13541,-3.854164 q 8.5677,2.187499 15.15624,5.442705 z"
         style="font-weight:bold;font-size:53.3333px;-inkscape-font-specification:'sans-serif Bold'"
         id="path8244" />
      <path
         d="m 17.921875,79.386208 h -4.960937 v 1.933593 h -2.03125 V 79.386208 H 1.3984375 V 77.55027 h 9.5312505 v -2.128906 h 2.03125 v 2.128906 h 4.960937 z m 18.203125,0 h -9.394531 v 1.972656 H 24.71875 v -1.972656 h -5 V 77.55027 h 5 v -2.070312 h 2.011719 V 77.55027 H 36.125 Z m 0.03906,24.277342 -1.113281,1.81641 q -2.226562,-0.66406 -5.761719,-2.44141 v 1.54297 h -9.492187 v 3.32031 h 13.964844 v 1.89453 H 3.6835938 v -1.89453 H 17.804687 v -3.32031 H 8.2539063 v -1.67969 q -3.0859376,1.66016 -5.6054688,2.65625 l -1.25,-1.67968 Q 7.3945312,101.53465 11.398438,98.038551 H 1.8476562 V 96.14402 H 13.371094 q 1.152344,-1.386719 1.914062,-2.714844 H 6.4375 V 82.55027 h 24.804687 v 10.878906 h -13.59375 q -0.917968,1.582032 -1.640625,2.714844 h 19.667969 v 1.894531 h -10.15625 q 3.378906,3.261719 10.644531,5.624999 z M 29.210937,86.983864 V 84.42527 H 8.4492188 v 2.558594 z m 0,4.492187 V 88.839333 H 8.4492188 v 2.636718 z m -0.566406,11.230469 q -4.042969,-2.48047 -5.800781,-4.667969 h -8.398437 q -2.734375,2.910159 -5.7226567,4.667969 h 9.0820307 v -3.027344 h 1.992188 v 3.027344 z"
         id="path8246" />
      <path
         d="m 57.84375,80.265114 h -4.921875 v 2.441406 h -2.070313 v -2.441406 h -9.375 v -1.875 h 9.375 v -3.085938 h 2.070313 v 3.085938 h 4.921875 z m 18.28125,0 h -9.433594 v 2.441406 h -2.050781 v -2.441406 h -4.84375 v -1.875 h 4.84375 v -3.007813 h 2.050781 v 3.007813 H 76.125 Z M 75.929687,85.83152 H 63.839844 v 3.398438 h 10.917968 v 1.796875 H 63.839844 v 3.085937 q 0,0.585938 0.527343,0.78125 0.546875,0.195313 5.058594,0.195313 1.601563,0 2.441406,-0.01953 0.839844,-0.03906 1.289063,-0.78125 0.46875,-0.742187 0.644531,-2.011718 l 1.835938,0.722656 q -0.410157,3.945312 -4.160157,3.945312 -5.507812,0 -6.972656,-0.03906 -1.445312,-0.03906 -2.070312,-0.761719 -0.625,-0.722656 -0.625,-2.1875 v -8.125 h -8.398438 q -1.152344,1.464844 -2.480469,2.675781 h 8.28125 v 1.875 q -5.371093,7.089844 -16.484375,8.769532 l -0.917968,-1.640625 q 4.824218,-0.742188 7.988281,-2.246094 -1.953125,-2.304688 -3.632813,-3.59375 -1.582031,0.761719 -2.832031,1.152344 l -1.25,-1.679688 q 5.605469,-1.5625 8.808594,-5.3125 h -9.414063 v -1.875 H 75.929687 Z M 56.769531,90.382301 H 48.527344 L 48,90.753395 q 1.5625,1.25 3.691406,3.59375 3.046875,-1.660156 5.078125,-3.964844 z M 76.085937,102.6284 h -9.550781 v 7.71484 h -2.011719 v -7.71484 h -10.15625 q -0.253906,3.18359 -3.222656,5.21484 -2.949219,2.01172 -7.460937,2.46094 l -0.917969,-1.83594 q 9.042969,-1.23047 9.511719,-5.83984 H 41.359375 v -1.875 h 11.09375 q 0.214844,-1.191411 0.117187,-2.441411 H 54.5625 q 0.09766,0.78125 -0.07813,2.441411 h 10.039062 v -2.441411 h 2.011719 v 2.441411 h 9.550781 z"
         id="path8248" />
      <path
         d="M 114.71875,83.155739 H 112.6875 V 79.386208 H 84.933594 v 3.613281 H 82.882812 V 77.667458 H 97.6875 q -0.488281,-1.015625 -1.035156,-1.71875 l 1.914062,-0.683594 q 0.507813,0.742187 1.40625,2.402344 h 14.746094 z m 1.48438,3.75 h -6.36719 l -0.35156,4.042969 H 87.160156 l 0.371094,-4.042969 h -6.132813 v -1.523438 h 6.328125 l 0.429688,-3.867187 h 22.24609 l -0.39062,3.867187 h 6.19141 z m -7.98829,-3.789063 h -8.125 l -0.195309,2.265625 H 108 Z m -10.21484,0 h -8.027344 l -0.253906,2.265625 h 8.085937 z m 9.76563,3.789063 h -8.085943 l -0.195312,2.402344 h 8.085935 z m -10.156255,0 h -8.007813 l -0.234375,2.402344 h 8.046875 z M 111.125,105.03074 H 94.933594 l 0.878906,1.25 q -6.542969,3.47656 -12.929688,4.23828 l -1.191406,-1.85547 Q 88.3125,107.96043 94.25,105.03074 H 86.535156 V 92.999489 H 111.125 Z m -2.03125,-8.554689 V 94.640114 H 88.449219 v 1.835937 z m 0,3.476563 v -1.875 H 88.449219 v 1.875 z m 0,3.476566 v -1.875 H 88.449219 v 1.875 z m 6.58203,5.3125 -0.78125,1.73828 q -5.19531,-1.9336 -13.28125,-2.96875 l 0.83985,-1.60156 q 8.125,1.03515 13.22265,2.83203 z"
         id="path8250" />
      <path
         d="m 156.24219,102.74558 q -0.19532,4.00391 -1.19141,5.42969 -0.99609,1.42578 -1.95312,1.5625 -0.9375,0.15625 -6.34766,0.15625 -7.34375,0 -8.69141,-0.11719 -1.34765,-0.11718 -1.99218,-0.99609 -0.625,-0.87891 -0.625,-2.07031 V 90.421364 l -3.55469,1.210937 -0.3125,-2.050781 3.86719,-1.308594 v -8.320312 h 1.97265 v 7.675781 l 6.3086,-2.148437 V 75.51902 h 2.05078 v 9.238281 l 8.71093,-3.007812 q -0.0977,7.890625 -2.10937,16.875 l -2.01172,-0.585938 q 1.67969,-7.246093 2.01172,-13.457031 l -6.60156,2.246094 v 15.605466 h -2.05078 V 87.55027 l -6.3086,2.207031 v 17.070309 q 0,0.17579 0.25391,0.46875 0.2539,0.27344 0.44922,0.3711 0.19531,0.0781 2.38281,0.15625 2.1875,0.0586 4.43359,0.0586 6.79688,0 7.8711,-0.37109 1.07422,-0.3711 1.44531,-5.39063 z m -22.98828,-0.46875 q -6.13282,3.20313 -11.32813,5 l -0.5664,-2.01172 q 2.4414,-0.80078 5,-1.99218 V 87.472145 h -4.58985 v -2.050781 h 4.58985 v -9.511719 h 2.08984 v 9.511719 h 4.35547 v 2.050781 h -4.35547 v 14.921875 q 3.33984,-1.66016 4.47265,-2.28516 z"
         id="path8252" />
      <path
         d="m 172.53125,92.901833 q -1.28906,0.683593 -4.00391,1.855468 v 12.714849 q 0,3.08593 -3.84765,3.08593 -0.85938,0 -1.95313,-0.0391 l -0.60547,-2.12891 q 1.05469,0.0977 2.30469,0.0977 1.21094,0 1.62109,-0.33203 0.42969,-0.33203 0.42969,-1.09375 V 95.67527 q -2.26562,1.074219 -4.43359,1.835938 l -0.6836,-1.875 q 3.71094,-1.445313 5.11719,-2.167969 V 84.58152 h -5.07812 v -1.953125 h 5.07812 v -7.285156 h 2.05078 v 7.285156 h 3.59375 v 1.953125 h -3.59375 v 7.929688 q 1.19141,-0.488282 3.67188,-1.71875 z m 22.1875,-8.144532 h -2.07031 V 78.429176 H 176.125 v 6.328125 h -2.07031 v -8.320312 h 20.66406 z M 182.80469,80.67527 q 0.39062,8.027344 -7.75391,11.191406 l -1.32812,-1.71875 q 3.28125,-1.09375 5.17578,-3.183593 1.89453,-2.089844 1.95312,-6.289063 z m 12.40234,8.964844 h -6.48437 q -1.19141,0 -1.89454,-0.800781 Q 186.125,88.01902 186.125,86.866676 V 80.67527 h 1.99219 v 5.917969 q 0,1.074219 1.13281,1.074219 h 5.95703 z m 1.11328,17.304686 -1.30859,1.64063 q -5.87891,-4.41407 -10.03906,-11.386722 v 13.281252 h -2.08985 V 97.276833 q -2.83203,5.996097 -10.80078,11.308597 l -1.34766,-1.67969 q 7.59766,-4.80469 10.35157,-10.625001 h -7.83203 v -1.972656 h 9.6289 v -4.316407 h 2.12891 v 4.316407 h 10.91797 v 1.972656 h -9.16016 q 3.08594,5.683591 9.55078,10.664061 z"
         id="path8254" />
      <path
         d="m 222.16016,80.909645 h -3.20313 v 12.675781 h 3.20313 v 2.011719 h -5.76172 v 5.117185 q 0,0.54688 0.44922,0.78125 0.46875,0.23438 3.71093,0.0977 v 1.83594 q -3.04687,0.0977 -4.04297,0 -0.99609,-0.0977 -1.5625,-0.82032 -0.54687,-0.72265 -0.54687,-1.46484 v -5.546875 h -2.87109 q -0.11719,5.683595 -3.57422,9.042965 l -1.5625,-1.36718 q 3.04687,-2.85157 3.16406,-7.675785 h -4.08203 v 9.746095 q 0,0.54687 0.3125,0.87891 0.33203,0.33203 0.82031,0.33203 h 12.44141 v 1.95312 h -12.77344 q -1.11328,0 -1.95313,-0.83984 -0.83984,-0.85938 -0.83984,-2.1875 v -9.882815 h -2.16797 v -2.011719 h 3.96485 V 80.909645 h -3.47657 v -1.914062 h 3.47657 v -3.574219 h 2.1289 v 3.574219 h 9.47266 v -3.574219 h 2.07031 v 3.574219 h 3.20313 z m -5.27344,2.753906 v -2.753906 h -9.47266 v 2.753906 z m 0,4.804688 V 85.51902 h -9.47266 v 2.949219 z m 0,5.117187 v -3.242187 h -9.47266 v 3.242187 z m 18.28125,-10.234375 q 0,6.308594 -0.17578,14.863282 -0.17578,8.554687 -0.6836,9.667967 -0.50781,1.11328 -1.34765,1.85547 -0.83985,0.74219 -3.73047,0.74219 -0.91797,0 -1.85547,-0.0977 l -0.72266,-2.03125 q 1.03516,0.0977 2.12891,0.0977 2.42187,0 2.96875,-0.46875 0.54687,-0.48828 0.74219,-1.15235 0.19531,-0.68359 0.44922,-8.105465 0.27343,-7.421875 0.27343,-13.339844 h -5.2539 q 0,9.921875 -1.6211,15.234379 -1.60156,5.29297 -4.6875,9.98047 l -1.85547,-1.17188 q 2.8711,-4.21875 4.45313,-9.02344 1.58203,-4.804685 1.71875,-15.019529 h -4.23828 v -2.03125 h 4.27734 q 0.0586,-3.203125 0,-7.871093 h 2.07031 q 0,3.828125 -0.0781,7.871093 z"
         id="path8256" />
      <path
         d="m 258.13672,96.593239 q -1.44531,-0.761719 -1.44531,-1.933594 0,-0.566406 0.48828,-1.152344 0.48828,-0.605468 1.38672,-0.605468 1.875,0 1.875,2.460937 0,2.011719 -2.36329,3.886719 l -0.83984,-0.644531 q 0.89844,-1.191407 0.89844,-2.011719 z"
         id="path8258" />
      <path
         d="m 315.96875,81.436989 h -16.32813 v 4.667969 h 14.35547 v 21.406252 q 0,1.15234 -0.74218,1.99219 -0.72266,0.83984 -3.47657,0.83984 -1.30859,0 -2.65625,-0.11719 l -0.80078,-2.07031 q 1.73828,0.13672 2.94922,0.13672 1.79688,0 2.24609,-0.3125 0.44922,-0.33203 0.44922,-0.95703 V 88.116676 h -26.36718 v 22.187504 h -1.99219 V 86.104958 h 13.92578 v -4.667969 h -16.17188 l 0.0391,-2.011719 h 16.13281 v -3.90625 h 2.10937 v 3.90625 h 16.32813 z m -6.32813,20.839841 h -9.96093 v 6.79688 h -2.10938 v -6.79688 h -10.07812 v -2.05078 h 10.07812 v -4.121092 h -8.39844 v -2.070313 h 4.51172 q -0.83984,-2.246094 -2.24609,-4.355469 l 1.93359,-0.976562 q 1.69922,2.773437 2.59766,5.332031 h 5.15625 q 1.60156,-2.519531 2.51953,-5.117187 l 2.08984,0.625 q -0.95703,2.460937 -2.16796,4.492187 h 4.6875 v 2.070313 h -8.57422 v 4.121092 h 9.96093 z"
         id="path8260" />
      <path
         d="m 353.68359,110.42136 h -2.20703 v -1.95312 H 323.83984 V 81.827614 h 2.20703 V 106.3198 h 11.60157 V 75.479958 h 2.14843 V 106.3198 h 11.67969 V 81.827614 h 2.20703 z"
         id="path8262" />
      <path
         d="m 375.24609,76.14402 q -3.53515,10.917969 -12.71484,17.519531 l -1.60156,-1.601562 q 8.80859,-5.976563 12.22656,-16.640625 z m 21.15235,15.605469 -1.34766,1.757812 q -7.1875,-4.6875 -11.48437,-15.429687 h -2.67579 v -2.167969 h 4.31641 q 3.51563,10.839844 11.19141,15.839844 z m -2.98828,17.929691 -1.875,1.07422 q -1.25,-3.08594 -2.48047,-5.07813 -11.32813,2.92969 -22.51953,3.90625 l -0.60547,-2.03125 q 6.11328,-7.1875 11.67968,-20.566406 l 2.03125,0.878906 q -5.05859,12.011719 -10.58593,19.33594 7.73437,-0.54688 18.94531,-3.39844 -1.79688,-3.18359 -4.88281,-7.402344 l 1.85547,-1.09375 q 5.54687,7.636724 8.4375,14.375004 z"
         id="path8264" />
      <path
         d="m 417.92187,79.386208 h -4.96093 v 1.933593 h -2.03125 v -1.933593 h -9.53125 V 77.55027 h 9.53125 v -2.128906 h 2.03125 v 2.128906 h 4.96093 z m 18.20313,0 h -9.39453 v 1.972656 h -2.01172 v -1.972656 h -5 V 77.55027 h 5 v -2.070312 h 2.01172 v 2.070312 h 9.39453 z m 0.0391,24.277342 -1.11328,1.81641 q -2.22656,-0.66406 -5.76172,-2.44141 v 1.54297 h -9.49219 v 3.32031 h 13.96485 v 1.89453 h -30.07813 v -1.89453 h 14.1211 v -3.32031 h -9.55078 v -1.67969 q -3.08594,1.66016 -5.60547,2.65625 l -1.25,-1.67968 q 5.99609,-2.34375 10,-5.839849 h -9.55078 V 96.14402 h 11.52343 q 1.15235,-1.386719 1.91407,-2.714844 H 406.4375 V 82.55027 h 24.80469 v 10.878906 h -13.59375 q -0.91797,1.582032 -1.64063,2.714844 h 19.66797 v 1.894531 h -10.15625 q 3.37891,3.261719 10.64453,5.624999 z M 429.21094,86.983864 V 84.42527 h -20.76172 v 2.558594 z m 0,4.492187 v -2.636718 h -20.76172 v 2.636718 z m -0.56641,11.230469 q -4.04297,-2.48047 -5.80078,-4.667969 h -8.39844 q -2.73437,2.910159 -5.72265,4.667969 h 9.08203 v -3.027344 h 1.99218 v 3.027344 z"
         id="path8266" />
      <path
         d="m 476.16406,78.429176 h -29.6289 v 16.074219 q 0,9.433595 -3.41797,16.015625 l -1.67969,-1.28906 q 3.04687,-6.46485 3.04687,-18.808596 v -13.90625 h 31.67969 z m -0.23437,17.050782 -1.28907,1.503906 q -2.61718,-2.851563 -5.95703,-5 v 6.523437 h -1.95312 v -6.914062 q -2.2461,3.378906 -5.07813,5.3125 l -1.48437,-1.269531 q 3.98437,-2.929688 6.52344,-7.285157 h -4.375 v -1.835937 h 4.41406 v -3.164063 q -2.59766,0.195313 -3.88672,0.195313 l -0.83984,-1.796875 Q 468,81.690895 473.11719,80.343239 l 1.21093,1.640625 q -3.04687,0.820312 -5.64453,1.09375 v 3.4375 h 7.12891 v 1.835937 h -7.12891 v 1.191407 q 4.60938,3.125 7.2461,5.9375 z m -14.53125,-3.203125 -1.03516,1.640625 q -1.91406,-1.386719 -3.96484,-2.519532 v 7.109375 h -1.91407 v -7.03125 q -2.55859,3.75 -5.52734,5.722657 l -1.34766,-1.367188 q 4.04297,-2.773437 6.75782,-7.480469 h -6.11328 v -1.835937 h 6.23046 v -3.359375 q -3.02734,0.351562 -5.03906,0.429687 l -0.91797,-1.757812 q 6.01563,-0.175781 11.3086,-1.484375 l 1.09375,1.5625 q -2.26563,0.703125 -4.53125,0.957031 v 3.652344 h 4.27734 v 1.835937 h -4.27734 v 0.878907 q 2.83203,1.484375 5,3.046875 z m 14.80468,15.800777 v 1.75782 h -29.19921 v -1.75782 h 5.68359 v -8.04687 h 1.99219 v 8.04687 h 6.28906 v -9.726559 h 1.99219 v 3.164059 h 10.52734 v 1.79688 h -10.52734 v 4.76562 z"
         id="path8268" />
      <path
         d="m 516.47656,108.15574 -0.80078,2.14844 q -11.66016,-0.70313 -19.51172,-4.47266 -5.05859,4.23828 -14.08203,4.39453 l -0.87891,-2.10937 q 8.16407,-0.0586 12.89063,-3.35938 -4.47266,-2.61719 -8.53516,-6.562499 l 1.71875,-1.210937 q 5.25391,4.707036 8.39844,6.132816 1.50391,-2.12891 1.93359,-8.964847 H 484.13281 V 81.104958 h 13.55469 v -5.761719 h 2.10937 v 5.761719 h 13.57422 v 13.046875 h -13.61328 q -0.29297,6.777347 -2.07031,9.921877 7.46094,3.61328 18.78906,4.08203 z m -5.3125,-16.093751 v -8.828125 h -11.36719 v 8.828125 z m -13.47656,0 v -8.828125 h -11.40625 v 8.828125 z"
         id="path8270" />
      <path
         d="m 538.72266,88.624489 h -13.47657 q 0.0781,2.910156 -0.13672,9.941406 -0.21484,7.011715 -2.03125,11.503905 l -1.75781,-1.32812 q 2.01172,-5.70313 2.01172,-15.585941 V 77.511208 q 8.49609,-0.488282 13.94531,-2.207032 l 1.09375,1.640625 q -5.01953,1.640625 -13.08593,2.324219 v 2.480469 h 13.4375 z m -1.875,-1.835938 v -3.164062 h -11.5625 v 3.164062 z m 19.16015,-8.4375 h -6.71875 q -0.50781,2.480469 -1.21094,4.765625 h 6.09375 v 19.394534 h -8.49609 l 1.32813,1.03515 q -2.2461,3.94532 -5.91797,6.97266 l -1.48438,-1.40625 q 3.32031,-2.53906 5.72266,-6.60156 h -3.4375 V 83.116676 h 4.16015 q 0.78125,-2.167968 1.19141,-4.765625 h -7.07031 v -1.796875 h 15.83984 z m -3.76953,10.3125 v -3.710937 h -8.47656 v 3.710937 z m 0,5.761719 v -3.945312 h -8.47656 v 3.945312 z m 0,6.32813 v -4.472661 h -8.47656 v 4.472661 z m -12.63672,-6.562505 h -4.16015 v 2.871094 h 3.28125 v 1.738281 h -3.28125 v 2.87109 h 3.35937 v 1.67969 h -3.35937 v 2.96875 h 3.51562 v 1.79688 h -8.90625 v 2.1875 h -1.83594 V 97.472145 q -0.39062,0.78125 -1.13281,1.640625 l -1.19141,-1.601562 q 2.40235,-3.75 3.51563,-7.871094 l 1.79687,0.625 q -0.58593,1.894531 -0.72265,2.207031 h 3.57422 q -0.44922,-1.035156 -1.21094,-2.167969 l 1.83594,-0.664062 q 0.54687,0.917969 1.40625,2.832031 h 3.51562 z m -6.03515,2.871094 v -2.871094 h -3.51563 v 2.871094 z m 0,4.609371 v -2.87109 h -3.51563 v 2.87109 z m 0,4.64844 v -2.96875 h -3.51563 v 2.96875 z m 22.63671,2.98828 -1.67968,1.21094 q -1.77735,-2.71484 -4.72657,-5.64453 l 1.60157,-1.17188 q 3.59375,3.82813 4.80468,5.60547 z"
         id="path8272" />
      <path
         d="m 594.25,107.27683 q 0,1.64063 -0.95703,2.44141 -0.95703,0.80078 -3.67188,0.80078 -0.72265,0 -1.93359,-0.0391 l -0.80078,-2.05078 q 1.34765,0.0391 2.28515,0.0391 1.95313,0 2.48047,-0.25391 0.54688,-0.2539 0.54688,-1.09375 V 90.265114 H 580.51953 V 76.358864 H 594.25 Z m -2.05078,-25.03906 v -3.886719 h -9.62891 v 3.886719 z m 0,6.035156 v -4.121093 h -9.62891 v 4.121093 z m -15.3125,1.992188 h -11.83594 v 20.039066 h -2.08984 V 76.358864 h 13.92578 z m -2.08985,-8.027344 v -3.886719 h -9.74609 v 3.886719 z m 0,6.035156 v -4.121093 h -9.74609 v 4.121093 z M 585.89062,104.7573 H 571.24219 V 93.702614 h 14.64843 z m -2.01171,-2.05078 v -6.914062 h -10.54688 v 6.914062 z"
         id="path8274" />
    </g>
  </g>
</svg>
