<?xml version="1.0" encoding="UTF-8" standalone="no"?>
<!-- Created with Inkscape (http://www.inkscape.org/) -->

<svg
   width="200mm"
   height="40mm"
   viewBox="0 0 200 40"
   version="1.1"
   id="svg95978"
   inkscape:version="1.1.1 (3bf5ae0d25, 2021-09-20)"
   sodipodi:docname="Member.4.pic.svg"
   xmlns:inkscape="http://www.inkscape.org/namespaces/inkscape"
   xmlns:sodipodi="http://sodipodi.sourceforge.net/DTD/sodipodi-0.dtd"
   xmlns="http://www.w3.org/2000/svg"
   xmlns:svg="http://www.w3.org/2000/svg">
  <sodipodi:namedview
     id="namedview95980"
     pagecolor="#ffffff"
     bordercolor="#666666"
     borderopacity="1.0"
     inkscape:pageshadow="2"
     inkscape:pageopacity="0.0"
     inkscape:pagecheckerboard="0"
     inkscape:document-units="mm"
     showgrid="false"
     width="275mm"
     inkscape:zoom="0.71713664"
     inkscape:cx="496.41865"
     inkscape:cy="227.29281"
     inkscape:window-width="1920"
     inkscape:window-height="991"
     inkscape:window-x="-9"
     inkscape:window-y="-9"
     inkscape:window-maximized="1"
     inkscape:current-layer="layer1"
     inkscape:showpageshadow="2"
     inkscape:deskcolor="#d1d1d1" />
  <defs
     id="defs95975">
    <rect
       x="-1.3944345"
       y="0"
       width="769.72772"
       height="167.33204"
       id="rect104247" />
  </defs>
  <g
     inkscape:label="圖層 1"
     inkscape:groupmode="layer"
     id="layer1">
    <g
       aria-label="吳中仁
實體展品設計製作，雷射切割"
       transform="matrix(0.26458333,0,0,0.26458333,0.52916667,0)"
       id="text104245"
       style="font-size:40px;line-height:1.25;white-space:pre;shape-inside:url(#rect104247);display:inline">
      <path
         d="M 42.511693,25.70311 H 15.246084 V 11.302077 H 42.511693 Z M 37.850237,21.276029 V 15.729157 H 19.829414 v 5.546872 z M 48.683564,44.062474 H 26.131494 Q 23.058579,54.374968 4.1523404,57.395799 L 1.9648417,52.968718 Q 18.34504,50.364553 20.740872,44.062474 H 2.2252583 V 39.687476 H 22.43358 q 0.651041,-2.708331 0.755207,-5.651038 H 5.5846313 V 12.864576 h 4.8177057 v 16.692698 h 34.921854 v 10.130202 h 3.359373 z M 40.532527,39.687476 V 34.036438 H 27.928368 q -0.234375,3.46354 -0.520833,5.651038 z m 8.51562,13.541659 -2.499998,4.062498 Q 37.459612,52.812469 27.667951,50.026012 l 2.552082,-4.088539 q 8.645828,2.447915 18.828114,7.291662 z"
         style="font-weight:bold;font-size:53.3333px;-inkscape-font-specification:'sans-serif Bold'"
         id="path7588" />
      <path
         d="M 99.516867,41.406225 H 81.209586 v 15.390616 h -4.89583 V 41.406225 H 58.0846 V 18.880197 h 18.229156 v -8.567703 h 4.89583 v 8.567703 H 99.516867 Z M 94.594995,36.692686 V 23.567694 H 81.209586 v 13.124992 z m -18.281239,0 V 23.567694 H 63.032514 v 13.124992 z"
         style="font-weight:bold;font-size:53.3333px;-inkscape-font-specification:'sans-serif Bold'"
         id="path7590" />
      <path
         d="m 123.83977,10.937493 q -0.83333,2.421874 -2.34375,6.041664 l -1.51042,3.567706 v 36.093728 h -4.94791 v -26.8229 q -1.53646,2.343748 -3.90625,4.973955 l -2.60416,-5.130205 q 6.71874,-7.864579 10.4427,-19.7916552 z m 29.92186,6.77083 h -28.85415 v -4.791664 h 28.85415 z m 1.43229,37.656227 h -32.26561 v -4.687497 h 32.26561 z"
         style="font-weight:bold;font-size:53.3333px;-inkscape-font-specification:'sans-serif Bold'"
         id="path7592" />
      <path
         d="M 34.71875,83.057533 H 32.6875 V 79.288002 H 4.9335937 v 3.613281 H 2.8828125 V 77.569252 H 17.6875 q -0.488281,-1.015625 -1.035156,-1.71875 l 1.914062,-0.683594 q 0.507813,0.742188 1.40625,2.402344 H 34.71875 Z m 1.484375,3.75 h -6.367188 l -0.351562,4.042969 H 7.1601562 L 7.53125,86.807533 H 1.3984375 v -1.523437 h 6.328125 L 8.15625,81.416908 h 22.246094 l -0.390625,3.867188 h 6.191406 z m -7.988281,-3.789062 h -8.125 l -0.195313,2.265625 H 28 Z M 18,83.018471 H 9.9726563 L 9.71875,85.284096 h 8.085937 z m 9.765625,3.789062 h -8.085938 l -0.195312,2.402344 h 8.085937 z m -10.15625,0 H 9.6015625 l -0.234375,2.402344 H 17.414062 Z M 31.125,104.93253 H 14.933594 l 0.878906,1.25 Q 9.2695313,109.6591 2.8828125,110.42081 L 1.6914062,108.56535 Q 8.3125,107.86222 14.25,104.93253 H 6.5351562 V 92.901283 H 31.125 Z M 29.09375,96.377846 V 94.541908 H 8.4492188 v 1.835938 z m 0,3.476562 v -1.875 H 8.4492188 v 1.875 z m 0,3.476562 v -1.875 H 8.4492188 v 1.875 z m 6.582031,5.3125 -0.78125,1.73828 q -5.195312,-1.93359 -13.28125,-2.96875 l 0.839844,-1.60156 q 8.125,1.03516 13.222656,2.83203 z"
         id="path7594" />
      <path
         d="M 74.894531,89.971596 H 58.039062 V 78.604408 h 5.039063 v -3.28125 h 1.757812 v 3.28125 h 3.320313 v -3.28125 h 1.777344 v 3.28125 h 4.960937 z m -1.816406,-6.5625 v -3.027344 h -3.144531 v 3.027344 z m -4.921875,0 v -3.027344 h -3.320313 v 3.027344 z m -5.078125,0 v -3.027344 h -3.28125 v 3.027344 z m 10,4.882812 v -3.203125 h -3.144531 v 3.203125 z m -4.921875,0 v -3.203125 h -3.320313 v 3.203125 z m -5.078125,0 v -3.203125 h -3.28125 v 3.203125 z M 56.242187,90.65519 H 54.328125 V 88.370033 H 43.644531 v 2.285157 h -1.953125 v -4.160157 h 2.070313 V 76.299721 h 11.074218 v 10.195312 h 1.40625 z m -3.320312,-9.472657 v -3.007812 h -7.285156 v 8.320312 h 2.441406 v -5.3125 z m -0.03906,5.3125 v -3.515625 h -2.910156 v 3.515625 z m 0.683594,20.957027 q 0,1.21094 -0.664062,2.03125 -0.644532,0.83985 -2.324219,0.83985 h -1.523438 l -0.566406,-1.91406 h 2.558594 q 0.175781,0 0.410156,-0.21485 0.234375,-0.21484 0.234375,-0.39062 v -5.50782 q -3.496094,1.91407 -5.410156,2.63672 l -0.546875,-0.99609 q -1.035156,4.10156 -2.617188,6.30859 l -1.582031,-0.91797 q 2.832031,-4.80468 2.832031,-10.117183 v -7.949219 h 9.199219 z m -1.875,-7.4414 v -6.914064 h -5.488281 v 2.285156 q 2.070312,0.625 4.804687,1.796875 l -0.878906,1.71875 q -1.289062,-0.625 -3.925781,-1.5625 -0.07813,3.613283 -0.351563,5.761723 2.8125,-1.21094 5.839844,-3.08594 z M 75.773437,94.483315 H 56.808594 v -1.835938 h 18.964843 z m 0.234375,14.999995 H 55.96875 v -1.875 h 6.113281 q -0.351562,-1.79687 -1.484375,-4.19921 H 58.605469 V 96.807533 H 73.800781 V 103.4091 H 71.4375 q -0.976563,2.53906 -1.71875,4.19921 h 6.289062 z m -4.199218,-7.87109 V 98.604408 H 60.636719 v 3.007812 z M 69.25,103.4091 h -6.523438 l 1.484375,4.19921 h 3.359375 Q 68.644531,105.30363 69.25,103.4091 Z"
         id="path7596" />
      <path
         d="M 115.01172,97.37394 H 93.878906 v 10.27344 q 3.808594,-0.625 7.734374,-1.95313 l 0.11719,1.875 q -4.746095,1.6211 -10.000001,2.71485 l -0.644532,-1.99219 q 0.722657,-0.56641 0.722657,-1.15235 v -9.76562 h -5.332032 q -1.425781,8.61328 -4.316406,13.08594 l -1.640625,-1.44532 q 4.375,-7.1289 4.375,-19.316402 V 76.221596 h 27.988279 v 8.632812 H 86.964844 v 4.199219 h 7.480468 v -2.753906 h 2.167969 v 2.753906 h 8.593749 v -2.753906 h 2.16797 v 2.753906 h 5.95703 v 1.953125 H 107.375 v 4.414063 h 7.63672 z M 110.67578,82.803627 V 78.213783 H 86.964844 v 4.589844 z m -5.46875,12.617188 v -4.414063 h -8.593749 v 4.414063 z m -10.761718,0 v -4.414063 h -7.519531 q 0,2.128906 -0.273437,4.414063 z m 22.597658,13.027345 -0.99609,1.97265 Q 108,108.33097 104.60156,105.40128 q -3.3789,-2.92968 -4.843748,-5.957028 l 2.050778,-0.546875 q 1.85547,3.046873 4.1211,4.921873 2.87109,-1.8164 5.27344,-4.72656 l 1.67968,1.28906 q -2.24609,2.71485 -5.07812,4.66797 3.49609,2.14844 9.23828,3.39844 z"
         id="path7598" />
      <path
         d="m 151.08594,88.174721 h -23.55469 v -11.875 h 23.55469 z m -2.08985,-1.992188 v -7.851562 h -19.35547 v 7.851562 z m 5.29297,24.062497 h -2.1289 V 107.413 h -8.90625 v 2.83203 H 141.125 V 92.725502 h 13.16406 z m -2.1289,-4.86328 V 94.815346 h -8.90625 v 10.566404 z m -15.76172,4.86328 h -2.07032 V 107.413 h -8.84765 v 2.83203 h -2.14844 V 92.725502 h 13.06641 z m -2.10938,-4.86328 V 94.815346 h -8.80859 v 10.566404 z"
         id="path7600" />
      <path
         d="m 175.48047,81.416908 h -14.16016 v -2.089843 h 6.25 q -0.52734,-1.738282 -1.60156,-3.515625 l 1.83594,-0.839844 q 1.1914,1.933594 1.95312,4.355469 h 5.72266 z m 20.48828,8.398438 h -3.88672 q -2.87109,0 -2.87109,-2.753906 v -8.613282 h -7.05078 q -0.0977,5.527344 -1.48438,8.222657 -1.36719,2.675781 -3.78906,4.21875 l -1.5625,-1.445313 q 2.38281,-1.503906 3.65234,-4.121094 1.28906,-2.636718 1.19141,-8.867187 h 11.03515 v 10 q 0,1.347656 1.32813,1.347656 h 3.4375 z m -21.5625,-2.597656 h -12.28516 v -2.011719 h 12.28516 z m -0.0391,5.878906 h -12.28516 v -2.011719 h 12.28516 z m 21.75781,15.605464 -1.19141,1.71875 q -6.07422,-2.01171 -9.375,-4.60937 -3.84765,2.73437 -9.58984,4.39453 l -1.25,-1.71875 q 6.03516,-1.77734 9.08203,-4.08203 -4.14062,-3.80859 -6.03516,-10.195313 h -1.36718 v -2.03125 h 16.75781 v 2.03125 q -2.57813,7.011723 -5.99609,10.234373 3.39843,2.44141 8.96484,4.25781 z m -5.23438,-14.492183 h -10.99609 q 2.07031,5.898433 5.625,8.886723 3.57422,-3.300785 5.37109,-8.886723 z m -17.08984,15.234373 h -2.07031 v -2.1875 h -7.2461 v 2.94922 h -2.07031 V 96.885658 h 11.38672 z m -2.07031,-4.23828 v -6.191405 h -7.2461 v 6.191405 z"
         id="path7602" />
      <path
         d="m 217.92187,82.178627 h -16.5625 v -2.089844 h 7.5586 q -0.87891,-2.03125 -2.38281,-4.277343 l 1.99218,-0.800782 q 1.32813,1.835938 2.71485,5.078125 h 6.67968 z m 18.32032,6.71875 h -7.98828 v 21.425783 h -2.16797 V 88.897377 h -7.96875 v -2.128906 h 7.96875 V 75.381752 h 2.16797 v 11.386719 h 7.98828 z m -20.35157,-0.996094 h -12.67578 v -2.011718 h 12.67578 z m 0,5.625 h -12.67578 v -1.953125 h 12.67578 z m 0,16.406247 h -2.05078 v -1.95312 h -8.55468 v 2.26562 h -2.07032 V 97.37394 h 12.67578 z m -2.05078,-4.08203 v -6.484373 h -8.55468 v 6.484373 z"
         id="path7604" />
      <path
         d="m 275.12891,90.772377 q 0,1.445313 -1.11329,2.207031 -1.11328,0.761719 -6.73828,0.585938 l -0.625,-2.070313 q 3.51563,0 4.6875,0.01953 1.17188,0.01953 1.44532,-0.351563 0.29296,-0.390625 0.29296,-0.742187 V 75.323158 h 2.05079 z M 264.25,84.288002 h -10.07813 v 2.285156 h 8.02735 v 4.394532 q 0,0.761718 -0.60547,1.445312 -0.60547,0.683594 -1.26953,0.683594 l -3.92578,0.117187 -0.625,-1.953125 q 0.83984,0.05859 1.73828,0.05859 1.85547,0 2.22656,-0.214844 0.39063,-0.214843 0.39063,-0.78125 v -1.875 h -5.95704 v 6.171875 h -2.08984 v -6.171875 h -6.34766 v 4.765625 h -2.1289 v -6.640625 h 8.47656 V 84.288002 H 241.4375 V 82.37394 h 10.64453 v -2.441407 h -6.5625 q -0.44922,0.78125 -1.19141,1.5625 l -1.91406,-0.878906 q 2.22656,-2.285156 3.35938,-5.234375 l 1.91406,0.625 q -0.625,1.367188 -1.03516,2.089844 h 5.42969 v -2.773438 h 2.08984 v 2.773438 h 8.4375 v 1.835937 h -8.4375 V 82.37394 H 264.25 Z m 4.47266,4.082031 h -2.10938 V 77.21769 h 2.10938 z m 7.48046,9.921875 h -17.98828 q -2.55859,2.382812 -5.80078,4.199222 v 5.15625 q 4.19922,-0.70313 8.32031,-1.99219 v 2.07031 q -5.82031,1.6211 -10.52734,2.44141 l -0.68359,-1.83594 q 0.80078,-0.33203 0.80078,-1.19141 v -3.39843 q -4.375,2.08984 -7.5586,2.83203 l -1.11328,-1.91406 q 7.89063,-1.91407 13.59375,-6.367192 h -13.88672 v -1.953125 h 16.9336 Q 258,95.772377 257.53125,94.971596 l 1.91406,-0.761719 q 0.48828,0.859375 1.07422,2.128906 h 15.68359 z m -0.0781,10.273442 -1.23047,1.8164 Q 264.77734,106.8466 261.4375,100.16691 l 1.85547,-0.76172 q 1.28906,2.28516 3.35937,4.16016 3.88672,-1.91407 6.23047,-4.199223 l 1.60156,1.328123 q -1.89453,1.85547 -6.11328,4.19922 2.61719,1.91406 7.75391,3.67188 z"
         id="path7606" />
      <path
         d="m 316.125,82.764565 h -12.67578 v 6.972656 h 10.91797 v 2.03125 h -10.91797 v 7.480469 h 11.67969 v 2.08984 h -11.67969 v 8.98438 h -2.12891 V 82.764565 h -3.71094 q -1.95312,4.53125 -5.68359,9.375 l -1.40625,-1.71875 q 4.94141,-6.09375 7.77344,-15.527344 l 1.875,0.800781 q -0.35156,1.328125 -1.67969,5 H 316.125 Z m -23.67188,-7.070313 q -1.26953,2.871094 -2.38281,5.195313 l -1.11328,2.207031 v 27.226564 h -2.14844 V 86.924721 q -3.41797,4.824219 -4.64843,6.132812 l -1.15235,-2.011718 q 5.70313,-6.660157 9.4336,-16.035157 z"
         id="path7608" />
      <path
         d="m 338.13672,96.495033 q -1.44531,-0.761718 -1.44531,-1.933593 0,-0.566407 0.48828,-1.152344 0.48828,-0.605469 1.38672,-0.605469 1.875,0 1.875,2.460938 0,2.011718 -2.36329,3.886718 l -0.83984,-0.644531 q 0.89844,-1.191406 0.89844,-2.011719 z"
         id="path7610" />
      <path
         d="m 395.32422,91.006752 h -2.10938 v -7.753906 h -13.41797 v 9.609375 h -2.03125 v -9.609375 h -13.47656 v 7.753906 h -2.05078 v -9.628906 h 15.52734 v -3.28125 h -14.16015 v -1.875 h 30.23437 v 1.875 h -14.04297 v 3.28125 h 15.52735 z m -3.92578,-4.628906 q -3.90625,1.113281 -8.86719,1.640625 l -1.05469,-1.835938 q 5.87891,-0.507812 9.00391,-1.445312 z m -15.46875,-0.03906 -0.76172,1.757813 q -3.88672,-1.113281 -8.73047,-1.5625 l 0.56641,-1.757813 q 4.92187,0.449219 8.92578,1.5625 z m 15.83984,4.84375 -0.83984,1.757813 q -4.29688,-1.464844 -9.31641,-2.089844 l 1.03516,-1.757812 q 4.80468,0.742187 9.12109,2.089843 z m -15.76172,-0.292968 q -5.3125,1.25 -9.3164,1.796875 l -0.64454,-1.835938 q 5.625,-0.703125 9.31641,-1.757812 z m 16.48438,19.316405 h -2.08985 v -1.67969 h -23.28125 v 1.67969 h -2.07031 V 94.580971 h 27.44141 z m -2.08985,-9.70703 v -3.925782 h -10.50781 v 3.925782 z m -12.63672,0 v -3.925782 h -10.64453 v 3.925782 z m 12.63672,6.03516 v -4.16016 h -10.50781 v 4.16016 z m -12.63672,0 v -4.16016 h -10.64453 v 4.16016 z"
         id="path7612" />
      <path
         d="m 421.08594,91.807533 q -1.26953,2.558594 -3.20313,5.039063 v 10.488284 q 0,1.75781 -1.07422,2.32422 -1.07422,0.58593 -3.75,0.58593 -1.21093,0 -2.1289,-0.0781 l -0.64453,-2.10938 q 3.32031,0.11719 4.47265,0.11719 0.3125,0 0.66406,-0.29297 0.35157,-0.29297 0.35157,-0.58594 v -7.851558 q -5.87891,5.937498 -13.57422,9.003908 l -0.83985,-1.99219 q 8.30079,-3.26172 13.92579,-9.609374 -7.61719,1.582031 -13.47657,2.246094 l -0.41015,-1.992188 q 1.8164,-0.214844 2.65625,-0.371094 V 79.053627 h 4.74609 q 0.80078,-1.484375 1.79688,-3.886719 l 1.97265,0.605469 q -0.44922,1.230469 -1.52344,3.28125 h 6.83594 v 14.355469 q 0.72266,-0.996094 1.71875,-2.871094 z m -5.3125,-7.675781 v -3.046875 h -9.57032 v 3.046875 z m 0,5.605469 V 86.12394 h -9.57032 v 3.613281 z m 0,5 v -3.046875 h -9.57032 v 4.765625 q 3.51563,-0.46875 9.57032,-1.71875 z m 20.46875,-9.121094 h -3.82813 v 21.679683 q 0,1.3086 -0.64453,2.03125 -0.64453,0.72266 -1.62109,0.85938 -0.95703,0.13672 -3.35938,0.13672 -1.05469,0 -2.65625,-0.0391 l -0.76172,-2.10938 h 5.80078 q 0.44922,0 0.83985,-0.39062 0.39062,-0.41016 0.39062,-0.85938 V 85.616127 h -10.64453 v -2.011719 h 10.64453 v -8.222656 h 2.01172 v 8.222656 h 3.82813 z m -8.51563,13.828125 -2.1289,0.839848 q -1.42579,-5.625004 -3.63282,-9.902348 l 1.75782,-0.839844 q 2.46093,4.628907 4.0039,9.902344 z"
         id="path7614" />
      <path
         d="m 457.27734,87.491127 h -8.78906 v 15.078123 q 3.53516,-1.66015 7.71484,-4.394529 l 0.60547,1.953129 q -5.54687,3.75 -10.48828,5.80078 l -0.83984,-1.95313 q 0.83984,-0.64453 0.83984,-1.67969 V 87.491127 h -4.88281 v -2.109375 h 4.88281 v -10 h 2.12891 v 10 h 8.82812 z m 18.24219,-11.269531 q 0,11.074219 -0.48828,20 -0.46875,8.925784 -1.09375,10.722654 -0.625,1.77735 -1.91406,2.5586 -1.28907,0.78125 -4.31641,0.78125 -1.13281,0 -2.38281,-0.0781 l -0.80078,-2.1875 q 1.73828,0.21484 3.28125,0.21484 2.30468,0 3.08593,-0.54687 0.80079,-0.56641 1.11329,-1.58203 0.5664,-1.9336 1.07421,-11.796877 0.3711,-6.914062 0.3711,-15.9375 h -8.32031 q -0.11719,14.140625 -1.875,19.707032 -1.73829,5.546875 -7.28516,12.578125 l -1.91406,-1.25 q 2.53906,-2.92969 5.07812,-7.12891 2.53906,-4.218747 3.26172,-10.99609 Q 463.11719,84.502846 463,78.370033 h -7.22656 v -2.148437 z"
         id="path7616" />
      <path
         d="m 502.60937,84.053627 h -1.97265 v -3.808594 h -16.23047 v 3.808594 h -2.08984 v -5.683594 h 9.49218 q -0.70312,-1.582031 -1.48437,-2.792968 l 1.99219,-0.644532 q 1.03515,1.621094 1.89453,3.4375 h 8.39843 z m 12.10938,23.164063 q 0,1.13281 -0.68359,1.95312 -0.6836,0.82032 -1.99219,0.91797 -1.28906,0.11719 -3.24219,0.11719 h -1.95312 l -0.6836,-2.07031 q 1.64063,0.11719 3.30078,0.11719 2.28516,0 2.75391,-0.33204 0.46875,-0.35156 0.46875,-1.15234 V 75.284096 h 2.03125 z m -6.60156,-4.16016 h -1.95313 V 77.178627 h 1.95313 z m -5.42969,-6.445309 h -20.64453 v -1.953125 h 9.49219 V 91.12394 h -7.89063 v -1.835938 h 7.89063 v -3.066406 q -3.02735,0.332031 -5.52735,0.390625 l -0.80078,-1.875 q 3.59375,-0.07813 6.32813,-0.410156 v -2.675782 h 1.95312 v 2.363282 q 2.53906,-0.234375 5.27344,-1.074219 l 0.8789,1.679687 q -3.02734,0.9375 -6.15234,1.347657 v 3.320312 h 7.75391 v 1.835938 h -7.75391 v 3.535156 h 9.19922 z m -1.95313,13.632809 h -2.01171 v -1.99218 h -12.48047 v 1.99218 H 484.25 V 99.541908 h 16.48437 z m -2.01171,-3.94531 v -4.80469 h -12.48047 v 4.80469 z"
         id="path7618" />
    </g>
  </g>
</svg>
