<?xml version="1.0" encoding="UTF-8" standalone="no"?>
<!-- Created with Inkscape (http://www.inkscape.org/) -->

<svg
   width="200mm"
   height="40mm"
   viewBox="0 0 200 40"
   version="1.1"
   id="svg95978"
   inkscape:version="1.1.1 (3bf5ae0d25, 2021-09-20)"
   sodipodi:docname="Process.4.pic.svg"
   xmlns:inkscape="http://www.inkscape.org/namespaces/inkscape"
   xmlns:sodipodi="http://sodipodi.sourceforge.net/DTD/sodipodi-0.dtd"
   xmlns="http://www.w3.org/2000/svg"
   xmlns:svg="http://www.w3.org/2000/svg">
  <sodipodi:namedview
     id="namedview95980"
     pagecolor="#ffffff"
     bordercolor="#666666"
     borderopacity="1.0"
     inkscape:pageshadow="2"
     inkscape:pageopacity="0.0"
     inkscape:pagecheckerboard="0"
     inkscape:document-units="mm"
     showgrid="false"
     width="275mm"
     inkscape:zoom="0.71713664"
     inkscape:cx="496.41865"
     inkscape:cy="227.29281"
     inkscape:window-width="1920"
     inkscape:window-height="991"
     inkscape:window-x="-9"
     inkscape:window-y="-9"
     inkscape:window-maximized="1"
     inkscape:current-layer="layer1"
     inkscape:showpageshadow="2"
     inkscape:deskcolor="#d1d1d1" />
  <defs
     id="defs95975">
    <rect
       x="-1.3944345"
       y="0"
       width="769.72772"
       height="167.33204"
       id="rect104247" />
  </defs>
  <g
     inkscape:label="圖層 1"
     inkscape:groupmode="layer"
     id="layer1">
    <g
       aria-label="RealityCapture 軟體建模"
       transform="matrix(0.26458333,0,0,0.26458333,0.52916667,0)"
       id="text104245"
       style="font-size:40px;line-height:1.25;white-space:pre;shape-inside:url(#rect104247);display:inline">
      <path
         d="m 26.574219,40.605469 h -5.019532 l -9.726562,-11.5625 H 6.3789062 v 11.5625 H 2.5117188 V 11.523438 H 10.65625 q 2.636719,0 4.394531,0.351562 1.757813,0.332031 3.164063,1.210938 1.582031,0.996093 2.460937,2.519531 0.898438,1.503906 0.898438,3.828125 0,3.144531 -1.582032,5.273437 -1.582031,2.109375 -4.355468,3.183594 z M 17.53125,19.707031 q 0,-1.25 -0.449219,-2.207031 -0.429687,-0.976563 -1.445312,-1.640625 -0.839844,-0.566406 -1.992188,-0.78125 Q 12.492188,14.84375 10.929688,14.84375 H 6.3789062 v 10.976562 h 3.9062498 q 1.835938,0 3.203125,-0.3125 1.367188,-0.332031 2.324219,-1.210937 0.878906,-0.820313 1.289062,-1.875 0.429688,-1.074219 0.429688,-2.714844 z"
         id="path5438" />
      <path
         d="M 47.316406,30.078125 H 31.242187 q 0,2.011719 0.605469,3.515625 0.605469,1.484375 1.660156,2.441406 1.015625,0.9375 2.402344,1.40625 1.40625,0.46875 3.085938,0.46875 2.226562,0 4.472656,-0.878906 2.265625,-0.898438 3.222656,-1.757813 h 0.195313 v 4.003907 q -1.855469,0.78125 -3.789063,1.308593 -1.933594,0.527344 -4.0625,0.527344 -5.429687,0 -8.476562,-2.929687 -3.046875,-2.949219 -3.046875,-8.359375 0,-5.351563 2.910156,-8.496094 2.929687,-3.144531 7.695312,-3.144531 4.414063,0 6.796875,2.578125 2.402344,2.578125 2.402344,7.324218 z m -3.574219,-2.8125 q -0.01953,-2.890625 -1.464843,-4.472656 -1.425782,-1.582032 -4.355469,-1.582032 -2.949219,0 -4.707031,1.738282 -1.738282,1.738281 -1.972657,4.316406 z"
         id="path5440" />
      <path
         d="M 69.835937,40.605469 H 66.183594 V 38.28125 q -0.488282,0.332031 -1.328125,0.9375 -0.820313,0.585937 -1.601563,0.9375 -0.917969,0.449219 -2.109375,0.742187 -1.191406,0.3125 -2.792969,0.3125 -2.949218,0 -5,-1.953125 -2.050781,-1.953125 -2.050781,-4.980468 0,-2.480469 1.054688,-4.003907 1.074218,-1.542968 3.046875,-2.421875 1.992187,-0.878906 4.785156,-1.191406 2.792969,-0.3125 5.996094,-0.46875 V 25.625 q 0,-1.25 -0.449219,-2.070313 -0.429688,-0.820312 -1.25,-1.289062 -0.78125,-0.449219 -1.875,-0.605469 -1.09375,-0.15625 -2.285156,-0.15625 -1.445313,0 -3.222657,0.390625 -1.777343,0.371094 -3.671875,1.09375 h -0.195312 v -3.730469 q 1.074219,-0.292968 3.105469,-0.644531 2.03125,-0.351562 4.003906,-0.351562 2.304687,0 4.003906,0.390625 1.71875,0.371093 2.96875,1.289062 1.230469,0.898438 1.875,2.324219 0.644531,1.425781 0.644531,3.535156 z m -3.652343,-5.371094 v -6.074219 q -1.679688,0.09766 -3.964844,0.292969 -2.265625,0.195312 -3.59375,0.566406 -1.582031,0.449219 -2.558594,1.40625 -0.976562,0.9375 -0.976562,2.597656 0,1.875 1.132812,2.832032 1.132813,0.9375 3.457031,0.9375 1.933594,0 3.535157,-0.742188 1.601562,-0.761719 2.96875,-1.816406 z"
         id="path5442" />
      <path
         d="M 80.617187,40.605469 H 76.945312 V 10.214844 h 3.671875 z"
         id="path5444" />
      <path
         d="M 91.828125,15.136719 H 87.6875 v -3.808594 h 4.140625 z M 91.59375,40.605469 H 87.921875 V 18.789062 h 3.671875 z"
         id="path5446" />
      <path
         d="m 110.1875,40.410156 q -1.03516,0.273438 -2.26562,0.449219 -1.21094,0.175781 -2.16797,0.175781 -3.33985,0 -5.07813,-1.796875 Q 98.9375,37.441406 98.9375,33.476562 V 21.875 H 96.457031 V 18.789062 H 98.9375 v -6.269531 h 3.67188 v 6.269531 h 7.57812 V 21.875 h -7.57812 v 9.941406 q 0,1.71875 0.0781,2.695313 0.0781,0.957031 0.54688,1.796875 0.42968,0.78125 1.17187,1.152343 0.76172,0.351563 2.30469,0.351563 0.89844,0 1.875,-0.253906 0.97656,-0.273438 1.40625,-0.449219 h 0.19531 z"
         id="path5448" />
      <path
         d="m 133.29297,18.789062 -12.73438,29.863282 h -3.92578 l 4.0625,-9.101563 -8.6914,-20.761719 h 3.98437 l 6.69922,16.171875 6.75781,-16.171875 z"
         id="path5450" />
      <path
         d="m 160.85156,38.496094 q -1.07422,0.46875 -1.95312,0.878906 -0.85938,0.410156 -2.26563,0.859375 -1.1914,0.371094 -2.59765,0.625 -1.38672,0.273437 -3.06641,0.273437 -3.16406,0 -5.76172,-0.878906 -2.57812,-0.898437 -4.49219,-2.792969 -1.875,-1.855468 -2.92968,-4.707031 -1.05469,-2.871094 -1.05469,-6.660156 0,-3.59375 1.01562,-6.425781 1.01563,-2.832032 2.92969,-4.785156 1.85547,-1.894532 4.47266,-2.890625 2.63672,-0.996094 5.83984,-0.996094 2.34375,0 4.66797,0.566406 2.34375,0.566406 5.19531,1.992188 v 4.589843 h -0.29297 q -2.40234,-2.011719 -4.76562,-2.929687 -2.36328,-0.917969 -5.0586,-0.917969 -2.20703,0 -3.98437,0.722656 -1.75781,0.703125 -3.14453,2.207031 -1.34766,1.464844 -2.10938,3.710938 -0.74218,2.226562 -0.74218,5.15625 0,3.066406 0.82031,5.273437 0.83984,2.207032 2.14844,3.59375 1.36718,1.445313 3.18359,2.148438 1.83594,0.683594 3.86719,0.683594 2.79297,0 5.23437,-0.957032 2.44141,-0.957031 4.57031,-2.871093 h 0.27344 z"
         id="path5452" />
      <path
         d="m 182.98047,40.605469 h -3.65235 V 38.28125 q -0.48828,0.332031 -1.32812,0.9375 -0.82031,0.585937 -1.60156,0.9375 -0.91797,0.449219 -2.10938,0.742187 -1.1914,0.3125 -2.79297,0.3125 -2.94922,0 -5,-1.953125 -2.05078,-1.953125 -2.05078,-4.980468 0,-2.480469 1.05469,-4.003907 1.07422,-1.542968 3.04687,-2.421875 1.99219,-0.878906 4.78516,-1.191406 2.79297,-0.3125 5.99609,-0.46875 V 25.625 q 0,-1.25 -0.44921,-2.070313 -0.42969,-0.820312 -1.25,-1.289062 -0.78125,-0.449219 -1.875,-0.605469 -1.09375,-0.15625 -2.28516,-0.15625 -1.44531,0 -3.22266,0.390625 -1.77734,0.371094 -3.67187,1.09375 h -0.19531 v -3.730469 q 1.07421,-0.292968 3.10546,-0.644531 2.03125,-0.351562 4.00391,-0.351562 2.30469,0 4.00391,0.390625 1.71875,0.371093 2.96875,1.289062 1.23047,0.898438 1.875,2.324219 0.64453,1.425781 0.64453,3.535156 z m -3.65235,-5.371094 v -6.074219 q -1.67968,0.09766 -3.96484,0.292969 -2.26562,0.195312 -3.59375,0.566406 -1.58203,0.449219 -2.55859,1.40625 -0.97657,0.9375 -0.97657,2.597656 0,1.875 1.13282,2.832032 1.13281,0.9375 3.45703,0.9375 1.93359,0 3.53515,-0.742188 1.60157,-0.761719 2.96875,-1.816406 z"
         id="path5454" />
      <path
         d="m 209.25,29.433594 q 0,2.65625 -0.76172,4.863281 -0.76172,2.1875 -2.14844,3.710937 -1.28906,1.445313 -3.04687,2.246094 -1.73828,0.78125 -3.69141,0.78125 -1.69922,0 -3.08594,-0.371094 -1.36718,-0.371093 -2.79296,-1.152343 v 9.140625 h -3.67188 V 18.789062 h 3.67188 v 2.285157 q 1.46484,-1.230469 3.28125,-2.050782 1.83593,-0.839843 3.90625,-0.839843 3.94531,0 6.13281,2.988281 2.20703,2.96875 2.20703,8.261719 z m -3.78906,0.09766 q 0,-3.945313 -1.34766,-5.898438 -1.34766,-1.953125 -4.14062,-1.953125 -1.58204,0 -3.1836,0.683594 -1.60156,0.683594 -3.0664,1.796875 v 12.363281 q 1.5625,0.703125 2.67578,0.957032 1.13281,0.253906 2.55859,0.253906 3.06641,0 4.78516,-2.070313 1.71875,-2.070312 1.71875,-6.132812 z"
         id="path5456" />
      <path
         d="m 226.30078,40.410156 q -1.03516,0.273438 -2.26562,0.449219 -1.21094,0.175781 -2.16797,0.175781 -3.33985,0 -5.07813,-1.796875 -1.73828,-1.796875 -1.73828,-5.761719 V 21.875 h -2.48047 v -3.085938 h 2.48047 v -6.269531 h 3.67188 v 6.269531 h 7.57812 V 21.875 h -7.57812 v 9.941406 q 0,1.71875 0.0781,2.695313 0.0781,0.957031 0.54688,1.796875 0.42968,0.78125 1.17187,1.152343 0.76172,0.351563 2.30469,0.351563 0.89844,0 1.875,-0.253906 0.97656,-0.273438 1.40625,-0.449219 h 0.19531 z"
         id="path5458" />
      <path
         d="m 248.82031,40.605469 h -3.67187 v -2.421875 q -1.85547,1.464843 -3.55469,2.246093 -1.69922,0.78125 -3.75,0.78125 -3.4375,0 -5.35156,-2.089843 -1.91407,-2.109375 -1.91407,-6.171875 V 18.789062 H 234.25 v 12.421875 q 0,1.660157 0.15625,2.851563 0.15625,1.171875 0.66406,2.011719 0.52735,0.859375 1.36719,1.25 0.83984,0.390625 2.44141,0.390625 1.42578,0 3.10546,-0.742188 1.69922,-0.742187 3.16407,-1.894531 V 18.789062 h 3.67187 z"
         id="path5460" />
      <path
         d="m 269.66016,22.792969 h -0.19532 q -0.82031,-0.195313 -1.60156,-0.273438 -0.76172,-0.09766 -1.81641,-0.09766 -1.69921,0 -3.28125,0.761719 -1.58203,0.742187 -3.04687,1.933593 v 15.488282 h -3.67188 V 18.789062 h 3.67188 v 3.222657 q 2.1875,-1.757813 3.84766,-2.480469 1.67968,-0.742188 3.41796,-0.742188 0.95704,0 1.38672,0.05859 0.42969,0.03906 1.28907,0.175781 z"
         id="path5462" />
      <path
         d="m 291.37891,30.078125 h -16.07422 q 0,2.011719 0.60547,3.515625 0.60546,1.484375 1.66015,2.441406 1.01563,0.9375 2.40235,1.40625 1.40625,0.46875 3.08593,0.46875 2.22657,0 4.47266,-0.878906 2.26562,-0.898438 3.22266,-1.757813 h 0.19531 v 4.003907 q -1.85547,0.78125 -3.78906,1.308593 -1.9336,0.527344 -4.0625,0.527344 -5.42969,0 -8.47657,-2.929687 -3.04687,-2.949219 -3.04687,-8.359375 0,-5.351563 2.91015,-8.496094 2.92969,-3.144531 7.69532,-3.144531 4.41406,0 6.79687,2.578125 2.40235,2.578125 2.40235,7.324218 z m -3.57422,-2.8125 q -0.0195,-2.890625 -1.46485,-4.472656 -1.42578,-1.582032 -4.35547,-1.582032 -2.94921,0 -4.70703,1.738282 -1.73828,1.738281 -1.97265,4.316406 z"
         id="path5464" />
      <path
         d="m 343.99609,14.316406 q -0.91797,7.1875 -3.16406,11.132813 l -1.64062,-1.25 q 1.69921,-3.4375 2.40234,-7.871094 h -9.04297 q -1.75781,4.277344 -3.75,6.835937 l -1.60156,-1.367187 q 3.78906,-4.785156 5.46875,-14.3554688 l 1.97265,0.6054688 q -0.35156,2.851563 -1.44531,6.269531 z m -16.44531,-1.386718 h -7.51953 v 3.398437 h 6.03516 v 15.3125 h -6.03516 v 3.4375 h 7.08984 v 1.933594 h -7.08984 v 5.625 H 318 v -5.625 h -7.8125 V 35.078125 H 318 v -3.4375 h -6.17188 v -15.3125 H 318 v -3.398437 h -7.40234 V 10.878906 H 318 V 7.5585937 h 2.03125 v 3.3203123 h 7.51953 z m -3.47656,9.882812 v -4.492188 h -4.04297 V 22.8125 Z m -6.07422,0 v -4.492188 h -4.12109 V 22.8125 Z m 6.07422,6.796875 v -4.84375 h -4.04297 v 4.84375 z m -6.07422,0 v -4.84375 h -4.12109 v 4.84375 z m 26.875,11.601562 -1.48438,1.523438 q -6.8164,-5.605469 -8.47656,-12.96875 -1.66015,7.226562 -8.67187,13.046875 l -1.5625,-1.523438 q 5.07812,-4.179687 7.1875,-8.90625 2.1289,-4.726562 2.1289,-12.773437 h 2.10938 q -0.11719,2.539062 -0.11719,3.867187 0,4.902344 2.28516,9.628907 2.28515,4.707031 6.60156,8.105468 z"
         id="path5466" />
      <path
         d="M 383.68359,22.324219 H 366.82812 V 10.957031 h 5.03907 V 7.6757812 h 1.75781 v 3.2812498 h 3.32031 V 7.6757812 h 1.77735 v 3.2812498 h 4.96093 z m -1.8164,-6.5625 v -3.027344 h -3.14453 v 3.027344 z m -4.92188,0 V 12.734375 H 373.625 v 3.027344 z m -5.07812,0 v -3.027344 h -3.28125 v 3.027344 z m 10,4.882812 v -3.203125 h -3.14453 v 3.203125 z m -4.92188,0 V 17.441406 H 373.625 v 3.203125 z m -5.07812,0 v -3.203125 h -3.28125 v 3.203125 z m -6.83594,2.363281 h -1.91406 v -2.285156 h -10.6836 v 2.285156 h -1.95312 v -4.160156 h 2.07031 V 8.6523438 H 363.625 V 18.847656 h 1.40625 z m -3.32031,-9.472656 v -3.007812 h -7.28516 v 8.320312 h 2.44141 v -5.3125 z m -0.0391,5.3125 v -3.515625 h -2.91015 v 3.515625 z m 0.6836,20.957031 q 0,1.210938 -0.66406,2.03125 -0.64454,0.839844 -2.32422,0.839844 h -1.52344 l -0.56641,-1.914062 h 2.5586 q 0.17578,0 0.41015,-0.214844 0.23438,-0.214844 0.23438,-0.390625 v -5.507813 q -3.4961,1.914063 -5.41016,2.636719 l -0.54687,-0.996094 q -1.03516,4.101563 -2.61719,6.308594 l -1.58203,-0.917969 Q 353.15625,36.875 353.15625,31.5625 v -7.949219 h 9.19922 z m -1.875,-7.441406 v -6.914062 h -5.48828 v 2.285156 q 2.07031,0.625 4.80468,1.796875 l -0.8789,1.71875 q -1.28906,-0.625 -3.92578,-1.5625 -0.0781,3.613281 -0.35157,5.761719 2.8125,-1.210938 5.83985,-3.085938 z M 384.5625,26.835937 H 365.59766 V 25 h 18.96484 z m 0.23437,15 h -20.03906 v -1.875 h 6.11328 q -0.35156,-1.796875 -1.48437,-4.199218 h -1.99219 v -6.601563 h 15.19531 v 6.601563 h -2.36328 q -0.97656,2.539062 -1.71875,4.199218 h 6.28906 z m -4.19921,-7.871093 v -3.007813 h -11.17188 v 3.007813 z m -2.5586,1.796875 h -6.52344 L 373,39.960937 h 3.35937 q 1.07422,-2.304687 1.67969,-4.199218 z"
         id="path5468" />
      <path
         d="m 424.64062,18.359375 h -2.85156 v 5.683594 h -9.12109 v 3.320312 h 9.92187 v 1.953125 h -9.92187 v 3.28125 h 11.28906 v 1.972656 h -11.28906 v 3.964844 h -1.99219 v -3.964844 h -9.92187 v -1.972656 h 9.92187 v -3.28125 h -8.39844 v -1.953125 h 8.39844 v -3.320312 h -7.63672 v -1.992188 h 7.63672 v -3.691406 h -9.88281 v -2.03125 h 9.88281 v -3.476562 h -7.59766 v -1.972657 h 7.59766 V 7.890625 h 1.99219 v 2.988281 h 9.12109 v 5.449219 h 2.85156 z m -4.88281,-2.03125 v -3.398437 h -7.08984 v 3.398437 z m 0,5.722656 v -3.691406 h -7.08984 v 3.691406 z m 5.19531,17.988281 -0.48828,2.128907 q -3.61328,0.09766 -6.875,0.09766 -7.05078,0 -10.05859,-0.371094 -2.98828,-0.351562 -5.91797,-1.367187 -2.91016,-1.035157 -5.17578,-3.359375 -2.85156,3.59375 -5.41016,5.605468 l -1.42578,-1.640625 q 2.98828,-2.34375 5.3125,-5.527343 -2.22656,-3.007813 -3.75,-7.871094 l 1.875,-0.761719 q 1.13281,4.238281 2.98828,6.679688 2.10938,-4.375 2.36328,-10.253907 h -7.40234 v -1.875 q 3.71094,-4.667968 7.40234,-10.761718 H 390.1875 V 8.7695313 h 10.44922 v 1.9921877 q -3.65235,6.152343 -7.01172,10.605468 h 6.93359 q -0.39062,8.828125 -3.08593,14.003907 1.89453,1.933593 4.25781,3.027343 2.38281,1.09375 5.07812,1.445313 2.69532,0.332031 10.625,0.332031 3.94532,0 7.51953,-0.136719 z"
         id="path5470" />
      <path
         d="m 464.75781,12.851563 h -5.72265 v 2.265625 h -1.99219 v -2.265625 h -2.96875 v -1.894532 h 2.96875 V 7.6367187 h 1.99219 v 3.3203123 h 5.72265 z m -12.20703,0 h -2.63672 v 2.265625 h -2.1289 v -2.265625 h -5.87891 v -1.894532 h 5.87891 V 7.6367187 h 2.1289 v 3.3203123 h 2.63672 z m -9.96094,12.480468 -1.5625,1.308594 q -1.89453,-3.300781 -2.98828,-4.746094 v 20.839844 h -2.05078 V 23.007812 q -1.99219,4.84375 -4.66797,8.710938 l -1.40625,-1.5625 Q 433.54687,25 435.94922,17.890625 h -5.42969 v -1.972656 h 5.46875 V 7.6367187 h 2.05078 v 8.2812503 h 4.00391 v 1.972656 h -4.00391 v 0.878906 q 2.65625,3.28125 4.55078,6.5625 z m 21.97266,9.082031 h -11.48438 q -1.69921,6.347657 -10.8789,8.320313 l -1.17188,-1.855469 q 8.125,-1.464844 9.96094,-6.464844 h -9.55078 v -1.933593 h 10 q 0.39062,-2.167969 0.39062,-3.476563 H 444.5625 V 16.640625 h 17.63672 v 12.363281 h -8.28125 q -0.0586,1.484375 -0.3711,3.476563 h 11.01563 z m -4.33594,-12.65625 v -3.222656 h -13.71094 v 3.222656 z m 0,5.371094 v -3.515625 h -13.71094 v 3.515625 z m 4.84375,13.867188 -1.26953,1.640625 q -3.65234,-2.675782 -9.41406,-5.351563 l 1.32812,-1.601562 q 5.23438,2.421875 9.35547,5.3125 z"
         id="path5472" />
    </g>
  </g>
</svg>
