<?xml version="1.0" encoding="UTF-8" standalone="no"?>
<!-- Created with Inkscape (http://www.inkscape.org/) -->

<svg
   width="200mm"
   height="40mm"
   viewBox="0 0 200 40"
   version="1.1"
   id="svg95978"
   inkscape:version="1.1.1 (3bf5ae0d25, 2021-09-20)"
   sodipodi:docname="Process.6.pic.svg"
   xmlns:inkscape="http://www.inkscape.org/namespaces/inkscape"
   xmlns:sodipodi="http://sodipodi.sourceforge.net/DTD/sodipodi-0.dtd"
   xmlns="http://www.w3.org/2000/svg"
   xmlns:svg="http://www.w3.org/2000/svg">
  <sodipodi:namedview
     id="namedview95980"
     pagecolor="#ffffff"
     bordercolor="#666666"
     borderopacity="1.0"
     inkscape:pageshadow="2"
     inkscape:pageopacity="0.0"
     inkscape:pagecheckerboard="0"
     inkscape:document-units="mm"
     showgrid="false"
     width="275mm"
     inkscape:zoom="0.71713664"
     inkscape:cx="496.41865"
     inkscape:cy="115.73806"
     inkscape:window-width="1920"
     inkscape:window-height="991"
     inkscape:window-x="-9"
     inkscape:window-y="-9"
     inkscape:window-maximized="1"
     inkscape:current-layer="layer1"
     inkscape:showpageshadow="2"
     inkscape:deskcolor="#d1d1d1" />
  <defs
     id="defs95975">
    <rect
       x="-1.3944345"
       y="0"
       width="750.20564"
       height="164.54317"
       id="rect104247" />
  </defs>
  <g
     inkscape:label="圖層 1"
     inkscape:groupmode="layer"
     id="layer1">
    <g
       aria-label="以Three.js程式庫為基礎架設網站，並將網頁發布於Github page
"
       transform="matrix(0.26458333,0,0,0.26458333,0.52916667,0)"
       id="text104245"
       style="font-size:40px;line-height:1.25;white-space:pre;shape-inside:url(#rect104247);display:inline">
      <path
         d="m 35.890625,41.328125 -1.601563,1.445312 q -2.636718,-4.0625 -7.890625,-9.570312 -3.554687,4.84375 -11.308593,9.726562 l -1.5625,-1.71875 Q 19.035156,38.203125 23,33.945312 26.964844,29.667969 28.371094,23.75 29.796875,17.8125 30.011719,7.4804687 h 2.226562 Q 31.808594,24.921875 27.570312,31.40625 q 5.78125,6.210937 8.320313,9.921875 z M 18.644531,30.488281 Q 7.9023437,38.085937 1.8476562,40.957031 l -0.8398437,-1.914062 3.75,-2.03125 V 8.0078125 H 6.8867187 V 35.722656 Q 11.066406,33.4375 18.410156,28.203125 Z m 3.554688,-9.355469 -1.914063,0.996094 Q 17.707031,16.953125 12.6875,11.132813 l 2.03125,-0.976563 q 5.507812,6.738281 7.480469,10.976562 z"
         id="path18964" />
      <path
         d="M 63.253906,14.960938 H 52.863281 V 40.605469 H 48.996094 V 14.960938 H 38.605469 v -3.4375 h 24.648437 z"
         id="path18966" />
      <path
         d="M 85.109375,40.605469 H 81.4375 V 28.183594 q 0,-1.503907 -0.175781,-2.8125 -0.175782,-1.328125 -0.644532,-2.070313 -0.488281,-0.820312 -1.40625,-1.210937 -0.917968,-0.410157 -2.382812,-0.410157 -1.503906,0 -3.144531,0.742188 -1.640625,0.742187 -3.144532,1.894531 V 40.605469 H 66.867187 V 10.214844 h 3.671875 v 10.996093 q 1.71875,-1.425781 3.554688,-2.226562 1.835937,-0.800781 3.769531,-0.800781 3.535156,0 5.390625,2.128906 1.855469,2.128906 1.855469,6.132812 z"
         id="path18968" />
      <path
         d="m 105.79297,22.792969 h -0.19531 q -0.82032,-0.195313 -1.60157,-0.273438 -0.76171,-0.09766 -1.8164,-0.09766 -1.69922,0 -3.281253,0.761719 -1.582031,0.742187 -3.046875,1.933593 V 40.605469 H 92.179687 V 18.789062 h 3.671875 v 3.222657 q 2.1875,-1.757813 3.847657,-2.480469 1.679691,-0.742188 3.417971,-0.742188 0.95703,0 1.38672,0.05859 0.42968,0.03906 1.28906,0.175781 z"
         id="path18970" />
      <path
         d="M 127.51172,30.078125 H 111.4375 q 0,2.011719 0.60547,3.515625 0.60547,1.484375 1.66016,2.441406 1.01562,0.9375 2.40234,1.40625 1.40625,0.46875 3.08594,0.46875 2.22656,0 4.47265,-0.878906 2.26563,-0.898438 3.22266,-1.757813 h 0.19531 v 4.003907 q -1.85547,0.78125 -3.78906,1.308593 -1.93359,0.527344 -4.0625,0.527344 -5.42969,0 -8.47656,-2.929687 -3.04688,-2.949219 -3.04688,-8.359375 0,-5.351563 2.91016,-8.496094 2.92969,-3.144531 7.69531,-3.144531 4.41406,0 6.79688,2.578125 2.40234,2.578125 2.40234,7.324218 z m -3.57422,-2.8125 q -0.0195,-2.890625 -1.46484,-4.472656 -1.42578,-1.582032 -4.35547,-1.582032 -2.94922,0 -4.70703,1.738282 -1.73828,1.738281 -1.97266,4.316406 z"
         id="path18972" />
      <path
         d="m 151.33984,30.078125 h -16.07422 q 0,2.011719 0.60547,3.515625 0.60547,1.484375 1.66016,2.441406 1.01562,0.9375 2.40234,1.40625 1.40625,0.46875 3.08594,0.46875 2.22656,0 4.47266,-0.878906 2.26562,-0.898438 3.22265,-1.757813 h 0.19532 v 4.003907 q -1.85547,0.78125 -3.78907,1.308593 -1.93359,0.527344 -4.0625,0.527344 -5.42968,0 -8.47656,-2.929687 -3.04687,-2.949219 -3.04687,-8.359375 0,-5.351563 2.91015,-8.496094 2.92969,-3.144531 7.69531,-3.144531 4.41407,0 6.79688,2.578125 2.40234,2.578125 2.40234,7.324218 z m -3.57422,-2.8125 q -0.0195,-2.890625 -1.46484,-4.472656 -1.42578,-1.582032 -4.35547,-1.582032 -2.94922,0 -4.70703,1.738282 -1.73828,1.738281 -1.97266,4.316406 z"
         id="path18974" />
      <path
         d="m 162.90234,40.605469 h -4.66797 v -5.566407 h 4.66797 z"
         id="path18976" />
      <path
         d="m 178.25391,15.136719 h -4.14063 v -3.808594 h 4.14063 z m -0.23438,25.996093 q 0,3.828125 -1.95312,5.78125 -1.95313,1.953125 -5.23438,1.953125 -0.78125,0 -2.07031,-0.15625 -1.26953,-0.15625 -2.12891,-0.390625 v -3.496093 h 0.19531 q 0.54688,0.214843 1.46485,0.488281 0.9375,0.273437 1.8164,0.273437 1.40625,0 2.26563,-0.390625 0.85937,-0.390625 1.28906,-1.171875 0.42969,-0.78125 0.54688,-1.894531 0.13672,-1.09375 0.13672,-2.675781 V 21.875 h -4.55079 v -3.085938 h 8.22266 z"
         id="path18978" />
      <path
         d="m 200.8125,34.316406 q 0,2.988281 -2.48047,4.902344 -2.46094,1.914062 -6.73828,1.914062 -2.42188,0 -4.45313,-0.566406 -2.01171,-0.585937 -3.3789,-1.269531 v -4.121094 h 0.19531 q 1.73828,1.308594 3.86719,2.089844 2.1289,0.761719 4.08203,0.761719 2.42187,0 3.78906,-0.78125 1.36719,-0.78125 1.36719,-2.460938 0,-1.289062 -0.74219,-1.953125 -0.74219,-0.664062 -2.85156,-1.132812 -0.78125,-0.175782 -2.05078,-0.410157 -1.25,-0.234375 -2.28516,-0.507812 -2.87109,-0.761719 -4.08203,-2.226563 -1.19141,-1.484375 -1.19141,-3.632812 0,-1.347656 0.54688,-2.539063 0.56641,-1.191406 1.69922,-2.128906 1.09375,-0.917969 2.77344,-1.445312 1.69921,-0.546875 3.78906,-0.546875 1.95312,0 3.94531,0.488281 2.01172,0.46875 3.33984,1.152344 v 3.925781 h -0.19531 q -1.40625,-1.035156 -3.41797,-1.738281 -2.01172,-0.722657 -3.94531,-0.722657 -2.01172,0 -3.39844,0.78125 -1.38672,0.761719 -1.38672,2.285157 0,1.347656 0.83985,2.03125 0.82031,0.683593 2.65625,1.113281 1.01562,0.234375 2.26562,0.46875 1.26953,0.234375 2.10938,0.429687 2.55859,0.585938 3.94531,2.011719 1.38672,1.445313 1.38672,3.828125 z"
         id="path18980" />
      <path
         d="m 218.78125,27.519531 -1.44531,1.601563 q -1.44532,-2.695313 -3.4375,-5 v 18.515625 h -2.08985 v -18.59375 q -2.83203,6.367187 -5.39062,9.882812 l -1.40625,-1.640625 q 3.92578,-5.449219 6.67969,-12.792969 h -6.48438 v -2.011718 h 6.60156 V 11.5625 l -4.88281,0.917969 -1.07422,-1.992188 q 6.99219,-0.8203122 11.5625,-2.753906 l 1.23047,1.8359375 q -2.92969,0.9960935 -4.74609,1.5234375 v 6.386719 h 4.74609 v 2.011718 h -4.74609 v 1.640625 q 3.65234,4.0625 4.88281,6.386719 z m 18.63281,-7.753906 H 220.24609 V 8.8476563 h 17.16797 z m -2.1289,-2.03125 V 10.839844 H 222.375 v 6.894531 z m 4.6875,23.945312 h -22.51954 v -1.953125 h 10.27344 v -6.113281 h -8.86719 v -2.011719 h 8.86719 v -5.800781 q -6.40625,0.410156 -7.91015,0.449219 l -0.95704,-2.050781 q 11.03516,-0.195313 19.04297,-2.109375 l 1.34766,1.796875 q -4.02344,0.9375 -9.39453,1.679687 v 6.035156 h 8.59375 v 2.011719 h -8.59375 v 6.113281 h 10.11719 z"
         id="path18982" />
      <path
         d="m 279.97266,34.042969 q -1.77735,9.003906 -5.11719,9.003906 -0.78125,0 -1.5625,-0.507813 -0.76172,-0.488281 -2.12891,-2.441406 -1.36719,-1.953125 -2.46094,-4.824219 -1.09375,-2.890625 -1.64062,-8.164062 -0.52734,-5.292969 -0.76172,-10.507813 H 245.38281 V 14.453125 H 266.125 Q 265.96875,10 266.00781,7.5585937 h 2.08985 q 0,4.7460943 0.11718,6.8945313 h 11.64063 v 2.148437 h -11.5625 q 0.15625,4.160157 0.99609,11.191407 0.83985,7.03125 2.85156,10.078125 2.03125,3.027343 2.73438,3.027343 0.97656,0 1.89453,-2.851562 0.9375,-2.871094 1.17188,-5.117188 z m -1.875,-21.523438 -1.75782,1.210938 q -2.26562,-2.675781 -4.49218,-4.2382815 L 273.56641,8.125 q 2.01171,1.328125 4.53125,4.394531 z m -12.92969,23.085938 q -9.70703,2.460937 -18.24219,4.003906 l -0.50781,-2.089844 q 3.24219,-0.527344 8.20312,-1.464844 V 24.453125 h -7.08984 v -2.167969 h 16.52344 v 2.167969 h -7.40235 v 11.113281 q 4.6875,-0.996094 8.51563,-2.03125 z"
         id="path18984" />
      <path
         d="m 319.93359,13.164063 h -29.0039 v 6.152343 q 0,15.332031 -4.23828,23.613281 l -1.875,-1.328125 q 1.62109,-2.714843 2.8125,-7.617187 1.1914,-4.902344 1.1914,-14.941406 V 11.40625 h 15.11719 q -0.41016,-1.015625 -1.52344,-3.2421875 l 1.79688,-0.7617188 q 0.82031,1.2890626 1.95312,4.0039063 h 13.76953 z m 0.11719,24.921874 h -13.08594 v 4.472657 h -2.03125 v -4.472657 h -13.20312 v -1.796875 h 13.20312 v -2.8125 H 294.32812 V 21.71875 h 10.60547 V 18.691406 H 292.6875 v -1.757812 h 12.24609 v -2.441406 h 2.03125 v 2.441406 h 12.16797 v 1.757812 h -12.16797 v 3.027344 h 10.3711 v 11.757812 h -10.3711 v 2.8125 h 13.08594 z m -4.66797,-11.40625 v -3.203125 h -8.41797 v 3.203125 z m -10.44922,0 v -3.203125 h -8.55468 v 3.203125 z m 10.44922,5.039063 V 28.4375 h -8.41797 v 3.28125 z m -10.44922,0 V 28.4375 h -8.55468 v 3.28125 z"
         id="path18986" />
      <path
         d="m 359.13281,27.285156 q 0,3.867188 -0.42969,7.539063 -0.41015,3.671875 -0.82031,4.746093 -0.41015,1.074219 -1.1914,1.796875 -0.76172,0.742188 -2.08985,1.09375 -1.32812,0.351563 -4.21875,0.351563 l -0.80078,-2.285156 q 0.89844,0.07813 3.71094,0.07813 0.97656,0 1.67969,-0.429688 0.70312,-0.449219 0.99609,-1.230469 0.29297,-0.800781 0.64453,-3.339843 0.35156,-2.539063 0.44922,-6.289063 h -24.57031 q -2.8125,3.359375 -6.26953,6.210938 l -1.21094,-1.953125 q 9.29687,-7.382813 12.20703,-18.046875 H 326.57422 V 13.4375 h 11.11328 q 0.89844,-3.9648437 1.17187,-5.9960938 l 2.03125,0.4492188 q -0.29296,2.207031 -1.03515,5.546875 h 14.72656 q -0.58594,3.378906 -1.40625,6.972656 h 3.96484 q -0.37109,3.222656 -1.21093,6.875 z m -7.03125,-11.757812 h -12.73437 q -0.60547,2.285156 -1.64063,4.882812 h 13.28125 q 0.52735,-2.089844 1.09375,-4.882812 z m 2.5586,6.914062 h -17.8125 q -1.01563,2.148438 -2.83204,4.84375 h 19.76563 q 0.54687,-2.695312 0.87891,-4.84375 z m -19.80469,-10.800781 -1.83594,1.132813 q -1.34766,-2.03125 -3.35937,-4.1210942 l 1.79687,-1.1328126 q 1.95313,1.9726563 3.39844,4.1210938 z m 18.92578,25.566406 -1.89453,0.878906 Q 351.04687,35.292969 349.25,31.972656 l 1.79687,-0.878906 q 1.52344,2.636719 2.73438,6.113281 z m -5.72266,2.207031 -2.05078,0.742188 q -0.68359,-4.121094 -2.1875,-7.871094 l 1.91406,-0.644531 q 1.3086,3.417969 2.32422,7.773437 z m -6.36718,2.109375 -2.20704,0.410157 q 0.15625,-3.984375 -1.03515,-9.570313 l 1.97265,-0.429687 q 0.9375,4.21875 1.26954,9.589843 z m -5.80079,-9.082031 q -1.67968,5.585938 -4.27734,9.648438 l -1.91406,-1.035157 q 2.48047,-3.652343 4.3164,-9.121093 z"
         id="path18988" />
      <path
         d="M 400.12891,34.316406 398.97656,36.25 q -7.63672,-3.007813 -11.03515,-8.515625 h -10.9375 q -3.61329,5.058594 -10.91797,8.183594 l -1.34766,-1.835938 q 6.38672,-2.363281 9.58984,-6.347656 h -9.04296 v -1.855469 h 7.32421 v -13.28125 h -6.38671 v -1.992187 h 6.38671 V 7.7734375 h 2.01172 v 2.8320315 h 16.11328 V 7.7734375 h 2.03125 v 2.8320315 h 6.40625 v 1.992187 h -6.40625 v 13.28125 h 7.28516 v 1.855469 h -9.76562 q 3.78906,4.570312 9.84375,6.582031 z m -9.39454,-18.710937 v -3.007813 h -16.11328 v 3.007813 z m 0,5.078125 v -3.164063 h -16.11328 v 3.164063 z m -16.11328,2.050781 v 3.144531 h 16.11328 v -3.144531 z m 23.51563,19.023437 h -31.13281 v -1.992187 h 14.60937 v -4.238281 h -8.20312 v -1.914063 h 8.20312 v -3.847656 h 1.99219 v 3.847656 h 8.125 v 1.914063 h -8.125 v 4.238281 h 14.53125 z"
         id="path18990" />
      <path
         d="m 440.01172,19.277344 -1.23047,1.5625 q -1.58203,-1.914063 -4.29688,-4.121094 v 6.816406 h -1.95312 v -6.699219 q -1.60156,2.714844 -4.04297,5.332032 l -1.34766,-1.40625 q 4.04297,-4.023438 5.35157,-7.636719 H 429.25 v -1.835937 h 3.28125 V 7.734375 h 1.95312 v 3.554688 h 5 V 13.125 h -5 v 1.328125 q 2.71485,2.03125 5.52735,4.824219 z m -11.64063,-1.914063 -1.07422,1.484375 Q 425.96875,17.519531 424.36719,16.25 v 7.285156 h -1.95313 v -7.207031 q -1.8164,2.773437 -3.80859,4.726562 l -1.26953,-1.289062 q 3.61328,-3.671875 4.92187,-6.640625 h -3.65234 v -1.835937 h 3.80859 V 7.734375 h 1.95313 v 3.554688 h 3.39843 V 13.125 h -3.39843 v 1.035156 q 2.07031,1.40625 4.0039,3.203125 z M 417.21875,11.40625 h -4.23828 q -0.95703,5.976562 -2.28516,9.511719 h 6.03516 v 17.441406 h -1.91406 v -1.71875 h -3.8086 v 3.164062 h -1.99219 V 24.921875 q -1.17187,2.285156 -2.20703,3.730469 l -1.42578,-1.367188 q 4.49219,-6.71875 5.50781,-15.878906 h -5 v -1.875 h 11.32813 z m -2.40234,23.320312 V 22.890625 h -3.8086 v 11.835937 z m 25.5664,5.195313 -0.60547,2.011719 q -3.61328,0.09766 -5.85937,0.09766 -9.51172,0 -12.5,-4.101563 -1.19141,2.734375 -2.85156,4.550782 L 417.14062,41.25 q 3.53516,-4.296875 4.39454,-11.972656 l 1.79687,0.488281 q -0.21484,2.871094 -1.26953,6.367187 2.12891,2.714844 5.39062,3.515625 V 26.5625 h -9.04296 v -1.875 h 21.03515 q -0.54687,3.4375 -1.75781,5.761719 l -1.91406,-0.332032 q 0.83984,-1.699218 1.28906,-3.554687 h -7.65625 v 5.527344 h 7.92969 v 1.875 h -7.92969 v 5.996093 q 2.91016,0.136719 5.50781,0.136719 2.96875,0 5.46875,-0.175781 z"
         id="path18992" />
      <path
         d="m 461.88672,11.640625 q -0.11719,5.273437 -0.72266,8.320312 -0.58594,3.046875 -1.34765,3.945313 -0.74219,0.898437 -1.79688,1.132812 -1.05469,0.214844 -4.60937,0.214844 l -0.64454,-2.050781 q 1.875,0.136719 2.91016,0.136719 1.34766,0 1.93359,-0.3125 0.58594,-0.3125 0.9375,-0.976563 0.3711,-0.683594 0.76172,-3.242187 0.39063,-2.578125 0.39063,-5.117188 h -6.17188 Q 453,21.308594 446.73047,25.488281 l -1.52344,-1.640625 q 6.09375,-3.574219 6.36719,-10.15625 h -5.9961 v -2.050781 h 6.11329 q 0.15625,-2.0898437 0.23437,-4.0820313 h 2.01172 q 0,1.8554688 -0.25391,4.0820313 z m 15.52734,12.402344 H 465.57812 V 10.15625 h 11.83594 z m -2.03125,-2.03125 v -9.765625 h -7.77344 v 9.765625 z m 4.58985,8.105468 h -16.32813 v 12.519532 h -2.03125 V 30.117187 h -16.36719 v -1.953125 h 16.36719 V 24.6875 h 2.03125 v 3.476562 h 16.32813 z m 0.23437,10.097657 -1.60156,1.621093 q -3.61328,-3.59375 -11.07422,-7.792968 l 1.44531,-1.601563 q 7.16797,4.023438 11.23047,7.773438 z M 457.94141,34.082031 Q 452.82422,38.75 446.53516,41.601562 l -1.52344,-1.757812 q 7.03125,-3.085938 11.25,-7.207031 z"
         id="path18994" />
      <path
         d="m 499.32812,13.769531 h -14.16015 v -2.089843 h 6.25 q -0.52735,-1.7382817 -1.60156,-3.5156255 l 1.83593,-0.8398438 q 1.19141,1.9335938 1.95313,4.3554693 h 5.72265 z m 20.48829,8.398438 h -3.88672 q -2.8711,0 -2.8711,-2.753907 v -8.613281 h -7.05078 q -0.0976,5.527344 -1.48437,8.222656 -1.36719,2.675782 -3.78907,4.21875 l -1.5625,-1.445312 q 2.38282,-1.503906 3.65235,-4.121094 1.28906,-2.636718 1.1914,-8.8671872 h 11.03516 V 18.808594 q 0,1.347656 1.32813,1.347656 h 3.4375 z m -21.5625,-2.597657 h -12.28516 v -2.011718 h 12.28516 z m -0.0391,5.878907 H 485.92969 V 23.4375 h 12.28515 z m 21.75782,15.605468 -1.19141,1.71875 q -6.07422,-2.011718 -9.375,-4.609375 -3.84766,2.734375 -9.58984,4.394532 l -1.25,-1.71875 q 6.03515,-1.777344 9.08203,-4.082032 -4.14063,-3.808593 -6.03516,-10.195312 h -1.36719 v -2.03125 h 16.75782 v 2.03125 q -2.57813,7.011719 -5.9961,10.234375 3.39844,2.441406 8.96485,4.257812 z M 514.73828,26.5625 h -10.99609 q 2.07031,5.898437 5.625,8.886719 3.57422,-3.300782 5.37109,-8.886719 z m -17.08984,15.234375 h -2.07032 v -2.1875 h -7.24609 v 2.949219 h -2.07031 V 29.238281 h 11.38672 z m -2.07032,-4.238281 v -6.191407 h -7.24609 v 6.191407 z"
         id="path18996" />
      <path
         d="m 539.05469,30.761719 -1.91407,0.644531 q -0.21484,-1.09375 -0.60546,-2.285156 -6.05469,1.679687 -10.64454,2.519531 l -0.64453,-2.226563 q 4.41407,-3.964843 7.59766,-9.082031 -5.27344,0.859375 -6.71875,1.035156 L 525.57812,19.375 q 3.78907,-4.609375 6.42579,-11.640625 l 1.93359,0.625 q -2.08984,5.625 -5.60547,10.644531 2.67578,-0.214844 5.76172,-0.839844 1.58203,-2.519531 2.79297,-5.117187 l 1.89453,0.761719 q -5.05859,9.980468 -10.37109,15.234375 3.28125,-0.507813 7.48046,-1.757813 -0.48828,-1.484375 -1.07421,-2.714844 l 1.79687,-0.644531 q 1.52344,3.144531 2.44141,6.835938 z m 20.11718,8.964843 q 0,1.015625 -0.68359,1.816407 -0.68359,0.820312 -1.60156,0.996093 -0.91797,0.195313 -3.63281,0.09766 l -0.87891,-2.1875 q 1.26953,0.03906 2.1875,0.03906 1.79687,0 2.1875,-0.234375 0.39062,-0.234375 0.39062,-0.839844 V 10.761719 h -15.17578 v 31.835937 h -2.03125 V 8.8085938 h 19.23828 z m -3.20312,-19.003906 h -12.83203 v -1.953125 h 3.20312 q -0.64453,-2.363281 -1.97265,-5.078125 l 1.89453,-0.761718 q 1.23047,2.65625 2.22656,5.839843 h 2.24609 q 1.40625,-2.5 2.67579,-5.917968 l 1.83593,0.722656 q -0.54687,1.660156 -2.22656,5.195312 h 2.94922 z m 0,7.285156 h -8.55469 v 5.917969 q 0,1.035156 0.95703,1.035156 h 7.05078 v 1.875 h -7.24609 q -2.79297,0 -2.79297,-2.871093 v -5.957032 h -2.24609 V 26.09375 h 6.23047 q -0.46875,-1.484375 -1.52344,-3.652344 l 1.97266,-0.683594 q 0.68359,1.484375 1.71875,4.335938 h 4.43359 z m -16.99219,11.269532 -1.91406,0.683593 q -0.33203,-2.851562 -1.73828,-7.148437 l 1.89453,-0.605469 q 1.30859,3.828125 1.75781,7.070313 z m -4.6875,1.855468 -2.07031,0.390625 q -0.17578,-3.886718 -1.09375,-8.320312 l 1.93359,-0.3125 q 0.91797,3.828125 1.23047,8.242187 z M 529.25,33.28125 q -0.68359,5 -2.24609,9.492187 l -1.99219,-0.878906 q 1.46484,-3.574219 2.36328,-9.003906 z"
         id="path18998" />
      <path
         d="m 580.8125,16.289062 h -3.125 l 1.60156,1.269532 q -0.80078,7.558593 -3.28125,18.574218 1.34766,-0.371093 3.96485,-1.25 v 2.207032 Q 570.96875,39.863281 565.32422,41.25 l -0.23438,-2.128906 q 1.03516,-0.195313 4.00391,-1.035157 -0.0391,-8.4375 -1.95313,-20.683593 l 1.71875,-1.113282 h -3.28125 v -2.050781 h 7.07032 Q 572.27734,11.757813 570.5,8.203125 l 2.07031,-0.7617188 q 1.66016,3.7304688 2.28516,6.7968748 h 5.95703 z m -3.59375,0 H 569.25 q 1.50391,10.117188 2.12891,21.191407 1.58203,-0.410157 2.22656,-0.644532 2.92969,-11.71875 3.61328,-20.546875 z m 22.63672,0.644532 h -10.3711 v 9.199218 h 8.65235 v 16.601563 h -2.08985 V 39.84375 h -12.51953 v 2.890625 h -2.07031 V 26.132812 h 5.95703 V 7.8515625 h 2.07031 v 7.0703125 h 10.3711 z m -3.8086,20.839843 v -9.609375 h -12.51953 v 9.609375 z"
         id="path19000" />
      <path
         d="m 621.98437,28.847656 q -1.44531,-0.761719 -1.44531,-1.933594 0,-0.566406 0.48828,-1.152343 0.48828,-0.605469 1.38672,-0.605469 1.875,0 1.875,2.460937 0,2.011719 -2.36328,3.886719 l -0.83984,-0.644531 q 0.89843,-1.191406 0.89843,-2.011719 z"
         id="path19002" />
      <path
         d="m 673.48828,8.6132813 q -2.14844,3.1249997 -5.27344,5.5078127 L 666.49609,12.8125 q 3.76953,-3.125 5.15625,-5.3710938 z m -15,4.1210937 -1.83594,1.347656 q -1.48437,-2.421875 -4.88281,-5.2734372 l 1.71875,-1.2500001 q 2.40234,1.7382813 5,5.1757813 z m 21.48438,28.90625 h -34.80469 v -2.070313 h 12.32422 V 16.933594 H 646.00781 V 14.84375 h 33.08594 v 2.089844 h -11.52344 v 22.636718 h 12.40235 z M 665.42187,39.570312 V 16.933594 h -5.80078 v 22.636718 z m -10.48828,-4.316406 -1.91406,0.703125 q -1.66016,-7.089844 -5.48828,-14.746094 l 1.83594,-0.800781 q 3.65234,7.207031 5.5664,14.84375 z m 22.79297,-13.964844 q -1.91406,6.855469 -5.83984,14.667969 l -1.875,-0.800781 q 3.53515,-6.894531 5.80078,-14.589844 z"
         id="path19004" />
      <path
         d="m 718.21484,13.085938 q -5.85937,9.238281 -19.08203,12.519531 l -1.36719,-1.914063 q 7.05079,-1.289062 12.08985,-4.726562 -2.44141,-2.011719 -7.28516,-4.511719 -1.60156,1.09375 -3.20312,1.992187 l -1.60157,-1.601562 q 6.77735,-3.398437 9.80469,-7.4804688 l 1.95313,0.9570313 q -1.01563,1.3867188 -2.46094,2.7343755 h 11.15234 z m -2.55859,0 h -11.03516 l -0.13672,0.07813 q 3.86719,2.1875 7.01172,4.433593 2.22657,-1.835937 4.16016,-4.511718 z m -19.35547,29.433593 h -2.08984 V 26.71875 h -3.78907 q -0.39062,10.9375 -3.32031,15.410156 l -1.85547,-1.25 q 3.08594,-4.921875 3.08594,-14.160156 h -3.04687 v -1.992188 h 8.92578 V 19.53125 h -6.99219 V 9.6484375 h 2.10937 v 7.8710935 h 4.88282 V 7.6367187 h 2.08984 z m 2.79297,-22.226562 -0.0391,-1.933594 q 2.71484,0 6.36718,-0.546875 l 0.0391,1.914062 q -4.33594,0.566407 -6.36719,0.566407 z m 20.99609,8.671875 h -4.66797 V 39.6875 q 0,1.699219 -1.11328,2.324219 -1.09375,0.644531 -4.45312,0.644531 -1.05469,0 -2.20703,-0.05859 l -0.72266,-2.148437 q 2.5,0.117187 3.98438,0.117187 1.60156,0 2.01171,-0.273437 0.41016,-0.273438 0.41016,-0.761719 V 28.964844 h -15.11719 v -2.070313 h 15.11719 v -4.882812 h 2.08984 v 4.882812 h 4.66797 z m -12.94922,8.242187 -1.71875,1.230469 q -2.01171,-3.496094 -5.13671,-6.835938 l 1.64062,-1.191406 q 3.18359,3.261719 5.21484,6.796875 z"
         id="path19006" />
      <path
         d="m 15.207031,84.873974 -1.914062,0.644531 Q 13.078125,84.424755 12.6875,83.233349 6.6328125,84.913036 2.0429688,85.75288 L 1.3984375,83.526318 Q 5.8125,79.561474 8.9960938,74.444286 3.7226563,75.303661 2.2773438,75.479443 L 1.7304687,73.487255 Q 5.5195312,68.87788 8.15625,61.84663 l 1.933594,0.625 Q 8,68.09663 4.484375,73.116161 q 2.6757812,-0.214843 5.761719,-0.839843 1.582031,-2.519532 2.792969,-5.117188 l 1.894531,0.761719 Q 9.875,77.901318 4.5625,83.155224 7.84375,82.647411 12.042969,81.397411 11.554688,79.913036 10.96875,78.682568 l 1.796875,-0.644532 q 1.523438,3.144532 2.441406,6.835938 z m 20.117188,8.964844 q 0,1.015625 -0.683594,1.816406 -0.683594,0.820312 -1.601563,0.996094 -0.917968,0.195312 -3.632812,0.09766 l -0.878906,-2.1875 q 1.269531,0.03906 2.1875,0.03906 1.796875,0 2.1875,-0.234375 0.390625,-0.234375 0.390625,-0.839843 V 64.873974 H 18.117187 v 31.835937 h -2.03125 V 62.920849 H 35.324219 Z M 32.121094,74.834911 H 19.289062 v -1.953125 h 3.203125 q -0.644531,-2.363281 -1.972656,-5.078125 l 1.894531,-0.761718 q 1.230469,2.65625 2.226563,5.839843 h 2.246094 q 1.40625,-2.5 2.675781,-5.917968 l 1.835937,0.722656 q -0.546875,1.660156 -2.226562,5.195312 h 2.949219 z m 0,7.285157 h -8.554688 v 5.917968 q 0,1.035157 0.957031,1.035157 h 7.050782 v 1.875 h -7.246094 q -2.792969,0 -2.792969,-2.871094 v -5.957031 h -2.246094 v -1.914063 h 6.230469 q -0.46875,-1.484375 -1.523437,-3.652344 l 1.972656,-0.683593 q 0.683594,1.484375 1.71875,4.335937 h 4.433594 z M 15.128906,93.389599 13.214844,94.073193 Q 12.882813,91.22163 11.476563,86.924755 l 1.894531,-0.605469 q 1.308594,3.828125 1.757812,7.070313 z m -4.6875,1.855469 -2.0703122,0.390625 Q 8.1953125,91.748974 7.2773437,87.31538 l 1.9335938,-0.3125 q 0.9179685,3.828125 1.2304685,8.242188 z M 5.4023437,87.393505 q -0.6835937,5 -2.2460937,9.492188 L 1.1640625,96.006786 Q 2.6289063,92.432568 3.5273438,87.00288 Z"
         id="path19008" />
      <path
         d="M 76.164062,64.795849 H 60.207031 q -0.644531,1.933594 -1.71875,4.316406 h 13.320313 v 19.6875 H 54.25 l 1.191406,1.230469 q -6.523437,4.84375 -11.953125,6.816406 l -1.40625,-1.816406 q 6.289063,-2.128906 11.601563,-6.230469 h -7.792969 v -19.6875 h 10.351562 q 1.191407,-2.402344 1.71875,-4.316406 h -16.5625 v -2.03125 h 34.765625 z m -6.484375,9.882812 v -3.515625 h -21.71875 v 3.515625 z m 0,5.957032 v -3.964844 h -21.71875 v 3.964844 z m 0,6.113281 v -4.101563 h -21.71875 v 4.101563 z m 5.800782,8.085937 -1.113282,1.953125 q -5.273437,-3.164062 -12.050781,-5 l 1.015625,-1.796875 q 7.246094,2.207032 12.148438,4.84375 z"
         id="path19010" />
      <path
         d="m 116.00781,73.155224 -0.95703,1.796875 Q 104.73828,71.37788 99.71875,62.354443 l 1.89453,-0.800782 q 1.21094,2.109375 2.67578,3.808594 1.85547,-1.5625 3.39844,-3.398437 l 1.83594,0.839843 q -1.6211,2.089844 -3.88672,4.042969 1.60156,1.679688 2.69531,2.34375 2.46094,-1.796875 4.27735,-3.710937 l 1.64062,1.074218 q -2.07031,2.265625 -4.16016,3.808594 2.69532,1.660156 5.91797,2.792969 z M 97.765625,64.678661 q -3.75,4.882813 -11.113281,8.59375 h 9.199218 v 8.203125 H 87.84375 l -0.527344,4.394532 h 8.535156 q 0,4.804687 -0.371093,6.757812 -0.371094,1.953125 -1.074219,2.753906 -0.683594,0.800782 -1.542969,1.035157 -0.839844,0.253906 -4.765625,0.253906 -1.582031,0 -3.164062,-0.07813 l -0.488282,-2.070313 6.71875,0.117188 q 1.484375,0.05859 2.050782,-1.367188 0.585937,-1.445312 0.546875,-5.429687 h -8.671875 l 0.839843,-8.320313 h 7.910157 V 75.28413 h -7.675782 v -1.796875 q -1.972656,0.9375 -3.789062,1.582031 l -1.210938,-1.796875 q 3.242188,-0.9375 6.679688,-2.949218 -1.308594,-1.308594 -3.671875,-2.597657 l 1.113281,-1.523437 q 2.636719,1.523437 4.355469,3.066406 3.671875,-2.363281 5.449219,-4.589844 H 85.050781 v -1.992187 h 12.714844 z m 16.875005,16.601563 h -4.35547 q -0.89844,0 -1.5625,-0.585938 -0.64453,-0.585937 -0.64453,-1.582031 V 75.28413 h -4.96094 q -0.29297,4.414063 -3.71094,6.835938 l -1.71875,-1.40625 q 3.57422,-2.34375 3.55469,-7.441407 h 8.84765 v 5.292969 q 0,0.703125 0.87891,0.703125 h 3.67188 z m 1.09375,14.042969 -1.40625,1.5625 q -3.39844,-2.753907 -7.16797,-5.136719 -4.1211,3.339844 -8.750004,5.136719 l -1.445312,-1.5625 q 3.730466,-1.210938 8.515626,-4.6875 l -6.562501,-3.925782 1.171871,-1.425781 h -1.757809 v -2.050781 h 14.589849 q -1.40625,4.160156 -4.27735,7.207031 3.08594,1.738281 7.08985,4.882813 z M 109.93359,85.28413 h -9.57031 q 3.76953,2.089844 6.64063,3.984375 1.64062,-1.542969 2.92968,-3.984375 z"
         id="path19012" />
      <path
         d="m 156.24219,66.592724 -0.0391,2.128906 h -19.3164 q -2.94922,5.273438 -6.21094,8.671875 h 8.96484 v -5.507812 h 2.16797 v 5.507812 h 11.71875 v 13.925781 q 0,3.203125 -3.39843,3.203125 -2.71485,0 -3.51563,-0.03906 l -0.80078,-2.285156 q 2.57812,0.136718 3.76953,0.136718 1.21094,0 1.50391,-0.195312 0.3125,-0.195313 0.3125,-0.625 V 79.561474 h -9.58985 v 17.324219 h -2.16797 V 79.561474 h -9.08203 v 14.960937 h -2.22656 V 79.639599 q -3.57422,2.851562 -5.41015,4.082031 l -1.44532,-1.71875 q 8.35938,-5.15625 12.89063,-13.28125 H 121.4375 v -2.128906 h 14.04297 q 0.91797,-1.777344 2.05078,-5.15625 l 2.10937,0.488281 q -0.72265,2.382813 -1.75781,4.667969 z"
         id="path19014" />
      <path
         d="m 196.47656,74.795849 -1.30859,1.757812 q -4.29688,-3.046875 -9.00391,-10.722656 -3.84765,6.542969 -8.51562,10.722656 l -1.36719,-1.386718 q 6.62109,-6.386719 9.64844,-13.574219 l 1.95312,0.683594 q -0.15625,0.410156 -0.64453,1.484375 4.29688,7.402343 9.23828,11.035156 z M 177.60937,70.44038 H 168 q -0.0977,3.886719 -0.19531,5.644531 h 7.87109 q 0.0586,6.269532 -0.39062,11.894532 -0.44922,5.605468 -0.9961,6.640625 -0.52734,1.015625 -1.58203,1.523437 -1.05469,0.507813 -4.55078,0.371094 l -0.625,-2.109375 q 2.38281,0.195312 3.02734,0.195312 0.87891,0 1.66016,-0.585937 0.78125,-0.605469 1.07422,-5.859375 0.29297,-5.253906 0.29297,-7.363281 0,-1.40625 -0.0586,-2.675782 h -5.83984 q -0.85938,11.269532 -4.88281,18.769532 L 161.125,95.674755 q 2.98828,-5.761719 3.84766,-11.152344 0.8789,-5.410156 0.95703,-14.082031 h -4.1211 v -2.050781 h 7.2461 q -0.76172,-3.242188 -2.20703,-5.957031 l 1.83593,-0.761719 q 1.36719,2.832031 2.51953,6.71875 h 6.40625 z m 14.62891,12.753906 -1.42578,1.5625 q -3.76953,-3.828125 -9.375,-7.167968 l 1.25,-1.542969 q 4.90234,2.695312 9.55078,7.148437 z m 0.80078,11.914063 -1.34765,1.523437 q -5.03907,-4.726562 -12.36329,-9.238281 l 1.3086,-1.71875 q 7.85156,4.960938 12.40234,9.433594 z"
         id="path19016" />
      <path
         d="m 226.76953,92.569286 q -2.38281,1.09375 -5.21484,1.914063 -2.8125,0.800781 -5.44922,0.800781 -3.39844,0 -6.23047,-0.9375 -2.83203,-0.9375 -4.82422,-2.8125 -2.01172,-1.894531 -3.10547,-4.726562 -1.09375,-2.851563 -1.09375,-6.660157 0,-6.972656 4.0625,-10.996093 4.08203,-4.042969 11.19141,-4.042969 2.48047,0 5.05859,0.605469 2.59766,0.585937 5.58594,2.011718 v 4.589844 h -0.35156 q -0.60547,-0.46875 -1.75782,-1.230469 -1.15234,-0.761718 -2.26562,-1.269531 -1.34766,-0.605469 -3.06641,-0.996094 -1.69922,-0.410156 -3.86718,-0.410156 -4.88282,0 -7.73438,3.144531 -2.83203,3.125 -2.83203,8.476563 0,5.644531 2.96875,8.789062 2.96875,3.125 8.08594,3.125 1.875,0 3.73047,-0.371093 1.875,-0.371094 3.28125,-0.957032 v -7.128906 h -7.79297 v -3.398437 h 11.62109 z"
         id="path19018" />
      <path
         d="m 237.17969,69.248974 h -4.14063 V 65.44038 h 4.14063 z m -0.23438,25.46875 h -3.67187 V 72.901318 h 3.67187 z"
         id="path19020" />
      <path
         d="m 255.53906,94.522411 q -1.03515,0.273438 -2.26562,0.449219 -1.21094,0.175781 -2.16797,0.175781 -3.33985,0 -5.07813,-1.796875 -1.73828,-1.796875 -1.73828,-5.761718 V 75.987255 h -2.48047 v -3.085937 h 2.48047 v -6.269532 h 3.67188 v 6.269532 h 7.57812 v 3.085937 h -7.57812 v 9.941406 q 0,1.71875 0.0781,2.695313 0.0781,0.957031 0.54688,1.796875 0.42968,0.78125 1.17187,1.152344 0.76172,0.351562 2.30469,0.351562 0.89844,0 1.875,-0.253906 0.97656,-0.273438 1.40625,-0.449219 h 0.19531 z"
         id="path19022" />
      <path
         d="m 278.21484,94.717724 h -3.67187 V 82.295849 q 0,-1.503906 -0.17578,-2.8125 -0.17578,-1.328125 -0.64453,-2.070313 -0.48829,-0.820312 -1.40625,-1.210937 -0.91797,-0.410156 -2.38282,-0.410156 -1.5039,0 -3.14453,0.742187 -1.64062,0.742188 -3.14453,1.894531 v 16.289063 h -3.67187 V 64.327099 h 3.67187 v 10.996094 q 1.71875,-1.425782 3.55469,-2.226563 1.83594,-0.800781 3.76953,-0.800781 3.53516,0 5.39062,2.128906 1.85547,2.128906 1.85547,6.132813 z"
         id="path19024" />
      <path
         d="m 303.37109,94.717724 h -3.67187 v -2.421875 q -1.85547,1.464844 -3.55469,2.246094 -1.69922,0.78125 -3.75,0.78125 -3.4375,0 -5.35156,-2.089844 -1.91406,-2.109375 -1.91406,-6.171875 V 72.901318 h 3.67187 v 12.421875 q 0,1.660156 0.15625,2.851562 0.15625,1.171875 0.66406,2.011719 0.52735,0.859375 1.36719,1.25 0.83984,0.390625 2.44141,0.390625 1.42578,0 3.10547,-0.742188 1.69921,-0.742187 3.16406,-1.894531 V 72.901318 h 3.67187 z"
         id="path19026" />
      <path
         d="m 329.79687,83.643505 q 0,2.734375 -0.78125,4.921875 -0.76171,2.1875 -2.07031,3.671875 -1.38672,1.542969 -3.04687,2.324219 -1.66016,0.761719 -3.65235,0.761719 -1.85547,0 -3.24218,-0.449219 -1.38672,-0.429688 -2.73438,-1.171875 l -0.23437,1.015625 h -3.4375 V 64.327099 h 3.67187 v 10.859375 q 1.54297,-1.269531 3.28125,-2.070313 1.73828,-0.820312 3.90625,-0.820312 3.86719,0 6.09375,2.96875 2.24609,2.96875 2.24609,8.378906 z m -3.78906,0.09766 q 0,-3.90625 -1.28906,-5.917968 -1.28906,-2.03125 -4.16016,-2.03125 -1.60156,0 -3.24218,0.703125 -1.64063,0.683593 -3.04688,1.777343 v 12.5 q 1.5625,0.703125 2.67578,0.976563 1.13281,0.273437 2.5586,0.273437 3.04687,0 4.76562,-1.992187 1.73828,-2.011719 1.73828,-6.289063 z"
         id="path19028" />
      <path
         d="m 368.78125,83.545849 q 0,2.65625 -0.76172,4.863281 -0.76172,2.1875 -2.14844,3.710938 -1.28906,1.445312 -3.04687,2.246093 -1.73828,0.78125 -3.69141,0.78125 -1.69922,0 -3.08594,-0.371093 -1.36718,-0.371094 -2.79296,-1.152344 v 9.140626 h -3.67188 V 72.901318 h 3.67188 v 2.285156 q 1.46484,-1.230469 3.28125,-2.050781 1.83593,-0.839844 3.90625,-0.839844 3.94531,0 6.13281,2.988281 2.20703,2.96875 2.20703,8.261719 z m -3.78906,0.09766 q 0,-3.945312 -1.34766,-5.898437 -1.34766,-1.953125 -4.14062,-1.953125 -1.58204,0 -3.1836,0.683593 -1.60156,0.683594 -3.0664,1.796875 v 12.363282 q 1.5625,0.703125 2.67578,0.957031 1.13281,0.253906 2.55859,0.253906 3.06641,0 4.78516,-2.070312 1.71875,-2.070313 1.71875,-6.132813 z"
         id="path19030" />
      <path
         d="m 391.45703,94.717724 h -3.65234 v -2.324219 q -0.48828,0.332031 -1.32813,0.9375 -0.82031,0.585938 -1.60156,0.9375 -0.91797,0.449219 -2.10938,0.742188 -1.1914,0.3125 -2.79296,0.3125 -2.94922,0 -5,-1.953125 -2.05079,-1.953125 -2.05079,-4.980469 0,-2.480469 1.05469,-4.003906 1.07422,-1.542969 3.04688,-2.421875 1.99218,-0.878907 4.78515,-1.191407 2.79297,-0.3125 5.9961,-0.46875 v -0.566406 q 0,-1.25 -0.44922,-2.070312 -0.42969,-0.820313 -1.25,-1.289063 -0.78125,-0.449219 -1.875,-0.605469 -1.09375,-0.15625 -2.28516,-0.15625 -1.44531,0 -3.22265,0.390625 -1.77735,0.371094 -3.67188,1.09375 h -0.19531 v -3.730468 q 1.07422,-0.292969 3.10547,-0.644532 2.03125,-0.351562 4.0039,-0.351562 2.30469,0 4.00391,0.390625 1.71875,0.371094 2.96875,1.289062 1.23047,0.898438 1.875,2.324219 0.64453,1.425781 0.64453,3.535156 z m -3.65234,-5.371094 v -6.074219 q -1.67969,0.09766 -3.96485,0.292969 -2.26562,0.195313 -3.59375,0.566406 -1.58203,0.449219 -2.55859,1.40625 -0.97656,0.9375 -0.97656,2.597657 0,1.875 1.13281,2.832031 1.13281,0.9375 3.45703,0.9375 1.93359,0 3.53516,-0.742188 1.60156,-0.761718 2.96875,-1.816406 z"
         id="path19032" />
      <path
         d="m 416.22266,92.237255 q 0,5.546875 -2.51954,8.144535 -2.51953,2.59765 -7.7539,2.59765 -1.73828,0 -3.39844,-0.2539 -1.64062,-0.23438 -3.24219,-0.6836 v -3.749997 h 0.19532 q 0.89843,0.351562 2.85156,0.859375 1.95312,0.527343 3.90625,0.527343 1.875,0 3.10547,-0.449218 1.23047,-0.449219 1.91406,-1.25 0.68359,-0.761719 0.97656,-1.835938 0.29297,-1.074219 0.29297,-2.402344 v -1.992187 q -1.66016,1.328125 -3.18359,1.992187 -1.50391,0.644532 -3.84766,0.644532 -3.90625,0 -6.21094,-2.8125 -2.28515,-2.832032 -2.28515,-7.96875 0,-2.8125 0.78125,-4.84375 0.80078,-2.050782 2.16797,-3.535157 1.26953,-1.386718 3.08593,-2.148437 1.81641,-0.78125 3.61328,-0.78125 1.89454,0 3.16407,0.390625 1.28906,0.371094 2.71484,1.152344 l 0.23438,-0.9375 h 3.4375 z M 412.55078,88.72163 V 76.827099 q -1.46484,-0.664063 -2.73437,-0.9375 -1.25,-0.292969 -2.5,-0.292969 -3.02735,0 -4.76563,2.03125 -1.73828,2.03125 -1.73828,5.898438 0,3.671875 1.28906,5.566406 1.28906,1.894531 4.27735,1.894531 1.60156,0 3.20312,-0.605469 1.62109,-0.625 2.96875,-1.660156 z"
         id="path19034" />
      <path
         d="m 441.71094,84.19038 h -16.07422 q 0,2.011719 0.60547,3.515625 0.60547,1.484375 1.66015,2.441406 1.01563,0.9375 2.40235,1.40625 1.40625,0.46875 3.08593,0.46875 2.22657,0 4.47266,-0.878906 2.26563,-0.898437 3.22266,-1.757812 h 0.19531 v 4.003906 q -1.85547,0.78125 -3.78906,1.308594 -1.9336,0.527343 -4.0625,0.527343 -5.42969,0 -8.47657,-2.929687 -3.04687,-2.949219 -3.04687,-8.359375 0,-5.351563 2.91016,-8.496094 2.92968,-3.144531 7.69531,-3.144531 4.41406,0 6.79687,2.578125 2.40235,2.578125 2.40235,7.324219 z m -3.57422,-2.8125 q -0.0195,-2.890625 -1.46485,-4.472656 -1.42578,-1.582031 -4.35546,-1.582031 -2.94922,0 -4.70704,1.738281 -1.73828,1.738281 -1.97265,4.316406 z"
         id="path19036" />
    </g>
  </g>
</svg>
