<?xml version="1.0" encoding="UTF-8" standalone="no"?>
<!-- Created with Inkscape (http://www.inkscape.org/) -->

<svg
   width="200mm"
   height="40mm"
   viewBox="0 0 200 40"
   version="1.1"
   id="svg95978"
   inkscape:version="1.2.1 (9c6d41e410, 2022-07-14)"
   sodipodi:docname="Process.3.PIC.svg"
   xmlns:inkscape="http://www.inkscape.org/namespaces/inkscape"
   xmlns:sodipodi="http://sodipodi.sourceforge.net/DTD/sodipodi-0.dtd"
   xmlns="http://www.w3.org/2000/svg"
   xmlns:svg="http://www.w3.org/2000/svg">
  <sodipodi:namedview
     id="namedview95980"
     pagecolor="#ffffff"
     bordercolor="#666666"
     borderopacity="1.0"
     inkscape:pageshadow="2"
     inkscape:pageopacity="0.0"
     inkscape:pagecheckerboard="0"
     inkscape:document-units="mm"
     showgrid="false"
     width="275mm"
     inkscape:zoom="0.71713664"
     inkscape:cx="497.11586"
     inkscape:cy="227.29281"
     inkscape:window-width="1920"
     inkscape:window-height="1017"
     inkscape:window-x="-8"
     inkscape:window-y="-8"
     inkscape:window-maximized="1"
     inkscape:current-layer="layer1"
     inkscape:showpageshadow="2"
     inkscape:deskcolor="#d1d1d1" />
  <defs
     id="defs95975">
    <rect
       x="-1.3944345"
       y="0"
       width="769.72772"
       height="167.33204"
       id="rect104247" />
  </defs>
  <g
     inkscape:label="圖層 1"
     inkscape:groupmode="layer"
     id="layer1">
    <g
       aria-label="各個不同角度的王雨卿墓 (郭冠吾 攝)"
       transform="matrix(0.26458333,0,0,0.26458333,0.52916667,0)"
       id="text104245"
       style="font-size:40px;line-height:1.25;white-space:pre;shape-inside:url(#rect104247);display:inline">
      <path
         d="m 36.125,25.839844 -0.957031,2.089843 Q 25.304687,25.957031 18.878906,22.089844 12.023438,25.683594 2.375,27.890625 L 1.28125,25.761719 q 8.59375,-1.582032 15.527344,-5 -4.550781,-3.222657 -6.9726565,-6.035156 -3.4765625,2.519531 -6.875,4.472656 L 1.4375,17.636719 Q 9.640625,13.125 15.089844,7.2851562 l 1.835937,1.1132813 q -1.015625,1.2695313 -1.914062,2.0117185 h 15.664062 v 2.070313 q -3.75,4.707031 -9.746094,8.359375 5.917969,3.378906 15.195313,5 z M 27.921875,12.480469 H 12.648438 q -0.46875,0.527344 -1.074219,0.996094 2.871094,3.281249 7.304687,6.132812 5.507813,-3.28125 9.042969,-7.128906 z m 3.652344,30.253906 h -2.207032 v -2.65625 H 9.171875 v 2.65625 H 6.9257812 V 28.808594 H 31.574219 Z M 29.367187,37.929687 V 30.878906 H 9.171875 v 7.050781 z"
         id="path10904" />
      <path
         d="m 49.523437,8.0078125 q -0.234375,1.2304688 -1.171875,4.3554685 l -0.9375,3.125 V 42.734375 H 45.363281 V 20.605469 q -2.089844,4.238281 -3.125,5.566406 L 41.046875,24.238281 Q 44.914062,18.066406 47.570312,7.5195312 Z M 74.894531,42.734375 H 72.804687 V 40.039062 H 53.527344 v 2.695313 H 51.4375 V 9.0039063 H 74.894531 Z M 72.765625,38.085937 V 11.054688 H 53.527344 V 38.085937 Z M 71.007812,19.160156 h -7.011718 v 4.609375 h 4.84375 V 34.648437 H 57.453125 V 23.769531 h 4.550781 v -4.609375 h -6.679687 v -2.03125 h 6.640625 v -3.925781 h 2.03125 v 3.925781 h 7.011718 z m -4.238281,13.398438 v -6.796875 h -7.285156 v 6.796875 z"
         id="path10906" />
      <path
         d="m 116.73047,31.71875 -1.32813,1.71875 Q 106.4375,26.308594 99.933594,22.96875 V 42.851562 H 97.6875 V 20.332031 Q 92.023437,27.089844 82.453125,33.398437 L 81.046875,31.5625 Q 95.773437,22.773437 101.04688,10.761719 H 81.847656 V 8.6132813 h 34.003904 v 2.1484377 h -12.36328 q -1.44531,3.105469 -3.554686,6.523437 v 3.203125 Q 111.125,26.972656 116.73047,31.71875 Z"
         id="path10908" />
      <path
         d="m 154.36719,39.609375 q 0,1.972656 -1.38672,2.539062 -1.11328,0.3125 -2.8711,0.351563 -1.73828,0.05859 -4.58984,0.05859 l -0.83984,-2.109375 q 1.05468,0.07813 6.5625,0.07813 1.07422,0 1.07422,-1.035157 V 10.605469 h -26.91407 v 32.03125 h -2.03125 V 8.6132813 h 30.9961 z m -5.41016,-22.050781 h -20.15625 v -2.03125 h 20.15625 z m -2.26562,16.894531 H 131.04687 V 22.597656 h 15.64454 z m -2.16797,-2.128906 v -7.675782 h -11.3086 v 7.675782 z"
         id="path10910" />
      <path
         d="m 194.21094,39.765625 q 0,1.191406 -0.85938,2.011719 -0.85937,0.820312 -1.95312,0.820312 l -5.76172,0.07813 -0.74219,-2.1875 q 1.5625,0.07813 3.20313,0.07813 3.04687,0 3.55468,-0.195312 0.50782,-0.195313 0.50782,-0.839844 v -5.449219 h -24.1211 q -0.97656,5.058594 -4.27734,8.886719 l -1.67969,-1.25 q 1.91406,-2.246094 3.14453,-5.332031 1.25,-3.105469 1.25,-9.257813 v -9.199219 q -2.61719,1.777344 -3.55469,2.402344 l -1.60156,-1.640625 q 9.16016,-5.527343 13.16406,-11.1718748 l 2.12891,0.6835938 q -0.70312,1.1328125 -1.85547,2.441406 h 13.96485 v 1.835938 q -1.66016,2.363281 -4.08204,4.921875 h 9.57032 z m -8.35938,-27.167969 h -12.96875 q -2.53906,2.558594 -5.68359,4.804688 h 14.60937 q 2.83203,-2.851563 4.04297,-4.804688 z m 6.3086,12.089844 v -5.15625 h -10.80079 v 5.15625 z m -12.8711,0 v -5.15625 h -10.68359 v 5.15625 z m 12.8711,7.402344 v -5.332032 h -10.80079 v 5.332032 z m -12.8711,0 v -5.332032 h -10.64453 q 0,2.695313 -0.23437,5.332032 z"
         id="path10912" />
      <path
         d="m 235.73437,12.96875 h -28.88671 v 11.152344 q 0,10.878906 -4.39454,17.96875 l -1.8164,-1.328125 q 4.19922,-6.523438 4.19922,-18.671875 V 10.957031 h 14.76562 q -0.8789,-1.6210935 -1.95312,-2.988281 l 2.32422,-0.5664063 q 1.25,1.9335938 2.07031,3.5546873 h 13.6914 z m 0,6.40625 h -6.89453 v 6.503906 H 214.48437 V 19.375 h -6.07421 v -1.972656 h 6.07421 v -3.28125 h 2.08985 v 3.28125 h 10.19531 v -3.28125 h 2.07031 v 3.28125 h 6.89453 z m -8.96484,4.511719 V 19.375 h -10.19531 v 4.511719 z m 9.88281,16.992187 -1.28906,1.933594 q -8.18359,-1.347656 -13.4375,-3.808594 -6.09375,2.734375 -14.84375,3.632813 l -1.03516,-2.070313 q 8.59375,-0.664062 13.4375,-2.753906 -4.66796,-2.851563 -7.16796,-7.363281 h -1.50391 v -2.089844 h 20.23437 v 2.089844 q -2.34375,4.570312 -6.91406,7.285156 4.49219,1.953125 12.51953,3.144531 z m -8.125,-10.429687 h -13.73047 q 2.53907,4.101562 6.97266,6.230468 4.64844,-2.558593 6.75781,-6.230468 z"
         id="path10914" />
      <path
         d="m 255.16797,41.835937 h -2.01172 v -3.4375 h -8.63281 v 4.238282 h -2.03125 V 14.277344 h 3.71093 q 1.50391,-2.675781 2.85157,-6.8750003 L 251.04687,7.8125 q -0.70312,2.109375 -2.71484,6.464844 h 6.83594 z m -2.01172,-16.953125 v -8.59375 h -8.63281 v 8.59375 z m 0,11.484375 v -9.472656 h -8.63281 v 9.472656 z m 22.05078,-22.050781 q -0.23437,8.984375 -0.87891,16.699219 -0.625,7.714844 -1.26953,9.082031 -0.64453,1.367188 -1.66015,1.933594 -0.9961,0.585937 -3.8086,0.585937 -1.23047,0 -3.22265,-0.05859 l -0.64453,-2.03125 q 1.64062,0.05859 3.53515,0.05859 1.77735,0 2.26563,-0.03906 0.50781,-0.03906 1.05468,-0.488281 0.54688,-0.46875 0.78125,-1.074219 0.23438,-0.625 0.625,-4.609375 0.39063,-3.984375 0.64454,-8.769531 0.2539,-4.804688 0.37109,-9.316407 h -10.42969 q -2.08984,4.160157 -4.84375,7.910157 l -1.64062,-1.152344 q 5.2539,-6.894531 7.4414,-15.3710938 l 2.03125,0.5273438 q -0.97656,3.203125 -2.1875,6.113281 z m -7.36328,17.929688 -1.67969,1.191406 q -1.93359,-4.453125 -5.80078,-9.316406 l 1.71875,-1.113282 q 3.59375,4.335938 5.76172,9.238282 z"
         id="path10916" />
      <path
         d="m 316.20312,41.71875 h -34.88281 v -2.109375 h 16.32813 V 25.371094 H 283.60547 V 23.28125 h 14.04297 V 10.722656 H 282.72656 V 8.6132813 h 31.99219 V 10.722656 H 299.79687 V 23.28125 h 14.1211 v 2.089844 h -14.1211 v 14.238281 h 16.40625 z"
         id="path10918" />
      <path
         d="m 356.00781,9.0820313 -0.0391,1.9726567 H 339.5625 v 5.546874 h 14.19922 V 39.84375 q 0,3.144531 -4.21875,3.144531 -1.07422,0 -2.42188,-0.09766 l -0.54687,-2.050781 q 3.00781,0 3.6914,-0.03906 0.70313,-0.03906 1.09375,-0.449219 0.41016,-0.429687 0.41016,-1.035156 V 18.652344 H 339.5625 v 23.398437 h -1.99219 V 18.652344 h -12.05078 v 24.238281 h -2.07031 V 16.601562 h 14.12109 V 11.054688 H 321.28125 V 9.0820313 Z m -6.28906,13.3984377 q -2.91016,3.339843 -6.60156,5.722656 l -1.26953,-1.601563 q 3.18359,-1.953125 6.60156,-5.546875 z m -14.58984,4.199218 -1.32813,1.523438 Q 331.76953,25.625 327.76562,22.675781 L 329.17187,21.25 q 3.47657,2.441406 5.95704,5.429687 z M 349.40625,36.796875 348,38.398437 q -2.5,-3.164062 -6.38672,-6.425781 l 1.23047,-1.601562 q 4.08203,3.4375 6.5625,6.425781 z m -13.80859,-4.863281 q -3.16407,3.789062 -6.83594,6.347656 L 327.375,36.601562 q 3.37891,-2.109375 6.79687,-6.074218 z"
         id="path10920" />
      <path
         d="m 371.92578,9.609375 q -3.14453,1.40625 -7.51953,2.441406 V 32.8125 q 1.60156,-0.371094 4.12109,-1.367188 0.39063,-1.699218 0.39063,-3.808593 V 14.414063 h 1.97265 v 12.343749 q 0,10.625 -6.79687,16.171875 l -1.5625,-1.484375 q 4.17969,-3.496093 5.54687,-7.714843 Q 364.52344,35 362.88281,35.488281 l -0.91797,-1.757812 q 0.44922,-0.625 0.44922,-1.40625 V 10.410156 q 4.7461,-0.8203122 8.63281,-2.6367185 z m 23.39844,26.035156 q 0,2.910156 -3.55469,2.910156 -0.42969,0 -1.25,-0.01953 l -0.80078,-2.050781 q 0.66406,0.03906 2.73437,0.03906 0.25391,0 0.56641,-0.332031 0.3125,-0.351562 0.3125,-0.625 V 10.644531 h -4.57031 v 31.953125 h -1.95313 V 8.6132813 h 8.51563 z m -9.96094,3.847656 -1.79687,1.152344 Q 383,38.476562 382.49219,36.972656 q -4.29688,2.382813 -8.39844,4.160156 l -1.01563,-1.640625 q 0.64454,-0.585937 0.64454,-1.289062 V 8.6914063 H 384.25 V 27.011719 h -8.47656 v 11.230468 q 3.75,-1.757812 6.03515,-3.164062 -0.48828,-1.386719 -1.67968,-3.984375 l 1.60156,-1.171875 q 2.71484,5.820312 3.63281,9.570312 z m -3.125,-22.8125 v -6.035156 h -6.46484 v 6.035156 z m 0.0391,8.28125 v -6.308593 h -6.5039 v 6.308593 z"
         id="path10922" />
      <path
         d="m 417.92187,11.640625 h -4.96093 v 1.933594 h -2.03125 v -1.933594 h -9.53125 V 9.8046875 h 9.53125 V 7.6757812 h 2.03125 v 2.1289063 h 4.96093 z m 18.20313,0 h -9.39453 v 1.972656 h -2.01172 v -1.972656 h -5 V 9.8046875 h 5 V 7.734375 h 2.01172 v 2.0703125 h 9.39453 z m 0.0391,24.277344 -1.11328,1.816406 q -2.22656,-0.664063 -5.76172,-2.441406 v 1.542968 h -9.49219 v 3.320313 h 13.96485 v 1.894531 H 403.68359 V 40.15625 h 14.1211 v -3.320313 h -9.55078 V 35.15625 q -3.08594,1.660156 -5.60547,2.65625 l -1.25,-1.679688 q 5.99609,-2.34375 10,-5.839843 h -9.55078 v -1.894532 h 11.52343 q 1.15235,-1.386718 1.91407,-2.714843 H 406.4375 V 14.804688 h 24.80469 v 10.878906 h -13.59375 q -0.91797,1.582031 -1.64063,2.714843 h 19.66797 v 1.894532 h -10.15625 q 3.37891,3.261718 10.64453,5.625 z m -6.95312,-16.679688 v -2.558594 h -20.76172 v 2.558594 z m 0,4.492188 V 21.09375 h -20.76172 v 2.636719 z m -0.56641,11.230468 q -4.04297,-2.480468 -5.80078,-4.667968 h -8.39844 q -2.73437,2.910156 -5.72265,4.667968 h 9.08203 v -3.027343 h 1.99218 v 3.027343 z"
         id="path10924" />
      <path
         d="m 458.05859,47.480469 q -6.52343,-7.460938 -6.52343,-18.417969 0,-11.015625 6.52343,-18.710937 h 2.96875 q -6.64062,8.027343 -6.64062,18.671874 0,10.585938 6.60156,18.457032 z"
         id="path10926" />
      <path
         d="m 484.23047,13.4375 h -20 v -2.03125 h 9.49219 q -0.82032,-1.5625 -1.9336,-3.125 l 1.89453,-0.8789063 q 1.13282,1.5429688 2.36328,4.0039063 h 8.1836 z m 10.37109,9.296875 q 4.19922,5.195312 4.19922,10.46875 0,2.421875 -1.50391,3.652344 -1.5039,1.230468 -3.71093,1.230468 h -2.10938 l -0.64453,-2.089843 q 1.46484,0.05859 2.5,0.05859 1.95313,0 2.71484,-0.683593 0.76172,-0.703125 0.76172,-2.382813 0,-4.863281 -4.41406,-9.785156 2.40234,-6.230469 3.73047,-12.03125 h -7.61719 V 42.636719 H 486.4375 V 9.1210938 h 11.71875 v 2.0507812 q -1.81641,6.582031 -3.55469,11.5625 z m -12.92969,0.800781 H 466.4375 v -7.246094 h 15.23437 z m -2.03125,-2.011719 V 18.28125 h -11.17187 l 0.0391,3.242187 z m 4.39454,12.636719 q -3.65235,0.761719 -8.47657,1.25 V 40 q 0,1.191406 -0.99609,1.914062 -0.97656,0.722657 -3.32031,0.722657 h -2.28516 l -0.68359,-2.109375 q 3.3789,0.07813 4.29687,-0.01953 0.9375,-0.09766 0.9375,-0.976562 v -3.847656 q -5.01953,0.488281 -9.14062,0.761718 l -0.21485,-1.875 q 4.41407,-0.234375 9.35547,-0.761718 v -2.324219 q 3.94531,-2.207031 5.09766,-3.242188 h -13.125 v -1.914062 h 16.1914 v 1.914062 q -2.92968,2.382813 -6.11328,4.316407 v 0.976562 q 3.71094,-0.332031 8.47657,-1.25 z"
         id="path10928" />
      <path
         d="m 537.62891,16.132812 h -2.14844 v -5.449218 h -27.63672 v 5.800781 h -2.08984 V 8.6523438 h 31.875 z m 1.17187,4.921875 h -5.83984 v 13.261719 q 0,1.347656 -0.89844,2.089844 -0.87891,0.742187 -3.51563,0.742187 -1.01562,0 -1.99218,-0.09766 l -0.60547,-2.011719 q 1.46484,0.136719 2.98828,0.136719 1.28906,0 1.62109,-0.292969 0.35157,-0.3125 0.35157,-0.917968 V 21.054687 h -8.90625 v -2.050781 h 8.90625 v -4.511718 h 2.05078 v 4.511718 h 5.83984 z m -18.24219,-3.496093 h -11.15234 v -2.03125 h 11.15234 z m 18.08594,17.363281 q 0,7.207031 -4.27734,7.207031 h -14.72657 q -1.73828,0 -2.63671,-0.878906 Q 516.125,40.371094 516.125,39.082031 V 25.371094 h -4.19922 q -0.13672,11.855468 -6.21094,17.226562 l -1.64062,-1.308594 q 2.34375,-2.089843 3.61328,-4.589843 1.28906,-2.519532 1.66016,-5.078125 0.37109,-2.558594 0.37109,-6.25 h -4.88281 V 23.28125 h 16.83593 v 2.089844 h -3.47656 v 13.632812 q 0,0.429688 0.41016,0.820313 0.41015,0.390625 0.91797,0.390625 h 14.6289 q 1.40625,0 1.91407,-1.5625 0.52734,-1.582032 0.44921,-4.414063 z m -9.41406,-5.273438 -1.5625,1.523438 q -1.48438,-2.832031 -4.86328,-6.328125 l 1.60156,-1.367188 q 3.00781,3.320313 4.82422,6.171875 z"
         id="path10930" />
      <path
         d="m 578.91797,25.800781 h -34.6875 v -2.070312 h 9.76562 l 2.32422,-5.996094 h -8.65234 v -2.011719 h 9.375 l 1.95312,-5.078125 H 544.60156 V 8.6523438 h 33.59375 v 1.9921872 h -16.99219 l -1.93359,5.078125 h 13.49609 v 8.007813 h 6.15235 z m -8.32031,-2.070312 v -5.996094 h -12.03125 l -2.2461,5.996094 z m 4.43359,18.945312 h -2.26563 v -2.597656 h -22.4414 v 2.597656 h -2.08985 V 29.726562 h 26.79688 z m -2.26563,-4.628906 v -6.25 h -22.4414 v 6.25 z"
         id="path10932" />
      <path
         d="m 604.30859,16.71875 h -3.71093 v 8.769531 q 1.66015,-0.644531 3.16406,-1.445312 l 0.39062,1.953125 q -2.8125,1.347656 -3.55468,1.640625 v 12.441406 q 0,1.367187 -0.82032,1.894531 Q 598.95703,42.5 596.53516,42.5 q -0.87891,0 -1.66016,-0.05859 l -0.50781,-1.796875 3.35937,-0.03906 q 0.91797,0 0.91797,-0.878907 V 28.4375 q -2.48047,1.09375 -4.27734,1.71875 l -0.56641,-1.875 q 1.40625,-0.429688 4.84375,-1.875 v -9.6875 h -4.53125 v -1.914062 h 4.53125 V 7.6367187 h 1.95313 v 7.1679693 h 3.71093 z m 24.19922,5.332031 h -4.23828 v 1.679688 h -1.67969 l -0.27343,-1.679688 h -17.2461 v -1.796875 h 3.88672 v -9.882812 h -3.28125 V 8.5351563 h 22.20703 v 1.8359377 h -3.61328 v 9.882812 h 4.23828 z m -6.1914,-9.6875 v -1.992187 h -11.36719 v 1.992187 z m 0,3.886719 V 14.082031 H 610.94922 V 16.25 Z m 0,4.003906 V 17.96875 h -11.36719 v 2.285156 z m 6.64062,19.199219 h -2.07031 v 3.183594 h -1.97266 v -3.183594 h -8.32031 v -1.777344 h 1.875 V 26.484375 h -1.30859 v -1.757813 h 11.34765 v 1.757813 h -1.62109 v 11.191406 h 2.07031 z m -4.04297,-10.488281 v -2.480469 h -4.51172 v 2.480469 z m 0,4.277343 v -2.402343 h -4.51172 v 2.402343 z m 0,4.433594 v -2.636719 h -4.51172 v 2.636719 z m -8.86719,-11.152344 h -1.25 v 16.113282 h -1.91406 v -3.945313 q -3.92578,0.839844 -9.04297,1.679688 l -0.37109,-1.835938 3.41797,-0.527344 V 26.523437 h -1.81641 v -1.796875 h 10.97656 z m -3.16406,2.441407 v -2.441407 h -4.08203 v 2.441407 z m 0,4.277343 v -2.402343 h -4.08203 v 2.402343 z m 0,3.554688 v -1.757813 h -4.08203 v 2.597657 q 2.53906,-0.410157 4.08203,-0.839844 z"
         id="path10934" />
      <path
         d="m 631.96484,47.480469 q 6.58203,-7.832032 6.58203,-18.457032 0,-10.683593 -6.64062,-18.671874 h 2.98828 q 6.5625,7.695312 6.5625,18.710937 0,10.9375 -6.5625,18.417969 z"
         id="path10936" />
    </g>
  </g>
</svg>
