<?xml version="1.0" encoding="UTF-8" standalone="no"?>
<!-- Created with Inkscape (http://www.inkscape.org/) -->

<svg
   width="200mm"
   height="40mm"
   viewBox="0 0 200 40"
   version="1.1"
   id="svg95978"
   inkscape:version="1.1.1 (3bf5ae0d25, 2021-09-20)"
   sodipodi:docname="Process.5.pic.svg"
   xmlns:inkscape="http://www.inkscape.org/namespaces/inkscape"
   xmlns:sodipodi="http://sodipodi.sourceforge.net/DTD/sodipodi-0.dtd"
   xmlns="http://www.w3.org/2000/svg"
   xmlns:svg="http://www.w3.org/2000/svg">
  <sodipodi:namedview
     id="namedview95980"
     pagecolor="#ffffff"
     bordercolor="#666666"
     borderopacity="1.0"
     inkscape:pageshadow="2"
     inkscape:pageopacity="0.0"
     inkscape:pagecheckerboard="0"
     inkscape:document-units="mm"
     showgrid="false"
     width="275mm"
     inkscape:zoom="0.71713664"
     inkscape:cx="496.41865"
     inkscape:cy="227.29281"
     inkscape:window-width="1920"
     inkscape:window-height="991"
     inkscape:window-x="-9"
     inkscape:window-y="-9"
     inkscape:window-maximized="1"
     inkscape:current-layer="layer1"
     inkscape:showpageshadow="2"
     inkscape:deskcolor="#d1d1d1" />
  <defs
     id="defs95975">
    <rect
       x="-1.3944345"
       y="0"
       width="769.72772"
       height="167.33204"
       id="rect104247" />
  </defs>
  <g
     inkscape:label="圖層 1"
     inkscape:groupmode="layer"
     id="layer1">
    <g
       aria-label="Blender 3D軟體模型修飾"
       transform="matrix(0.26458333,0,0,0.26458333,0.52916667,0)"
       id="text104245"
       style="font-size:40px;line-height:1.25;white-space:pre;shape-inside:url(#rect104247);display:inline">
      <path
         d="m 24.445312,31.660156 q 0,2.167969 -0.820312,3.828125 -0.820313,1.660156 -2.207031,2.734375 -1.640625,1.289063 -3.613282,1.835938 -1.953124,0.546875 -4.980468,0.546875 H 2.5117188 V 11.523438 H 11.125 q 3.183594,0 4.765625,0.234375 1.582031,0.234375 3.027344,0.976562 1.601562,0.839844 2.324218,2.167969 0.722657,1.308593 0.722657,3.144531 0,2.070312 -1.054688,3.535156 -1.054687,1.445313 -2.8125,2.324219 v 0.15625 q 2.949219,0.605469 4.648438,2.597656 1.699218,1.972656 1.699218,5 z M 17.941406,18.554687 q 0,-1.054687 -0.351562,-1.777343 -0.351563,-0.722657 -1.132813,-1.171875 -0.917968,-0.527344 -2.226562,-0.644531 -1.308594,-0.136719 -3.242188,-0.136719 H 6.3789062 v 8.398437 h 4.9999998 q 1.816407,0 2.890625,-0.175781 1.074219,-0.195313 1.992188,-0.78125 0.917968,-0.585938 1.289062,-1.503906 0.390625,-0.9375 0.390625,-2.207032 z m 2.480469,13.261719 q 0,-1.757812 -0.527344,-2.792969 -0.527344,-1.035156 -1.914062,-1.757812 -0.9375,-0.488281 -2.285156,-0.625 -1.328125,-0.15625 -3.242188,-0.15625 H 6.3789062 v 10.820312 h 5.1171878 q 2.539062,0 4.160156,-0.253906 1.621094,-0.273437 2.65625,-0.976562 1.09375,-0.761719 1.601562,-1.738282 0.507813,-0.976562 0.507813,-2.519531 z"
         id="path9305" />
      <path
         d="M 33.351562,40.605469 H 29.679687 V 10.214844 h 3.671875 z"
         id="path9307" />
      <path
         d="M 58.878906,30.078125 H 42.804687 q 0,2.011719 0.605469,3.515625 0.605469,1.484375 1.660156,2.441406 1.015625,0.9375 2.402344,1.40625 1.40625,0.46875 3.085938,0.46875 2.226562,0 4.472656,-0.878906 2.265625,-0.898438 3.222656,-1.757813 h 0.195313 v 4.003907 q -1.855469,0.78125 -3.789063,1.308593 -1.933594,0.527344 -4.0625,0.527344 -5.429687,0 -8.476562,-2.929687 -3.046875,-2.949219 -3.046875,-8.359375 0,-5.351563 2.910156,-8.496094 2.929687,-3.144531 7.695312,-3.144531 4.414063,0 6.796875,2.578125 2.402344,2.578125 2.402344,7.324218 z m -3.574219,-2.8125 q -0.01953,-2.890625 -1.464843,-4.472656 -1.425782,-1.582032 -4.355469,-1.582032 -2.949219,0 -4.707031,1.738282 -1.738282,1.738281 -1.972657,4.316406 z"
         id="path9309" />
      <path
         d="M 82.6875,40.605469 H 79.015625 V 28.183594 q 0,-1.503907 -0.175781,-2.8125 -0.175782,-1.328125 -0.644532,-2.070313 -0.488281,-0.820312 -1.40625,-1.210937 -0.917968,-0.410157 -2.382812,-0.410157 -1.503906,0 -3.144531,0.742188 -1.640625,0.742187 -3.144532,1.894531 V 40.605469 H 64.445312 V 18.789062 h 3.671875 v 2.421875 q 1.71875,-1.425781 3.554688,-2.226562 1.835937,-0.800781 3.769531,-0.800781 3.535156,0 5.390625,2.128906 1.855469,2.128906 1.855469,6.132812 z"
         id="path9311" />
      <path
         d="m 107.45313,40.605469 h -3.67188 v -2.285157 q -1.58203,1.367188 -3.30078,2.128907 -1.718751,0.761718 -3.73047,0.761718 -3.90625,0 -6.210938,-3.007812 -2.285156,-3.007813 -2.285156,-8.339844 0,-2.773437 0.78125,-4.941406 0.800781,-2.167969 2.148438,-3.691406 1.328125,-1.484375 3.085937,-2.265625 1.777344,-0.78125 3.671875,-0.78125 1.71875,0 3.046874,0.371093 1.32813,0.351563 2.79297,1.113282 v -9.453125 h 3.67188 z m -3.67188,-5.371094 V 22.714844 q -1.48437,-0.664063 -2.65625,-0.917969 -1.171875,-0.253906 -2.558594,-0.253906 -3.085937,0 -4.804687,2.148437 -1.71875,2.148438 -1.71875,6.09375 0,3.886719 1.328125,5.917969 1.328125,2.011719 4.257812,2.011719 1.5625,0 3.164064,-0.683594 1.60156,-0.703125 2.98828,-1.796875 z"
         id="path9313" />
      <path
         d="m 132.94141,30.078125 h -16.07422 q 0,2.011719 0.60547,3.515625 0.60547,1.484375 1.66015,2.441406 1.01563,0.9375 2.40235,1.40625 1.40625,0.46875 3.08593,0.46875 2.22657,0 4.47266,-0.878906 2.26562,-0.898438 3.22266,-1.757813 h 0.19531 v 4.003907 q -1.85547,0.78125 -3.78906,1.308593 -1.9336,0.527344 -4.0625,0.527344 -5.42969,0 -8.47657,-2.929687 -3.04687,-2.949219 -3.04687,-8.359375 0,-5.351563 2.91016,-8.496094 2.92968,-3.144531 7.69531,-3.144531 4.41406,0 6.79687,2.578125 2.40235,2.578125 2.40235,7.324218 z m -3.57422,-2.8125 q -0.0195,-2.890625 -1.46485,-4.472656 -1.42578,-1.582032 -4.35546,-1.582032 -2.94922,0 -4.70704,1.738282 -1.73828,1.738281 -1.97265,4.316406 z"
         id="path9315" />
      <path
         d="m 152.12109,22.792969 h -0.19531 q -0.82031,-0.195313 -1.60156,-0.273438 -0.76172,-0.09766 -1.81641,-0.09766 -1.69922,0 -3.28125,0.761719 -1.58203,0.742187 -3.04687,1.933593 v 15.488282 h -3.67188 V 18.789062 h 3.67188 v 3.222657 q 2.1875,-1.757813 3.84765,-2.480469 1.67969,-0.742188 3.41797,-0.742188 0.95703,0 1.38672,0.05859 0.42969,0.03906 1.28906,0.175781 z"
         id="path9317" />
      <path
         d="m 186.30078,26.601562 q 0.9375,0.839844 1.54297,2.109375 0.60547,1.269532 0.60547,3.28125 0,1.992188 -0.72266,3.652344 -0.72265,1.660156 -2.03125,2.890625 -1.46484,1.367188 -3.45703,2.03125 -1.97266,0.644531 -4.33594,0.644531 -2.42187,0 -4.76562,-0.585937 -2.34375,-0.566406 -3.84766,-1.25 v -4.082031 h 0.29297 q 1.66016,1.09375 3.90625,1.816406 2.24609,0.722656 4.33594,0.722656 1.23047,0 2.61719,-0.410156 1.38671,-0.410156 2.24609,-1.210938 0.89844,-0.859375 1.32812,-1.894531 0.44922,-1.035156 0.44922,-2.617187 0,-1.5625 -0.50781,-2.578125 -0.48828,-1.035157 -1.36719,-1.621094 -0.8789,-0.605469 -2.1289,-0.820313 -1.25,-0.234375 -2.69532,-0.234375 h -1.75781 v -3.242187 h 1.36719 q 2.96875,0 4.72656,-1.230469 1.77735,-1.25 1.77735,-3.632812 0,-1.054688 -0.44922,-1.835938 -0.44922,-0.800781 -1.25,-1.308593 -0.83985,-0.507813 -1.79688,-0.703125 -0.95703,-0.195313 -2.16797,-0.195313 -1.85547,0 -3.94531,0.664063 -2.08984,0.664062 -3.94531,1.874999 h -0.19531 v -4.082031 q 1.38671,-0.683593 3.6914,-1.25 2.32422,-0.585937 4.49219,-0.585937 2.12891,0 3.75,0.390625 1.62109,0.390625 2.92969,1.25 1.40625,0.9375 2.1289,2.265625 0.72266,1.328125 0.72266,3.105468 0,2.421875 -1.71875,4.238282 -1.69922,1.796875 -4.02344,2.265625 v 0.273437 q 0.9375,0.15625 2.14844,0.664063 1.21094,0.488281 2.05078,1.230468 z"
         id="path9319" />
      <path
         d="m 219.93359,26.09375 q 0,3.964844 -1.73828,7.1875 -1.71875,3.222656 -4.58984,5 -1.99219,1.230469 -4.45313,1.777344 -2.4414,0.546875 -6.44531,0.546875 h -7.34375 V 11.523438 h 7.26563 q 4.25781,0 6.75781,0.625 2.51953,0.605468 4.25781,1.679687 2.96875,1.855469 4.62891,4.941406 1.66015,3.085938 1.66015,7.324219 z m -4.04297,-0.05859 q 0,-3.417969 -1.1914,-5.761719 -1.19141,-2.34375 -3.55469,-3.691406 -1.71875,-0.976562 -3.65234,-1.347656 -1.9336,-0.390625 -4.62891,-0.390625 h -3.63281 v 22.441406 h 3.63281 q 2.79297,0 4.86328,-0.410156 2.08985,-0.410156 3.82813,-1.523438 2.16797,-1.386718 3.24218,-3.652343 1.09375,-2.265625 1.09375,-5.664063 z"
         id="path9321" />
      <path
         d="m 258.87891,14.316406 q -0.91797,7.1875 -3.16407,11.132813 l -1.64062,-1.25 q 1.69922,-3.4375 2.40234,-7.871094 h -9.04297 q -1.75781,4.277344 -3.75,6.835937 l -1.60156,-1.367187 q 3.78906,-4.785156 5.46875,-14.3554688 l 1.97266,0.6054688 q -0.35157,2.851563 -1.44532,6.269531 z m -16.44532,-1.386718 h -7.51953 v 3.398437 h 6.03516 v 15.3125 h -6.03516 v 3.4375 h 7.08985 v 1.933594 h -7.08985 v 5.625 h -2.03125 v -5.625 h -7.8125 v -1.933594 h 7.8125 v -3.4375 h -6.17187 v -15.3125 h 6.17187 v -3.398437 h -7.40234 v -2.050782 h 7.40234 V 7.5585937 h 2.03125 v 3.3203123 h 7.51953 z m -3.47656,9.882812 v -4.492188 h -4.04297 V 22.8125 Z m -6.07422,0 v -4.492188 h -4.12109 V 22.8125 Z m 6.07422,6.796875 v -4.84375 h -4.04297 v 4.84375 z m -6.07422,0 v -4.84375 h -4.12109 v 4.84375 z m 26.875,11.601562 -1.48437,1.523438 q -6.81641,-5.605469 -8.47657,-12.96875 -1.66015,7.226562 -8.67187,13.046875 l -1.5625,-1.523438 q 5.07812,-4.179687 7.1875,-8.90625 2.12891,-4.726562 2.12891,-12.773437 h 2.10937 q -0.11719,2.539062 -0.11719,3.867187 0,4.902344 2.28516,9.628907 2.28516,4.707031 6.60156,8.105468 z"
         id="path9323" />
      <path
         d="M 298.56641,22.324219 H 281.71094 V 10.957031 H 286.75 V 7.6757812 h 1.75781 v 3.2812498 h 3.32031 V 7.6757812 h 1.77735 v 3.2812498 h 4.96094 z m -1.81641,-6.5625 v -3.027344 h -3.14453 v 3.027344 z m -4.92188,0 v -3.027344 h -3.32031 v 3.027344 z m -5.07812,0 v -3.027344 h -3.28125 v 3.027344 z m 10,4.882812 v -3.203125 h -3.14453 v 3.203125 z m -4.92188,0 v -3.203125 h -3.32031 v 3.203125 z m -5.07812,0 v -3.203125 h -3.28125 v 3.203125 z m -6.83594,2.363281 H 278 v -2.285156 h -10.68359 v 2.285156 h -1.95313 v -4.160156 h 2.07031 V 8.6523438 h 11.07422 V 18.847656 h 1.40625 z m -3.32031,-9.472656 v -3.007812 h -7.28516 v 8.320312 H 271.75 v -5.3125 z m -0.0391,5.3125 v -3.515625 h -2.91016 v 3.515625 z m 0.68359,20.957031 q 0,1.210938 -0.66406,2.03125 -0.64453,0.839844 -2.32422,0.839844 h -1.52344 l -0.5664,-1.914062 h 2.55859 q 0.17578,0 0.41016,-0.214844 0.23437,-0.214844 0.23437,-0.390625 v -5.507813 q -3.49609,1.914063 -5.41016,2.636719 l -0.54687,-0.996094 q -1.03516,4.101563 -2.61719,6.308594 l -1.58203,-0.917969 Q 268.03906,36.875 268.03906,31.5625 v -7.949219 h 9.19922 z m -1.875,-7.441406 V 25.449219 H 269.875 v 2.285156 q 2.07031,0.625 4.80469,1.796875 L 273.80078,31.25 q -1.28906,-0.625 -3.92578,-1.5625 -0.0781,3.613281 -0.35156,5.761719 2.8125,-1.210938 5.83984,-3.085938 z m 24.08203,-5.527344 H 280.48047 V 25 h 18.96484 z m 0.23438,15 h -20.03907 v -1.875 h 6.11329 q -0.35157,-1.796875 -1.48438,-4.199218 h -1.99219 v -6.601563 h 15.19532 v 6.601563 h -2.36329 q -0.97656,2.539062 -1.71875,4.199218 h 6.28907 z m -4.19922,-7.871093 v -3.007813 h -11.17188 v 3.007813 z m -2.5586,1.796875 h -6.52343 l 1.48437,4.199218 h 3.35938 q 1.07422,-2.304687 1.67968,-4.199218 z"
         id="path9325" />
      <path
         d="m 339.64062,12.851563 h -5.72265 v 2.265625 h -1.99219 v -2.265625 h -2.96875 v -1.894532 h 2.96875 V 7.6367187 h 1.99219 v 3.3203123 h 5.72265 z m -12.20703,0 h -2.63672 v 2.265625 h -2.1289 v -2.265625 h -5.87891 v -1.894532 h 5.87891 V 7.6367187 h 2.1289 v 3.3203123 h 2.63672 z m -9.96093,12.480468 -1.5625,1.308594 q -1.89454,-3.300781 -2.98829,-4.746094 v 20.839844 h -2.05078 V 23.007812 q -1.99218,4.84375 -4.66797,8.710938 l -1.40625,-1.5625 Q 308.42969,25 310.83203,17.890625 h -5.42969 v -1.972656 h 5.46875 V 7.6367187 h 2.05078 v 8.2812503 h 4.00391 v 1.972656 h -4.00391 v 0.878906 q 2.65625,3.28125 4.55079,6.5625 z m 21.97265,9.082031 h -11.48437 q -1.69922,6.347657 -10.87891,8.320313 l -1.17187,-1.855469 q 8.125,-1.464844 9.96093,-6.464844 h -9.55078 v -1.933593 h 10 q 0.39063,-2.167969 0.39063,-3.476563 h -7.26563 V 16.640625 h 17.63672 v 12.363281 h -8.28125 q -0.0586,1.484375 -0.37109,3.476563 h 11.01562 z m -4.33594,-12.65625 v -3.222656 h -13.71093 v 3.222656 z m 0,5.371094 v -3.515625 h -13.71093 v 3.515625 z m 4.84375,13.867188 -1.26953,1.640625 q -3.65234,-2.675782 -9.41406,-5.351563 l 1.32813,-1.601562 q 5.23437,2.421875 9.35546,5.3125 z"
         id="path9327" />
      <path
         d="m 377.92187,26.289062 q 0,1.132813 -0.64453,1.875 -0.64453,0.722657 -1.44531,0.9375 -0.80078,0.195313 -3.00781,0.195313 -1.17188,0 -2.91016,-0.05859 l -0.8789,-2.1875 q 2.01171,0.175781 3.75,0.175781 1.66015,0 2.08984,-0.09766 0.42969,-0.117187 0.70312,-0.625 0.29297,-0.507812 0.29297,-1.171875 V 7.890625 h 2.05078 z m -11.67968,-6.972656 h -5.72266 v 9.042969 h -2.05078 v -9.042969 h -5.35156 q -0.44922,5.9375 -5.72266,10.097656 l -1.67969,-1.40625 q 4.98047,-3.945312 5.3711,-8.691406 h -5.87891 v -2.03125 h 5.99609 q 0.19532,-3.59375 0.19532,-6.523437 h -5 V 8.8085938 h 19.3164 v 1.9531252 h -5.19531 v 6.523437 h 5.72266 z m -7.77344,-2.03125 v -6.523437 h -5 q 0,2.363281 -0.23438,6.523437 z m 12.51953,5.722656 h -2.03125 V 9.6484375 h 2.03125 z m 8.73047,18.75 h -34.76563 v -1.992187 h 16.44532 v -5.644531 h -13.84766 v -1.953125 h 13.84766 V 27.96875 h 2.07031 v 4.199219 h 13.57422 v 1.953125 h -13.57422 v 5.644531 h 16.25 z"
         id="path9329" />
      <path
         d="m 420.07031,23.535156 -1.15234,1.953125 q -6.69922,-1.972656 -9.72656,-4.042969 -4.98047,2.792969 -10.46875,4.042969 l -1.05469,-1.875 q 6.79687,-1.71875 9.6875,-3.496094 -2.75391,-2.363281 -4.00391,-4.238281 L 405.20703,15 q 1.875,2.578125 3.94531,4.003906 3.14453,-2.148437 5.3711,-6.113281 h -10.83985 q -1.85547,2.597656 -4.33593,4.589844 l -1.79688,-1.269532 q 4.31641,-3.378906 7.24609,-8.8476558 l 2.16797,0.5273438 q -1.05468,1.8164063 -1.8164,2.949219 h 14.53125 v 2.050781 h -2.89063 q -2.55859,4.882812 -5.83984,7.265625 3.30078,2.089844 9.12109,3.378906 z M 393.39062,8.28125 l -2.30468,7.050781 v 27.1875 h -2.05078 v -22.03125 q -1.40625,3.300781 -2.94922,5.839844 L 384.75781,24.375 q 3.65235,-6.210938 6.64063,-16.8164063 z m 2.96875,31.09375 h -1.95312 V 13.730469 h 1.95312 z m 14.96094,-13.769531 q -4.375,3.808593 -12.08984,5.566406 L 398.11719,29.375 Q 405.5,27.851562 409.64062,24.277344 Z m 4.4336,2.96875 Q 409.79687,34.492187 399.875,36.5625 l -1.15234,-1.953125 q 10,-1.875 15.3125,-7.324219 z m 3.88671,3.320312 q -7.10937,9.257813 -19.72656,10.839844 l -1.11328,-1.933594 q 13.10547,-1.796875 18.92578,-10 z"
         id="path9331" />
      <path
         d="m 459.99219,14.199219 h -8.10547 v 5.527343 h 6.38672 v 17.519532 q 0,2.597656 -3.35938,2.597656 -0.46875,0 -1.1914,-0.03906 l -0.48829,-1.953125 q 1.25,0.07813 1.97266,0.07813 1.07422,0 1.07422,-0.917968 V 21.71875 h -4.39453 V 42.734375 H 449.875 V 21.71875 h -4.47266 v 18.046875 h -1.97265 V 19.726562 h 6.44531 v -5.527343 h -4.16016 q -2.14843,3.164062 -4.08203,4.882812 l -1.38672,-1.484375 q 3.61328,-3.476562 7.07032,-10.1953123 l 1.79687,0.9179688 q -1.23047,2.4023435 -2.14844,3.8867185 h 13.02735 z m -19.35547,0.253906 -1.23047,1.464844 q -2.34375,-2.8125 -5.72266,-5.664063 -1.91406,2.5 -3.16406,3.789063 h 6.19141 v 1.875 h -6.95313 v -1.035156 q -2.01172,1.914062 -3.71094,2.968749 l -1.05468,-1.796875 q 4.0625,-2.519531 8.32031,-8.6523433 L 435.10937,8.125 q -0.0781,0.2539063 -0.3125,0.6445313 3.61329,2.9687497 5.83985,5.6835937 z m 0,25.507812 -1.60156,1.09375 q -0.76172,-1.621093 -1.40625,-2.519531 -6.25,2.949219 -10.23438,4.199219 l -0.87891,-1.855469 q 0.80079,-0.3125 0.80079,-1.308594 V 18.359375 h 11.95312 v 12.597656 h -9.86328 v 8.808594 q 2.96875,-0.878906 7.03125,-3.007813 -0.54688,-0.78125 -1.91406,-2.558593 l 1.60156,-1.113282 q 3.26172,3.808594 4.51172,6.875 z m -3.4375,-16.386718 v -3.359375 h -7.79297 v 3.359375 z m 0,5.46875 v -3.515625 h -7.79297 v 3.515625 z"
         id="path9333" />
    </g>
  </g>
</svg>
