<?xml version="1.0" encoding="UTF-8" standalone="no"?>
<!-- Created with Inkscape (http://www.inkscape.org/) -->

<svg
   width="200mm"
   height="40mm"
   viewBox="0 0 200 40"
   version="1.1"
   id="svg95978"
   inkscape:version="1.2.1 (9c6d41e410, 2022-07-14)"
   sodipodi:docname="Process.2.pic.svg"
   xmlns:inkscape="http://www.inkscape.org/namespaces/inkscape"
   xmlns:sodipodi="http://sodipodi.sourceforge.net/DTD/sodipodi-0.dtd"
   xmlns="http://www.w3.org/2000/svg"
   xmlns:svg="http://www.w3.org/2000/svg">
  <sodipodi:namedview
     id="namedview95980"
     pagecolor="#ffffff"
     bordercolor="#666666"
     borderopacity="1.0"
     inkscape:pageshadow="2"
     inkscape:pageopacity="0.0"
     inkscape:pagecheckerboard="0"
     inkscape:document-units="mm"
     showgrid="false"
     width="275mm"
     inkscape:zoom="0.71713664"
     inkscape:cx="495.72143"
     inkscape:cy="227.29281"
     inkscape:window-width="1920"
     inkscape:window-height="1017"
     inkscape:window-x="-8"
     inkscape:window-y="-8"
     inkscape:window-maximized="1"
     inkscape:current-layer="layer1"
     inkscape:showpageshadow="2"
     inkscape:deskcolor="#d1d1d1" />
  <defs
     id="defs95975">
    <rect
       x="-1.3944345"
       y="0"
       width="769.72772"
       height="167.33204"
       id="rect104247" />
  </defs>
  <g
     inkscape:label="圖層 1"
     inkscape:groupmode="layer"
     id="layer1">
    <g
       aria-label="拍攝建模素材 (蔡韋漢 攝)"
       transform="matrix(0.26458333,0,0,0.26458333,0.52916667,0)"
       id="text104245"
       style="font-size:40px;line-height:1.25;white-space:pre;shape-inside:url(#rect104247);display:inline">
      <path
         d="M 34.640625,42.597656 H 32.53125 V 40 H 18.371094 v 2.597656 H 16.242187 V 13.808594 h 5.527344 q 1.582031,-2.851563 2.675781,-6.3671878 L 26.4375,8.046875 Q 25.382812,11.25 24.054687,13.808594 h 10.585938 z m -2.109375,-17.1875 v -9.53125 H 18.371094 v 9.53125 z m 0,12.519531 V 27.441406 H 18.371094 V 37.929687 Z M 14.5625,26.640625 q -3.125,1.210937 -5.4296875,1.835937 V 39.375 q 0,1.875 -0.9375,2.5 -0.9179688,0.644531 -3.3007813,0.644531 -0.7421875,0 -1.8164062,-0.03906 L 2.53125,40.332031 q 1.6210937,0.05859 2.4804687,0.05859 1.2304688,0 1.6601563,-0.273438 0.4492187,-0.273437 0.4492187,-0.996093 V 29.082031 Q 4.0351562,29.804687 1.7304687,30.15625 L 1.28125,28.085937 q 3.3007812,-0.410156 5.8398437,-1.152343 v -9.335938 h -5.46875 v -2.070312 h 5.46875 V 7.6367187 h 2.0117188 v 7.8906253 h 5.0781255 v 2.070312 H 9.1328125 v 8.730469 Q 11.28125,25.761719 14.210938,24.648437 Z"
         id="path6354" />
      <path
         d="m 51.476562,16.71875 h -3.710937 v 8.769531 q 1.660156,-0.644531 3.164062,-1.445312 l 0.390625,1.953125 q -2.8125,1.347656 -3.554687,1.640625 v 12.441406 q 0,1.367187 -0.820313,1.894531 Q 46.125,42.5 43.703125,42.5 q -0.878906,0 -1.660156,-0.05859 l -0.507813,-1.796875 3.359375,-0.03906 q 0.917969,0 0.917969,-0.878907 V 28.4375 q -2.480469,1.09375 -4.277344,1.71875 l -0.566406,-1.875 q 1.40625,-0.429688 4.84375,-1.875 v -9.6875 H 41.28125 V 14.804688 H 45.8125 V 7.6367187 h 1.953125 v 7.1679693 h 3.710937 z m 24.199219,5.332031 H 71.4375 v 1.679688 H 69.757812 L 69.484375,22.050781 H 52.238281 V 20.253906 H 56.125 V 10.371094 H 52.84375 V 8.5351563 H 75.050781 V 10.371094 H 71.4375 v 9.882812 h 4.238281 z m -6.191406,-9.6875 V 10.371094 H 58.117187 v 1.992187 z m 0,3.886719 V 14.082031 H 58.117187 V 16.25 Z m 0,4.003906 V 17.96875 H 58.117187 v 2.285156 z M 76.125,39.453125 h -2.070313 v 3.183594 h -1.972656 v -3.183594 h -8.320312 v -1.777344 h 1.875 V 26.484375 h -1.308594 v -1.757813 h 11.347656 v 1.757813 H 74.054687 V 37.675781 H 76.125 Z M 72.082031,28.964844 v -2.480469 h -4.511719 v 2.480469 z m 0,4.277343 v -2.402343 h -4.511719 v 2.402343 z m 0,4.433594 v -2.636719 h -4.511719 v 2.636719 z M 63.214844,26.523437 h -1.25 V 42.636719 H 60.050781 V 38.691406 Q 56.125,39.53125 51.007812,40.371094 l -0.371093,-1.835938 3.417968,-0.527344 V 26.523437 h -1.816406 v -1.796875 h 10.976563 z m -3.164063,2.441407 V 26.523437 H 55.96875 v 2.441407 z m 0,4.277343 V 30.839844 H 55.96875 v 2.402343 z m 0,3.554688 V 35.039062 H 55.96875 v 2.597657 q 2.539062,-0.410157 4.082031,-0.839844 z"
         id="path6356" />
      <path
         d="M 115.85156,18.359375 H 113 v 5.683594 h -9.12109 v 3.320312 h 9.92187 v 1.953125 h -9.92187 v 3.28125 h 11.28906 v 1.972656 h -11.28906 v 3.964844 h -1.99219 v -3.964844 h -9.921876 v -1.972656 h 9.921876 v -3.28125 h -8.398439 v -1.953125 h 8.398439 V 24.042969 H 94.25 v -1.992188 h 7.63672 v -3.691406 h -9.882814 v -2.03125 h 9.882814 v -3.476562 h -7.597658 v -1.972657 h 7.597658 V 7.890625 h 1.99219 v 2.988281 H 113 v 5.449219 h 2.85156 z m -4.88281,-2.03125 v -3.398437 h -7.08984 v 3.398437 z m 0,5.722656 v -3.691406 h -7.08984 v 3.691406 z m 5.19531,17.988281 -0.48828,2.128907 q -3.61328,0.09766 -6.875,0.09766 -7.05078,0 -10.058593,-0.371094 -2.988281,-0.351562 -5.917968,-1.367187 -2.910157,-1.035157 -5.175782,-3.359375 -2.851562,3.59375 -5.410156,5.605468 L 80.8125,41.132812 q 2.988281,-2.34375 5.3125,-5.527343 -2.226563,-3.007813 -3.75,-7.871094 l 1.875,-0.761719 q 1.132812,4.238281 2.988281,6.679688 2.109375,-4.375 2.363281,-10.253907 h -7.402343 v -1.875 q 3.710937,-4.667968 7.402343,-10.761718 H 81.398437 V 8.7695313 h 10.449219 v 1.9921877 q -3.652344,6.152343 -7.011719,10.605468 h 6.933594 q -0.390625,8.828125 -3.085937,14.003907 1.894531,1.933593 4.257812,3.027343 2.382813,1.09375 5.078125,1.445313 2.695309,0.332031 10.624999,0.332031 3.94531,0 7.51953,-0.136719 z"
         id="path6358" />
      <path
         d="m 155.96875,12.851563 h -5.72266 v 2.265625 h -1.99218 v -2.265625 h -2.96875 v -1.894532 h 2.96875 V 7.6367187 h 1.99218 v 3.3203123 h 5.72266 z m -12.20703,0 H 141.125 v 2.265625 h -2.12891 v -2.265625 h -5.8789 v -1.894532 h 5.8789 V 7.6367187 h 2.12891 v 3.3203123 h 2.63672 z m -9.96094,12.480468 -1.5625,1.308594 Q 130.34375,23.339844 129.25,21.894531 v 20.839844 h -2.05078 V 23.007812 q -1.99219,4.84375 -4.66797,8.710938 L 121.125,30.15625 Q 124.75781,25 127.16016,17.890625 h -5.42969 v -1.972656 h 5.46875 V 7.6367187 H 129.25 v 8.2812503 h 4.00391 v 1.972656 H 129.25 v 0.878906 q 2.65625,3.28125 4.55078,6.5625 z m 21.97266,9.082031 h -11.48438 q -1.69922,6.347657 -10.8789,8.320313 l -1.17188,-1.855469 q 8.125,-1.464844 9.96094,-6.464844 h -9.55078 v -1.933593 h 10 q 0.39062,-2.167969 0.39062,-3.476563 h -7.26562 V 16.640625 h 17.63672 v 12.363281 h -8.28125 q -0.0586,1.484375 -0.3711,3.476563 h 11.01563 z m -4.33594,-12.65625 v -3.222656 h -13.71094 v 3.222656 z m 0,5.371094 v -3.515625 h -13.71094 v 3.515625 z m 4.84375,13.867188 -1.26953,1.640625 q -3.65235,-2.675782 -9.41406,-5.351563 l 1.32812,-1.601562 q 5.23438,2.421875 9.35547,5.3125 z"
         id="path6360" />
      <path
         d="M 196.28125,21.25 H 179.5625 q -4.00391,3.105469 -8.78906,4.746094 l 6.25,-0.195313 q 5.97656,-0.253906 6.21093,-0.371094 2.20704,-1.132812 4.92188,-2.871093 l 1.64062,1.25 q -9.86328,6.386718 -19.82421,8.4375 10.35156,-0.234375 20.11718,-1.113282 -1.40625,-1.523437 -3.125,-2.929687 l 1.75782,-1.191406 q 4.16015,3.652343 7.01171,7.519531 l -1.52343,1.308594 q -1.36719,-1.796875 -2.36328,-2.871094 -6.32813,0.507812 -11.83594,0.722656 V 39.6875 q 0,1.679687 -0.97656,2.285156 -0.97657,0.625 -3.88672,0.625 -0.66407,0 -1.3086,-0.03906 l -0.50781,-2.070313 q 1.15234,0.15625 2.24609,0.15625 1.58204,0 1.9336,-0.273437 0.37109,-0.292969 0.37109,-0.761719 v -5.839844 q -5.35156,0.15625 -13.63281,0.15625 l -0.25391,-1.835937 q 8.24219,-1.835938 15.64453,-4.882813 -4.19921,0.46875 -9.6289,0.46875 -1.52344,0 -3.125,-0.03906 l -0.19531,-1.796875 Q 171.61328,24.179687 176.20312,21.25 H 161.4375 v -1.835938 h 16.36719 v -3.28125 h -12.40235 v -1.855468 h 12.40235 V 11.484375 H 163.21484 V 9.6484375 h 14.58985 V 7.5976562 h 2.24609 v 2.0507813 h 14.35547 v 1.8359375 h -14.35547 v 2.792969 h 11.91406 v 1.855468 h -11.91406 v 3.28125 h 16.23047 z M 195.59766,40.527344 194.25,42.167969 Q 189.62109,38.808594 183.99609,36.5625 l 1.28907,-1.71875 q 5.99609,2.441406 10.3125,5.683594 z m -22.14844,-4.003907 q -3.65235,2.890625 -10.33203,5.605469 l -1.3086,-1.796875 q 6.05469,-2.167969 10.15625,-5.292969 z"
         id="path6362" />
      <path
         d="m 217.88281,27.8125 -1.48437,1.71875 q -2.10938,-3.652344 -5.35157,-7.285156 v 20.273437 h -1.99218 v -20.46875 q -2.89063,6.796875 -6.52344,11.074219 l -1.44531,-1.71875 q 4.82422,-5.664063 7.67578,-14.003906 h -6.95313 v -1.992188 h 7.2461 V 7.4804687 h 1.99218 v 7.9296873 h 6.15235 v 1.992188 h -6.15235 v 2.128906 q 3.76954,3.769531 6.83594,8.28125 z m 18.28125,-10.332031 h -4.55078 v 21.132812 q 0,2.460938 -1.17187,3.203125 -1.15235,0.761719 -4.49219,0.761719 -1.07422,0 -2.10938,-0.05859 l -0.80078,-2.070312 q 1.6211,0.117187 3.10547,0.117187 2.36328,0 2.91016,-0.371094 0.54687,-0.371093 0.54687,-1.230468 V 19.960937 q -4.23828,9.667969 -13.32031,16.601563 l -1.44531,-1.640625 q 9.49218,-6.738281 13.65234,-17.441406 h -9.60937 v -1.992188 h 10.72265 V 7.5976562 h 2.01172 v 7.8906248 h 4.55078 z"
         id="path6364" />
      <path
         d="m 258.05859,47.480469 q -6.52343,-7.460938 -6.52343,-18.417969 0,-11.015625 6.52343,-18.710937 h 2.96875 q -6.64062,8.027343 -6.64062,18.671874 0,10.585938 6.60156,18.457032 z"
         id="path6366" />
      <path
         d="m 298.99609,12.324219 h -9.35547 v 2.714844 h -2.01171 v -2.714844 h -5.03907 v -1.953125 h 5.03907 V 7.7734375 h 2.01171 v 2.5976565 h 9.35547 z m -18.20312,0 h -5.03906 v 2.714844 h -2.03125 v -2.714844 h -9.41407 v -1.953125 h 9.41407 V 7.7734375 h 2.03125 v 2.5976565 h 5.03906 z m 7.1289,15.449218 h -12.63671 v -1.816406 q -3.86719,2.792969 -9.96094,4.726563 l -1.28906,-1.640625 q 5.625,-1.523438 9.96093,-4.550782 -2.07031,-1.933593 -5.8789,-3.886718 -1.05469,0.78125 -2.40235,1.601562 l -1.30859,-1.523437 q 3.86719,-2.011719 7.03125,-6.074219 l 1.83594,0.917969 q -0.66407,0.839843 -1.38672,1.601562 l 9.10156,0.644531 -0.35156,1.953125 q -1.6211,3.457032 -5.27344,6.152344 h 12.55859 z m -9.3164,-8.242187 -8.4961,-0.566406 q -0.19531,0.253906 -0.39062,0.410156 3.55469,1.914062 5.83984,3.828125 1.99219,-1.855469 3.04688,-3.671875 z m 20.58594,9.277344 -1.03516,1.640625 Q 287.21875,27.1875 282.96094,20.683594 l 1.67968,-0.957032 q 1.6211,2.1875 4.62891,4.472657 3.63281,-3.300782 5.33203,-5.625 h -11.36719 v -1.972657 h 13.59375 v 1.972657 q -1.89453,2.890625 -5.83984,6.71875 3.78906,2.148437 8.20313,3.515625 z m -33.78907,-2.929688 -0.2539,-1.835937 q 4.19922,-0.429688 5.37109,-0.761719 l 0.19531,1.757812 q -1.5625,0.371094 -5.3125,0.839844 z m 29.80469,7.050781 h -12.48047 v 9.628907 h -2.01172 v -9.628907 h -12.7539 v -1.933593 h 27.24609 z m 2.51953,6.035157 -1.28906,1.757812 q -3.98438,-2.324219 -10,-4.277344 l 1.03516,-1.71875 q 5.23437,1.699219 10.2539,4.238282 z m -20.89844,-2.792969 q -4.76562,3.046875 -9.86328,4.746094 l -1.36718,-1.835938 q 5.13671,-1.484375 9.80468,-4.355469 z"
         id="path6368" />
      <path
         d="m 339.07422,18.007812 h -34.92188 v -1.875 H 316.75 l 1.60156,-3.886718 h -10.58594 v -1.835938 h 11.3086 l 0.99609,-2.8515623 1.9336,0.6054688 -0.72266,2.2460935 h 12.83203 v 5.722656 h 4.96094 z m -7.07031,-1.875 v -3.886718 h -11.40625 l -1.48438,3.886718 z m 7.07031,22.871094 h -13.59375 v 3.847656 h -2.12891 V 39.003906 H 308 l 1.23047,-5.917969 h -3.1836 v -1.875 h 17.30469 v -2.890625 h -13.90625 v -7.636718 h 24.58985 v 7.636718 h -8.55469 v 2.890625 h 11.75781 v 1.875 h -11.75781 v 4.082032 h 13.59375 z m -7.14844,-12.519531 v -3.964844 h -20.33203 v 3.964844 z m -8.57422,10.683594 V 33.085937 H 311.4375 l -0.83984,4.082032 z"
         id="path6370" />
      <path
         d="m 353.03906,13.4375 -1.40625,1.484375 q -3.08594,-3.632812 -6.07422,-6.0351562 l 1.44532,-1.4453126 q 3.84765,3.2812498 6.03515,5.9960938 z m 25.83985,21.328125 h -13.47657 q -2.16797,6.191406 -12.59765,8.046875 l -0.97657,-1.933594 q 9.04297,-1.464844 11.40625,-6.113281 h -10.80078 v -1.835938 h 11.40625 q 0.35157,-1.425781 0.46875,-3.007812 h -10.50781 v -1.835938 h 10.60547 q 0.11719,-0.722656 0.11719,-2.636718 h -9.49219 v -6.679688 h 9.53125 v -2.480469 h -5.64453 v -4.648437 h -5.44922 v -1.875 h 5.44922 V 7.6757812 h 2.03125 V 9.765625 h 9.41406 V 7.6757812 h 2.07031 V 9.765625 h 6.03516 v 1.875 h -6.03516 v 4.648437 h -5.80078 v 2.480469 h 9.6875 v 6.679688 h -9.76562 q 0,1.269531 -0.0781,2.636718 h 10.91797 v 1.835938 h -11.03516 q -0.15625,1.875 -0.48828,3.007812 h 13.00782 z m -8.51563,-20.351562 v -2.773438 h -9.41406 v 2.773438 z m 3.86719,9.121093 v -2.96875 h -7.59766 v 2.96875 z m -9.66797,0 v -2.96875 h -7.44141 v 2.96875 z m -12.24609,-0.292969 -1.36719,1.640625 q -2.53906,-2.695312 -6.95313,-5.722656 l 1.28907,-1.640625 q 3.98437,2.734375 7.03125,5.722656 z M 351.75,29.6875 q -2.94922,7.5 -6.26953,12.949219 l -1.60156,-1.230469 q 3.82812,-6.660156 6.23046,-13.085938 z m 27.36328,11.40625 -1.15234,1.679687 q -3.88672,-2.363281 -10.6836,-4.84375 L 368.3125,36.25 q 6.34766,2.109375 10.80078,4.84375 z"
         id="path6372" />
      <path
         d="m 404.30859,16.71875 h -3.71093 v 8.769531 q 1.66015,-0.644531 3.16406,-1.445312 l 0.39062,1.953125 q -2.8125,1.347656 -3.55468,1.640625 v 12.441406 q 0,1.367187 -0.82032,1.894531 Q 398.95703,42.5 396.53516,42.5 q -0.87891,0 -1.66016,-0.05859 l -0.50781,-1.796875 3.35937,-0.03906 q 0.91797,0 0.91797,-0.878907 V 28.4375 q -2.48047,1.09375 -4.27734,1.71875 l -0.56641,-1.875 q 1.40625,-0.429688 4.84375,-1.875 v -9.6875 h -4.53125 v -1.914062 h 4.53125 V 7.6367187 h 1.95313 v 7.1679693 h 3.71093 z m 24.19922,5.332031 h -4.23828 v 1.679688 h -1.67969 l -0.27343,-1.679688 h -17.2461 v -1.796875 h 3.88672 v -9.882812 h -3.28125 V 8.5351563 h 22.20703 v 1.8359377 h -3.61328 v 9.882812 h 4.23828 z m -6.1914,-9.6875 v -1.992187 h -11.36719 v 1.992187 z m 0,3.886719 V 14.082031 H 410.94922 V 16.25 Z m 0,4.003906 V 17.96875 h -11.36719 v 2.285156 z m 6.64062,19.199219 h -2.07031 v 3.183594 h -1.97266 v -3.183594 h -8.32031 v -1.777344 h 1.875 V 26.484375 h -1.30859 v -1.757813 h 11.34765 v 1.757813 h -1.62109 v 11.191406 h 2.07031 z m -4.04297,-10.488281 v -2.480469 h -4.51172 v 2.480469 z m 0,4.277343 v -2.402343 h -4.51172 v 2.402343 z m 0,4.433594 v -2.636719 h -4.51172 v 2.636719 z m -8.86719,-11.152344 h -1.25 v 16.113282 h -1.91406 v -3.945313 q -3.92578,0.839844 -9.04297,1.679688 l -0.37109,-1.835938 3.41797,-0.527344 V 26.523437 h -1.81641 v -1.796875 h 10.97656 z m -3.16406,2.441407 v -2.441407 h -4.08203 v 2.441407 z m 0,4.277343 v -2.402343 h -4.08203 v 2.402343 z m 0,3.554688 v -1.757813 h -4.08203 v 2.597657 q 2.53906,-0.410157 4.08203,-0.839844 z"
         id="path6374" />
      <path
         d="m 431.96484,47.480469 q 6.58203,-7.832032 6.58203,-18.457032 0,-10.683593 -6.64062,-18.671874 h 2.98828 q 6.5625,7.695312 6.5625,18.710937 0,10.9375 -6.5625,18.417969 z"
         id="path6376" />
    </g>
  </g>
</svg>
