<?xml version="1.0" encoding="UTF-8" standalone="no"?>
<!-- Created with Inkscape (http://www.inkscape.org/) -->

<svg
   width="200mm"
   height="40mm"
   viewBox="0 0 200 40"
   version="1.1"
   id="svg95978"
   inkscape:version="1.2.1 (9c6d41e410, 2022-07-14)"
   sodipodi:docname="Process.1.pic.svg"
   xmlns:inkscape="http://www.inkscape.org/namespaces/inkscape"
   xmlns:sodipodi="http://sodipodi.sourceforge.net/DTD/sodipodi-0.dtd"
   xmlns="http://www.w3.org/2000/svg"
   xmlns:svg="http://www.w3.org/2000/svg">
  <sodipodi:namedview
     id="namedview95980"
     pagecolor="#ffffff"
     bordercolor="#666666"
     borderopacity="1.0"
     inkscape:pageshadow="2"
     inkscape:pageopacity="0.0"
     inkscape:pagecheckerboard="0"
     inkscape:document-units="mm"
     showgrid="false"
     width="275mm"
     inkscape:zoom="0.71713664"
     inkscape:cx="494.32699"
     inkscape:cy="227.29281"
     inkscape:window-width="1920"
     inkscape:window-height="1017"
     inkscape:window-x="-8"
     inkscape:window-y="-8"
     inkscape:window-maximized="1"
     inkscape:current-layer="layer1"
     inkscape:showpageshadow="2"
     inkscape:deskcolor="#d1d1d1" />
  <defs
     id="defs95975">
    <rect
       x="-1.3944345"
       y="0"
       width="769.72772"
       height="167.33204"
       id="rect104247" />
  </defs>
  <g
     inkscape:label="圖層 1"
     inkscape:groupmode="layer"
     id="layer1">
    <g
       aria-label="尋找墓葬 (蔡韋漢 攝)"
       transform="matrix(0.26458333,0,0,0.26458333,0.52916667,0)"
       id="text104245"
       style="font-size:40px;line-height:1.25;white-space:pre;shape-inside:url(#rect104247);display:inline">
      <path
         d="m 35.460937,14.492188 h -4.628906 v 4.121093 H 5.6367187 v -1.875 H 28.820312 V 14.492188 H 2.2382813 V 12.519531 H 28.820312 V 10.3125 H 5.6367187 V 8.3789063 H 30.832031 v 4.1406247 h 4.628906 z m -6.699218,15.292968 v 1.894531 h 7.285156 v 1.953125 h -7.285156 v 5.839844 q 0,3.144531 -3.222657,3.183594 -2.324218,0 -4.941406,-0.03906 L 19.71875,40.527344 q 3.945312,0.175781 5.957031,0.03906 1.035156,-0.05859 1.035156,-1.308594 v -5.625 H 1.3398437 V 31.679687 H 26.710937 v -1.894531 z m -9.277344,-0.996094 v -8.066406 h 14.53125 v 8.066406 z M 18,27.734375 Q 8.5273438,28.90625 2.453125,29.140625 L 1.90625,27.246094 Q 4.875,27.167969 9.3476563,26.816406 v -3.90625 H 3.5078125 V 20.996094 H 16.867187 v 1.914062 h -5.527343 v 3.691406 Q 15.324219,26.269531 18,25.820312 Z m -1.113281,11.5625 -1.503906,1.464844 Q 12.746094,38.105469 9.3671875,36.035156 L 10.558594,34.53125 q 4.003906,2.519531 6.328125,4.765625 z M 31.984375,26.914062 v -4.21875 H 21.535156 v 4.21875 z"
         id="path2533" />
      <path
         d="m 76.125,34.160156 q -0.488281,3.828125 -1.660156,6.171875 -1.171875,2.34375 -3.125,2.34375 -3.945313,0 -7.382813,-8.476562 -4.472656,3.066406 -10.039062,5.527343 L 52.453125,37.929687 Q 59.074219,35.292969 63.332031,32.128906 61.945312,26.347656 61.574219,21.25 L 54.328125,22.128906 54.171875,20 61.398437,19.160156 q -0.46875,-4.902343 -0.46875,-9.238281 0,-1.2109375 0.03906,-2.3632813 h 2.109375 q -0.03906,1.2109376 -0.03906,2.5195313 0,3.964844 0.371094,8.769531 L 75.597656,17.363281 75.8125,19.375 63.566406,20.878906 q 0.351563,4.921875 1.5625,9.960938 4.316406,-3.652344 7.792969,-8.710938 l 1.71875,1.230469 q -4.277344,5.9375 -8.867188,9.53125 1.386719,3.847656 2.96875,5.683594 1.582032,1.835937 2.480469,1.835937 0.605469,0 1.035156,-0.390625 0.449219,-0.390625 1.015625,-2.539062 0.585938,-2.148438 0.898438,-4.433594 z m -20.566406,-8.28125 q -2.421875,1.09375 -5.722657,2.207031 v 11.640625 q 0,1.171875 -0.664062,2.011719 -0.644531,0.839844 -3.476563,0.839844 -0.839843,0 -2.207031,-0.05859 l -0.761719,-2.109375 q 3.691407,0.07813 4.375,-0.01953 0.703125,-0.117188 0.703125,-0.742188 V 28.730469 q -2.050781,0.78125 -5.957031,1.796875 L 41.125,28.476562 q 3.632812,-0.839843 6.679687,-1.835937 v -10 H 41.4375 v -2.03125 h 6.367187 V 7.5585937 h 2.03125 v 7.0507813 h 5.253907 v 2.03125 h -5.253907 v 9.277344 q 2.734375,-0.957032 5.214844,-1.992188 z m 17.597656,-11.5625 -1.757813,1.367188 q -2.34375,-3.222656 -5.117187,-5.3125 L 67.921875,9.0429688 Q 71.125,11.425781 73.15625,14.316406 Z"
         id="path2535" />
      <path
         d="m 97.921875,11.640625 h -4.960938 v 1.933594 h -2.03125 v -1.933594 h -9.53125 V 9.8046875 h 9.53125 V 7.6757812 h 2.03125 v 2.1289063 h 4.960938 z m 18.203125,0 h -9.39453 v 1.972656 h -2.01172 v -1.972656 h -5 V 9.8046875 h 5 V 7.734375 h 2.01172 v 2.0703125 h 9.39453 z m 0.0391,24.277344 -1.11328,1.816406 q -2.22656,-0.664063 -5.76172,-2.441406 v 1.542968 h -9.492185 v 3.320313 h 13.964845 v 1.894531 H 83.683594 V 40.15625 H 97.804687 V 36.835937 H 88.253906 V 35.15625 q -3.085937,1.660156 -5.605469,2.65625 l -1.25,-1.679688 q 5.996094,-2.34375 10,-5.839843 h -9.550781 v -1.894532 h 11.523438 q 1.152343,-1.386718 1.914062,-2.714843 H 86.4375 V 14.804688 h 24.80469 V 25.683594 H 97.648437 q -0.917968,1.582031 -1.640625,2.714843 h 19.667968 v 1.894532 h -10.15625 q 3.37891,3.261718 10.64453,5.625 z M 109.21094,19.238281 V 16.679687 H 88.449219 v 2.558594 z m 0,4.492188 V 21.09375 H 88.449219 v 2.636719 z m -0.56641,11.230468 q -4.04297,-2.480468 -5.80078,-4.667968 h -8.398438 q -2.734375,2.910156 -5.722656,4.667968 h 9.082031 v -3.027343 h 1.992188 v 3.027343 z"
         id="path2537" />
      <path
         d="m 137.84375,12.519531 h -4.92188 v 2.441407 h -2.07031 v -2.441407 h -9.375 v -1.875 h 9.375 V 7.5585937 h 2.07031 v 3.0859373 h 4.92188 z m 18.28125,0 h -9.43359 v 2.441407 h -2.05079 v -2.441407 h -4.84375 v -1.875 h 4.84375 V 7.6367187 h 2.05079 v 3.0078123 h 9.43359 z m -0.19531,5.566406 h -12.08985 v 3.398438 h 10.91797 v 1.796875 h -10.91797 v 3.085937 q 0,0.585938 0.52735,0.78125 0.54687,0.195313 5.05859,0.195313 1.60156,0 2.44141,-0.01953 0.83984,-0.03906 1.28906,-0.78125 0.46875,-0.742188 0.64453,-2.011719 l 1.83594,0.722656 q -0.41016,3.945313 -4.16016,3.945313 -5.50781,0 -6.97265,-0.03906 -1.44532,-0.03906 -2.07032,-0.761719 -0.625,-0.722656 -0.625,-2.1875 v -8.125 h -8.39843 q -1.15235,1.464844 -2.48047,2.675782 h 8.28125 v 1.875 q -5.3711,7.089843 -16.48438,8.769531 l -0.91797,-1.640625 q 4.82422,-0.742188 7.98828,-2.246094 -1.95312,-2.304687 -3.63281,-3.59375 -1.58203,0.761719 -2.83203,1.152344 l -1.25,-1.679688 q 5.60547,-1.5625 8.80859,-5.3125 h -9.41406 v -1.875 h 34.45313 z m -19.16016,4.550782 h -8.24219 L 128,23.007812 q 1.5625,1.25 3.69141,3.59375 3.04687,-1.660156 5.07812,-3.964843 z m 19.31641,12.246093 h -9.55078 v 7.714844 h -2.01172 v -7.714844 h -10.15625 q -0.25391,3.183594 -3.22266,5.214844 -2.94922,2.011719 -7.46094,2.460938 l -0.91796,-1.835938 q 9.04296,-1.230469 9.51171,-5.839844 h -10.91796 v -1.875 h 11.09374 q 0.21485,-1.191406 0.11719,-2.441406 h 1.99219 q 0.0977,0.78125 -0.0781,2.441406 h 10.03907 v -2.441406 h 2.01172 v 2.441406 h 9.55078 z"
         id="path2539" />
      <path
         d="m 178.05859,47.480469 q -6.52343,-7.460938 -6.52343,-18.417969 0,-11.015625 6.52343,-18.710937 h 2.96875 q -6.64062,8.027343 -6.64062,18.671874 0,10.585938 6.60156,18.457032 z"
         id="path2541" />
      <path
         d="m 218.99609,12.324219 h -9.35547 v 2.714844 h -2.01171 v -2.714844 h -5.03907 v -1.953125 h 5.03907 V 7.7734375 h 2.01171 v 2.5976565 h 9.35547 z m -18.20312,0 h -5.03906 v 2.714844 h -2.03125 v -2.714844 h -9.41407 v -1.953125 h 9.41407 V 7.7734375 h 2.03125 v 2.5976565 h 5.03906 z m 7.1289,15.449218 h -12.63671 v -1.816406 q -3.86719,2.792969 -9.96094,4.726563 l -1.28906,-1.640625 q 5.625,-1.523438 9.96093,-4.550782 -2.07031,-1.933593 -5.8789,-3.886718 -1.05469,0.78125 -2.40235,1.601562 l -1.30859,-1.523437 q 3.86719,-2.011719 7.03125,-6.074219 l 1.83594,0.917969 q -0.66407,0.839843 -1.38672,1.601562 l 9.10156,0.644531 -0.35156,1.953125 q -1.6211,3.457032 -5.27344,6.152344 h 12.55859 z m -9.3164,-8.242187 -8.4961,-0.566406 q -0.19531,0.253906 -0.39062,0.410156 3.55469,1.914062 5.83984,3.828125 1.99219,-1.855469 3.04688,-3.671875 z m 20.58594,9.277344 -1.03516,1.640625 Q 207.21875,27.1875 202.96094,20.683594 l 1.67968,-0.957032 q 1.6211,2.1875 4.62891,4.472657 3.63281,-3.300782 5.33203,-5.625 h -11.36719 v -1.972657 h 13.59375 v 1.972657 q -1.89453,2.890625 -5.83984,6.71875 3.78906,2.148437 8.20313,3.515625 z m -33.78907,-2.929688 -0.2539,-1.835937 q 4.19922,-0.429688 5.37109,-0.761719 l 0.19531,1.757812 q -1.5625,0.371094 -5.3125,0.839844 z m 29.80469,7.050781 h -12.48047 v 9.628907 h -2.01172 v -9.628907 h -12.7539 v -1.933593 h 27.24609 z m 2.51953,6.035157 -1.28906,1.757812 q -3.98438,-2.324219 -10,-4.277344 l 1.03516,-1.71875 q 5.23437,1.699219 10.2539,4.238282 z m -20.89844,-2.792969 q -4.76562,3.046875 -9.86328,4.746094 l -1.36718,-1.835938 q 5.13671,-1.484375 9.80468,-4.355469 z"
         id="path2543" />
      <path
         d="m 259.07422,18.007812 h -34.92188 v -1.875 H 236.75 l 1.60156,-3.886718 h -10.58594 v -1.835938 h 11.3086 l 0.99609,-2.8515623 1.9336,0.6054688 -0.72266,2.2460935 h 12.83203 v 5.722656 h 4.96094 z m -7.07031,-1.875 v -3.886718 h -11.40625 l -1.48438,3.886718 z m 7.07031,22.871094 h -13.59375 v 3.847656 h -2.12891 V 39.003906 H 228 l 1.23047,-5.917969 h -3.1836 v -1.875 h 17.30469 v -2.890625 h -13.90625 v -7.636718 h 24.58985 v 7.636718 h -8.55469 v 2.890625 h 11.75781 v 1.875 h -11.75781 v 4.082032 h 13.59375 z m -7.14844,-12.519531 v -3.964844 h -20.33203 v 3.964844 z m -8.57422,10.683594 V 33.085937 H 231.4375 l -0.83984,4.082032 z"
         id="path2545" />
      <path
         d="m 273.03906,13.4375 -1.40625,1.484375 q -3.08594,-3.632812 -6.07422,-6.0351562 l 1.44532,-1.4453126 q 3.84765,3.2812498 6.03515,5.9960938 z m 25.83985,21.328125 h -13.47657 q -2.16797,6.191406 -12.59765,8.046875 l -0.97657,-1.933594 q 9.04297,-1.464844 11.40625,-6.113281 h -10.80078 v -1.835938 h 11.40625 q 0.35157,-1.425781 0.46875,-3.007812 h -10.50781 v -1.835938 h 10.60547 q 0.11719,-0.722656 0.11719,-2.636718 h -9.49219 v -6.679688 h 9.53125 v -2.480469 h -5.64453 v -4.648437 h -5.44922 v -1.875 h 5.44922 V 7.6757812 h 2.03125 V 9.765625 h 9.41406 V 7.6757812 h 2.07031 V 9.765625 h 6.03516 v 1.875 h -6.03516 v 4.648437 h -5.80078 v 2.480469 h 9.6875 v 6.679688 h -9.76562 q 0,1.269531 -0.0781,2.636718 h 10.91797 v 1.835938 h -11.03516 q -0.15625,1.875 -0.48828,3.007812 h 13.00782 z m -8.51563,-20.351562 v -2.773438 h -9.41406 v 2.773438 z m 3.86719,9.121093 v -2.96875 h -7.59766 v 2.96875 z m -9.66797,0 v -2.96875 h -7.44141 v 2.96875 z m -12.24609,-0.292969 -1.36719,1.640625 q -2.53906,-2.695312 -6.95313,-5.722656 l 1.28907,-1.640625 q 3.98437,2.734375 7.03125,5.722656 z M 271.75,29.6875 q -2.94922,7.5 -6.26953,12.949219 l -1.60156,-1.230469 q 3.82812,-6.660156 6.23046,-13.085938 z m 27.36328,11.40625 -1.15234,1.679687 q -3.88672,-2.363281 -10.6836,-4.84375 L 288.3125,36.25 q 6.34766,2.109375 10.80078,4.84375 z"
         id="path2547" />
      <path
         d="m 324.30859,16.71875 h -3.71093 v 8.769531 q 1.66015,-0.644531 3.16406,-1.445312 l 0.39062,1.953125 q -2.8125,1.347656 -3.55468,1.640625 v 12.441406 q 0,1.367187 -0.82032,1.894531 Q 318.95703,42.5 316.53516,42.5 q -0.87891,0 -1.66016,-0.05859 l -0.50781,-1.796875 3.35937,-0.03906 q 0.91797,0 0.91797,-0.878907 V 28.4375 q -2.48047,1.09375 -4.27734,1.71875 l -0.56641,-1.875 q 1.40625,-0.429688 4.84375,-1.875 v -9.6875 h -4.53125 v -1.914062 h 4.53125 V 7.6367187 h 1.95313 v 7.1679693 h 3.71093 z m 24.19922,5.332031 h -4.23828 v 1.679688 h -1.67969 l -0.27343,-1.679688 h -17.2461 v -1.796875 h 3.88672 v -9.882812 h -3.28125 V 8.5351563 h 22.20703 v 1.8359377 h -3.61328 v 9.882812 h 4.23828 z m -6.1914,-9.6875 v -1.992187 h -11.36719 v 1.992187 z m 0,3.886719 V 14.082031 H 330.94922 V 16.25 Z m 0,4.003906 V 17.96875 h -11.36719 v 2.285156 z m 6.64062,19.199219 h -2.07031 v 3.183594 h -1.97266 v -3.183594 h -8.32031 v -1.777344 h 1.875 V 26.484375 h -1.30859 v -1.757813 h 11.34765 v 1.757813 h -1.62109 v 11.191406 h 2.07031 z m -4.04297,-10.488281 v -2.480469 h -4.51172 v 2.480469 z m 0,4.277343 v -2.402343 h -4.51172 v 2.402343 z m 0,4.433594 v -2.636719 h -4.51172 v 2.636719 z m -8.86719,-11.152344 h -1.25 v 16.113282 h -1.91406 v -3.945313 q -3.92578,0.839844 -9.04297,1.679688 l -0.37109,-1.835938 3.41797,-0.527344 V 26.523437 h -1.81641 v -1.796875 h 10.97656 z m -3.16406,2.441407 v -2.441407 h -4.08203 v 2.441407 z m 0,4.277343 v -2.402343 h -4.08203 v 2.402343 z m 0,3.554688 v -1.757813 h -4.08203 v 2.597657 q 2.53906,-0.410157 4.08203,-0.839844 z"
         id="path2549" />
      <path
         d="m 351.96484,47.480469 q 6.58203,-7.832032 6.58203,-18.457032 0,-10.683593 -6.64062,-18.671874 h 2.98828 q 6.5625,7.695312 6.5625,18.710937 0,10.9375 -6.5625,18.417969 z"
         id="path2551" />
    </g>
  </g>
</svg>
